<?xml version="1.0" encoding="utf-8" standalone="no"?>
<!DOCTYPE svg PUBLIC "-//W3C//DTD SVG 1.1//EN"
  "http://www.w3.org/Graphics/SVG/1.1/DTD/svg11.dtd">
<!-- Created with matplotlib (https://matplotlib.org/) -->
<svg height="345.6pt" version="1.1" viewBox="0 0 460.8 345.6" width="460.8pt" xmlns="http://www.w3.org/2000/svg" xmlns:xlink="http://www.w3.org/1999/xlink">
 <metadata>
  <rdf:RDF xmlns:cc="http://creativecommons.org/ns#" xmlns:dc="http://purl.org/dc/elements/1.1/" xmlns:rdf="http://www.w3.org/1999/02/22-rdf-syntax-ns#">
   <cc:Work>
    <dc:type rdf:resource="http://purl.org/dc/dcmitype/StillImage"/>
    <dc:date>2022-11-08T14:28:27.133412</dc:date>
    <dc:format>image/svg+xml</dc:format>
    <dc:creator>
     <cc:Agent>
      <dc:title>Matplotlib v3.3.2, https://matplotlib.org/</dc:title>
     </cc:Agent>
    </dc:creator>
   </cc:Work>
  </rdf:RDF>
 </metadata>
 <defs>
  <style type="text/css">*{stroke-linecap:butt;stroke-linejoin:round;}</style>
 </defs>
 <g id="figure_1">
  <g id="patch_1">
   <path d="M 0 345.6 
L 460.8 345.6 
L 460.8 0 
L 0 0 
z
" style="fill:#ffffff;"/>
  </g>
  <g id="axes_1">
   <g id="patch_2">
    <path d="M 57.6 307.584 
L 414.72 307.584 
L 414.72 41.472 
L 57.6 41.472 
z
" style="fill:#ffffff;"/>
   </g>
   <g id="matplotlib.axis_1">
    <g id="xtick_1">
     <g id="line2d_1">
      <defs>
       <path d="M 0 0 
L 0 3.5 
" id="m9856e97ccc" style="stroke:#000000;stroke-width:0.8;"/>
      </defs>
      <g>
       <use style="stroke:#000000;stroke-width:0.8;" x="81.85418" xlink:href="#m9856e97ccc" y="307.584"/>
      </g>
     </g>
     <g id="text_1">
      <!-- $\mathdefault{10^{2}}$ -->
      <g transform="translate(73.05418 322.182437)scale(0.1 -0.1)">
       <defs>
        <path d="M 12.40625 8.296875 
L 28.515625 8.296875 
L 28.515625 63.921875 
L 10.984375 60.40625 
L 10.984375 69.390625 
L 28.421875 72.90625 
L 38.28125 72.90625 
L 38.28125 8.296875 
L 54.390625 8.296875 
L 54.390625 0 
L 12.40625 0 
z
" id="DejaVuSans-49"/>
        <path d="M 31.78125 66.40625 
Q 24.171875 66.40625 20.328125 58.90625 
Q 16.5 51.421875 16.5 36.375 
Q 16.5 21.390625 20.328125 13.890625 
Q 24.171875 6.390625 31.78125 6.390625 
Q 39.453125 6.390625 43.28125 13.890625 
Q 47.125 21.390625 47.125 36.375 
Q 47.125 51.421875 43.28125 58.90625 
Q 39.453125 66.40625 31.78125 66.40625 
z
M 31.78125 74.21875 
Q 44.046875 74.21875 50.515625 64.515625 
Q 56.984375 54.828125 56.984375 36.375 
Q 56.984375 17.96875 50.515625 8.265625 
Q 44.046875 -1.421875 31.78125 -1.421875 
Q 19.53125 -1.421875 13.0625 8.265625 
Q 6.59375 17.96875 6.59375 36.375 
Q 6.59375 54.828125 13.0625 64.515625 
Q 19.53125 74.21875 31.78125 74.21875 
z
" id="DejaVuSans-48"/>
        <path d="M 19.1875 8.296875 
L 53.609375 8.296875 
L 53.609375 0 
L 7.328125 0 
L 7.328125 8.296875 
Q 12.9375 14.109375 22.625 23.890625 
Q 32.328125 33.6875 34.8125 36.53125 
Q 39.546875 41.84375 41.421875 45.53125 
Q 43.3125 49.21875 43.3125 52.78125 
Q 43.3125 58.59375 39.234375 62.25 
Q 35.15625 65.921875 28.609375 65.921875 
Q 23.96875 65.921875 18.8125 64.3125 
Q 13.671875 62.703125 7.8125 59.421875 
L 7.8125 69.390625 
Q 13.765625 71.78125 18.9375 73 
Q 24.125 74.21875 28.421875 74.21875 
Q 39.75 74.21875 46.484375 68.546875 
Q 53.21875 62.890625 53.21875 53.421875 
Q 53.21875 48.921875 51.53125 44.890625 
Q 49.859375 40.875 45.40625 35.40625 
Q 44.1875 33.984375 37.640625 27.21875 
Q 31.109375 20.453125 19.1875 8.296875 
z
" id="DejaVuSans-50"/>
       </defs>
       <use transform="translate(0 0.765625)" xlink:href="#DejaVuSans-49"/>
       <use transform="translate(63.623047 0.765625)" xlink:href="#DejaVuSans-48"/>
       <use transform="translate(128.203125 39.046875)scale(0.7)" xlink:href="#DejaVuSans-50"/>
      </g>
     </g>
    </g>
    <g id="xtick_2">
     <g id="line2d_2">
      <g>
       <use style="stroke:#000000;stroke-width:0.8;" x="264.878496" xlink:href="#m9856e97ccc" y="307.584"/>
      </g>
     </g>
     <g id="text_2">
      <!-- $\mathdefault{10^{3}}$ -->
      <g transform="translate(256.078496 322.182437)scale(0.1 -0.1)">
       <defs>
        <path d="M 40.578125 39.3125 
Q 47.65625 37.796875 51.625 33 
Q 55.609375 28.21875 55.609375 21.1875 
Q 55.609375 10.40625 48.1875 4.484375 
Q 40.765625 -1.421875 27.09375 -1.421875 
Q 22.515625 -1.421875 17.65625 -0.515625 
Q 12.796875 0.390625 7.625 2.203125 
L 7.625 11.71875 
Q 11.71875 9.328125 16.59375 8.109375 
Q 21.484375 6.890625 26.8125 6.890625 
Q 36.078125 6.890625 40.9375 10.546875 
Q 45.796875 14.203125 45.796875 21.1875 
Q 45.796875 27.640625 41.28125 31.265625 
Q 36.765625 34.90625 28.71875 34.90625 
L 20.21875 34.90625 
L 20.21875 43.015625 
L 29.109375 43.015625 
Q 36.375 43.015625 40.234375 45.921875 
Q 44.09375 48.828125 44.09375 54.296875 
Q 44.09375 59.90625 40.109375 62.90625 
Q 36.140625 65.921875 28.71875 65.921875 
Q 24.65625 65.921875 20.015625 65.03125 
Q 15.375 64.15625 9.8125 62.3125 
L 9.8125 71.09375 
Q 15.4375 72.65625 20.34375 73.4375 
Q 25.25 74.21875 29.59375 74.21875 
Q 40.828125 74.21875 47.359375 69.109375 
Q 53.90625 64.015625 53.90625 55.328125 
Q 53.90625 49.265625 50.4375 45.09375 
Q 46.96875 40.921875 40.578125 39.3125 
z
" id="DejaVuSans-51"/>
       </defs>
       <use transform="translate(0 0.765625)" xlink:href="#DejaVuSans-49"/>
       <use transform="translate(63.623047 0.765625)" xlink:href="#DejaVuSans-48"/>
       <use transform="translate(128.203125 39.046875)scale(0.7)" xlink:href="#DejaVuSans-51"/>
      </g>
     </g>
    </g>
    <g id="xtick_3">
     <g id="line2d_3">
      <defs>
       <path d="M 0 0 
L 0 2 
" id="ma59d4b05f1" style="stroke:#000000;stroke-width:0.6;"/>
      </defs>
      <g>
       <use style="stroke:#000000;stroke-width:0.6;" x="64.117292" xlink:href="#ma59d4b05f1" y="307.584"/>
      </g>
     </g>
    </g>
    <g id="xtick_4">
     <g id="line2d_4">
      <g>
       <use style="stroke:#000000;stroke-width:0.6;" x="73.479447" xlink:href="#ma59d4b05f1" y="307.584"/>
      </g>
     </g>
    </g>
    <g id="xtick_5">
     <g id="line2d_5">
      <g>
       <use style="stroke:#000000;stroke-width:0.6;" x="136.949989" xlink:href="#ma59d4b05f1" y="307.584"/>
      </g>
     </g>
    </g>
    <g id="xtick_6">
     <g id="line2d_6">
      <g>
       <use style="stroke:#000000;stroke-width:0.6;" x="169.178971" xlink:href="#ma59d4b05f1" y="307.584"/>
      </g>
     </g>
    </g>
    <g id="xtick_7">
     <g id="line2d_7">
      <g>
       <use style="stroke:#000000;stroke-width:0.6;" x="192.045798" xlink:href="#ma59d4b05f1" y="307.584"/>
      </g>
     </g>
    </g>
    <g id="xtick_8">
     <g id="line2d_8">
      <g>
       <use style="stroke:#000000;stroke-width:0.6;" x="209.782687" xlink:href="#ma59d4b05f1" y="307.584"/>
      </g>
     </g>
    </g>
    <g id="xtick_9">
     <g id="line2d_9">
      <g>
       <use style="stroke:#000000;stroke-width:0.6;" x="224.27478" xlink:href="#ma59d4b05f1" y="307.584"/>
      </g>
     </g>
    </g>
    <g id="xtick_10">
     <g id="line2d_10">
      <g>
       <use style="stroke:#000000;stroke-width:0.6;" x="236.527671" xlink:href="#ma59d4b05f1" y="307.584"/>
      </g>
     </g>
    </g>
    <g id="xtick_11">
     <g id="line2d_11">
      <g>
       <use style="stroke:#000000;stroke-width:0.6;" x="247.141607" xlink:href="#ma59d4b05f1" y="307.584"/>
      </g>
     </g>
    </g>
    <g id="xtick_12">
     <g id="line2d_12">
      <g>
       <use style="stroke:#000000;stroke-width:0.6;" x="256.503762" xlink:href="#ma59d4b05f1" y="307.584"/>
      </g>
     </g>
    </g>
    <g id="xtick_13">
     <g id="line2d_13">
      <g>
       <use style="stroke:#000000;stroke-width:0.6;" x="319.974305" xlink:href="#ma59d4b05f1" y="307.584"/>
      </g>
     </g>
    </g>
    <g id="xtick_14">
     <g id="line2d_14">
      <g>
       <use style="stroke:#000000;stroke-width:0.6;" x="352.203287" xlink:href="#ma59d4b05f1" y="307.584"/>
      </g>
     </g>
    </g>
    <g id="xtick_15">
     <g id="line2d_15">
      <g>
       <use style="stroke:#000000;stroke-width:0.6;" x="375.070114" xlink:href="#ma59d4b05f1" y="307.584"/>
      </g>
     </g>
    </g>
    <g id="xtick_16">
     <g id="line2d_16">
      <g>
       <use style="stroke:#000000;stroke-width:0.6;" x="392.807002" xlink:href="#ma59d4b05f1" y="307.584"/>
      </g>
     </g>
    </g>
    <g id="xtick_17">
     <g id="line2d_17">
      <g>
       <use style="stroke:#000000;stroke-width:0.6;" x="407.299096" xlink:href="#ma59d4b05f1" y="307.584"/>
      </g>
     </g>
    </g>
    <g id="text_3">
     <!-- Execution time (s) -->
     <g transform="translate(190.645156 335.860562)scale(0.1 -0.1)">
      <defs>
       <path d="M 9.8125 72.90625 
L 55.90625 72.90625 
L 55.90625 64.59375 
L 19.671875 64.59375 
L 19.671875 43.015625 
L 54.390625 43.015625 
L 54.390625 34.71875 
L 19.671875 34.71875 
L 19.671875 8.296875 
L 56.78125 8.296875 
L 56.78125 0 
L 9.8125 0 
z
" id="DejaVuSans-69"/>
       <path d="M 54.890625 54.6875 
L 35.109375 28.078125 
L 55.90625 0 
L 45.3125 0 
L 29.390625 21.484375 
L 13.484375 0 
L 2.875 0 
L 24.125 28.609375 
L 4.6875 54.6875 
L 15.28125 54.6875 
L 29.78125 35.203125 
L 44.28125 54.6875 
z
" id="DejaVuSans-120"/>
       <path d="M 56.203125 29.59375 
L 56.203125 25.203125 
L 14.890625 25.203125 
Q 15.484375 15.921875 20.484375 11.0625 
Q 25.484375 6.203125 34.421875 6.203125 
Q 39.59375 6.203125 44.453125 7.46875 
Q 49.3125 8.734375 54.109375 11.28125 
L 54.109375 2.78125 
Q 49.265625 0.734375 44.1875 -0.34375 
Q 39.109375 -1.421875 33.890625 -1.421875 
Q 20.796875 -1.421875 13.15625 6.1875 
Q 5.515625 13.8125 5.515625 26.8125 
Q 5.515625 40.234375 12.765625 48.109375 
Q 20.015625 56 32.328125 56 
Q 43.359375 56 49.78125 48.890625 
Q 56.203125 41.796875 56.203125 29.59375 
z
M 47.21875 32.234375 
Q 47.125 39.59375 43.09375 43.984375 
Q 39.0625 48.390625 32.421875 48.390625 
Q 24.90625 48.390625 20.390625 44.140625 
Q 15.875 39.890625 15.1875 32.171875 
z
" id="DejaVuSans-101"/>
       <path d="M 48.78125 52.59375 
L 48.78125 44.1875 
Q 44.96875 46.296875 41.140625 47.34375 
Q 37.3125 48.390625 33.40625 48.390625 
Q 24.65625 48.390625 19.8125 42.84375 
Q 14.984375 37.3125 14.984375 27.296875 
Q 14.984375 17.28125 19.8125 11.734375 
Q 24.65625 6.203125 33.40625 6.203125 
Q 37.3125 6.203125 41.140625 7.25 
Q 44.96875 8.296875 48.78125 10.40625 
L 48.78125 2.09375 
Q 45.015625 0.34375 40.984375 -0.53125 
Q 36.96875 -1.421875 32.421875 -1.421875 
Q 20.0625 -1.421875 12.78125 6.34375 
Q 5.515625 14.109375 5.515625 27.296875 
Q 5.515625 40.671875 12.859375 48.328125 
Q 20.21875 56 33.015625 56 
Q 37.15625 56 41.109375 55.140625 
Q 45.0625 54.296875 48.78125 52.59375 
z
" id="DejaVuSans-99"/>
       <path d="M 8.5 21.578125 
L 8.5 54.6875 
L 17.484375 54.6875 
L 17.484375 21.921875 
Q 17.484375 14.15625 20.5 10.265625 
Q 23.53125 6.390625 29.59375 6.390625 
Q 36.859375 6.390625 41.078125 11.03125 
Q 45.3125 15.671875 45.3125 23.6875 
L 45.3125 54.6875 
L 54.296875 54.6875 
L 54.296875 0 
L 45.3125 0 
L 45.3125 8.40625 
Q 42.046875 3.421875 37.71875 1 
Q 33.40625 -1.421875 27.6875 -1.421875 
Q 18.265625 -1.421875 13.375 4.4375 
Q 8.5 10.296875 8.5 21.578125 
z
M 31.109375 56 
z
" id="DejaVuSans-117"/>
       <path d="M 18.3125 70.21875 
L 18.3125 54.6875 
L 36.8125 54.6875 
L 36.8125 47.703125 
L 18.3125 47.703125 
L 18.3125 18.015625 
Q 18.3125 11.328125 20.140625 9.421875 
Q 21.96875 7.515625 27.59375 7.515625 
L 36.8125 7.515625 
L 36.8125 0 
L 27.59375 0 
Q 17.1875 0 13.234375 3.875 
Q 9.28125 7.765625 9.28125 18.015625 
L 9.28125 47.703125 
L 2.6875 47.703125 
L 2.6875 54.6875 
L 9.28125 54.6875 
L 9.28125 70.21875 
z
" id="DejaVuSans-116"/>
       <path d="M 9.421875 54.6875 
L 18.40625 54.6875 
L 18.40625 0 
L 9.421875 0 
z
M 9.421875 75.984375 
L 18.40625 75.984375 
L 18.40625 64.59375 
L 9.421875 64.59375 
z
" id="DejaVuSans-105"/>
       <path d="M 30.609375 48.390625 
Q 23.390625 48.390625 19.1875 42.75 
Q 14.984375 37.109375 14.984375 27.296875 
Q 14.984375 17.484375 19.15625 11.84375 
Q 23.34375 6.203125 30.609375 6.203125 
Q 37.796875 6.203125 41.984375 11.859375 
Q 46.1875 17.53125 46.1875 27.296875 
Q 46.1875 37.015625 41.984375 42.703125 
Q 37.796875 48.390625 30.609375 48.390625 
z
M 30.609375 56 
Q 42.328125 56 49.015625 48.375 
Q 55.71875 40.765625 55.71875 27.296875 
Q 55.71875 13.875 49.015625 6.21875 
Q 42.328125 -1.421875 30.609375 -1.421875 
Q 18.84375 -1.421875 12.171875 6.21875 
Q 5.515625 13.875 5.515625 27.296875 
Q 5.515625 40.765625 12.171875 48.375 
Q 18.84375 56 30.609375 56 
z
" id="DejaVuSans-111"/>
       <path d="M 54.890625 33.015625 
L 54.890625 0 
L 45.90625 0 
L 45.90625 32.71875 
Q 45.90625 40.484375 42.875 44.328125 
Q 39.84375 48.1875 33.796875 48.1875 
Q 26.515625 48.1875 22.3125 43.546875 
Q 18.109375 38.921875 18.109375 30.90625 
L 18.109375 0 
L 9.078125 0 
L 9.078125 54.6875 
L 18.109375 54.6875 
L 18.109375 46.1875 
Q 21.34375 51.125 25.703125 53.5625 
Q 30.078125 56 35.796875 56 
Q 45.21875 56 50.046875 50.171875 
Q 54.890625 44.34375 54.890625 33.015625 
z
" id="DejaVuSans-110"/>
       <path id="DejaVuSans-32"/>
       <path d="M 52 44.1875 
Q 55.375 50.25 60.0625 53.125 
Q 64.75 56 71.09375 56 
Q 79.640625 56 84.28125 50.015625 
Q 88.921875 44.046875 88.921875 33.015625 
L 88.921875 0 
L 79.890625 0 
L 79.890625 32.71875 
Q 79.890625 40.578125 77.09375 44.375 
Q 74.3125 48.1875 68.609375 48.1875 
Q 61.625 48.1875 57.5625 43.546875 
Q 53.515625 38.921875 53.515625 30.90625 
L 53.515625 0 
L 44.484375 0 
L 44.484375 32.71875 
Q 44.484375 40.625 41.703125 44.40625 
Q 38.921875 48.1875 33.109375 48.1875 
Q 26.21875 48.1875 22.15625 43.53125 
Q 18.109375 38.875 18.109375 30.90625 
L 18.109375 0 
L 9.078125 0 
L 9.078125 54.6875 
L 18.109375 54.6875 
L 18.109375 46.1875 
Q 21.1875 51.21875 25.484375 53.609375 
Q 29.78125 56 35.6875 56 
Q 41.65625 56 45.828125 52.96875 
Q 50 49.953125 52 44.1875 
z
" id="DejaVuSans-109"/>
       <path d="M 31 75.875 
Q 24.46875 64.65625 21.28125 53.65625 
Q 18.109375 42.671875 18.109375 31.390625 
Q 18.109375 20.125 21.3125 9.0625 
Q 24.515625 -2 31 -13.1875 
L 23.1875 -13.1875 
Q 15.875 -1.703125 12.234375 9.375 
Q 8.59375 20.453125 8.59375 31.390625 
Q 8.59375 42.28125 12.203125 53.3125 
Q 15.828125 64.359375 23.1875 75.875 
z
" id="DejaVuSans-40"/>
       <path d="M 44.28125 53.078125 
L 44.28125 44.578125 
Q 40.484375 46.53125 36.375 47.5 
Q 32.28125 48.484375 27.875 48.484375 
Q 21.1875 48.484375 17.84375 46.4375 
Q 14.5 44.390625 14.5 40.28125 
Q 14.5 37.15625 16.890625 35.375 
Q 19.28125 33.59375 26.515625 31.984375 
L 29.59375 31.296875 
Q 39.15625 29.25 43.1875 25.515625 
Q 47.21875 21.78125 47.21875 15.09375 
Q 47.21875 7.46875 41.1875 3.015625 
Q 35.15625 -1.421875 24.609375 -1.421875 
Q 20.21875 -1.421875 15.453125 -0.5625 
Q 10.6875 0.296875 5.421875 2 
L 5.421875 11.28125 
Q 10.40625 8.6875 15.234375 7.390625 
Q 20.0625 6.109375 24.8125 6.109375 
Q 31.15625 6.109375 34.5625 8.28125 
Q 37.984375 10.453125 37.984375 14.40625 
Q 37.984375 18.0625 35.515625 20.015625 
Q 33.0625 21.96875 24.703125 23.78125 
L 21.578125 24.515625 
Q 13.234375 26.265625 9.515625 29.90625 
Q 5.8125 33.546875 5.8125 39.890625 
Q 5.8125 47.609375 11.28125 51.796875 
Q 16.75 56 26.8125 56 
Q 31.78125 56 36.171875 55.265625 
Q 40.578125 54.546875 44.28125 53.078125 
z
" id="DejaVuSans-115"/>
       <path d="M 8.015625 75.875 
L 15.828125 75.875 
Q 23.140625 64.359375 26.78125 53.3125 
Q 30.421875 42.28125 30.421875 31.390625 
Q 30.421875 20.453125 26.78125 9.375 
Q 23.140625 -1.703125 15.828125 -13.1875 
L 8.015625 -13.1875 
Q 14.5 -2 17.703125 9.0625 
Q 20.90625 20.125 20.90625 31.390625 
Q 20.90625 42.671875 17.703125 53.65625 
Q 14.5 64.65625 8.015625 75.875 
z
" id="DejaVuSans-41"/>
      </defs>
      <use xlink:href="#DejaVuSans-69"/>
      <use x="63.183594" xlink:href="#DejaVuSans-120"/>
      <use x="119.238281" xlink:href="#DejaVuSans-101"/>
      <use x="180.761719" xlink:href="#DejaVuSans-99"/>
      <use x="235.742188" xlink:href="#DejaVuSans-117"/>
      <use x="299.121094" xlink:href="#DejaVuSans-116"/>
      <use x="338.330078" xlink:href="#DejaVuSans-105"/>
      <use x="366.113281" xlink:href="#DejaVuSans-111"/>
      <use x="427.294922" xlink:href="#DejaVuSans-110"/>
      <use x="490.673828" xlink:href="#DejaVuSans-32"/>
      <use x="522.460938" xlink:href="#DejaVuSans-116"/>
      <use x="561.669922" xlink:href="#DejaVuSans-105"/>
      <use x="589.453125" xlink:href="#DejaVuSans-109"/>
      <use x="686.865234" xlink:href="#DejaVuSans-101"/>
      <use x="748.388672" xlink:href="#DejaVuSans-32"/>
      <use x="780.175781" xlink:href="#DejaVuSans-40"/>
      <use x="819.189453" xlink:href="#DejaVuSans-115"/>
      <use x="871.289062" xlink:href="#DejaVuSans-41"/>
     </g>
    </g>
   </g>
   <g id="matplotlib.axis_2">
    <g id="ytick_1">
     <g id="line2d_18">
      <defs>
       <path d="M 0 0 
L -3.5 0 
" id="m6c7f5ca96a" style="stroke:#000000;stroke-width:0.8;"/>
      </defs>
      <g>
       <use style="stroke:#000000;stroke-width:0.8;" x="57.6" xlink:href="#m6c7f5ca96a" y="271.981681"/>
      </g>
     </g>
     <g id="text_4">
      <!-- 2000 -->
      <g transform="translate(25.15 275.7809)scale(0.1 -0.1)">
       <use xlink:href="#DejaVuSans-50"/>
       <use x="63.623047" xlink:href="#DejaVuSans-48"/>
       <use x="127.246094" xlink:href="#DejaVuSans-48"/>
       <use x="190.869141" xlink:href="#DejaVuSans-48"/>
      </g>
     </g>
    </g>
    <g id="ytick_2">
     <g id="line2d_19">
      <g>
       <use style="stroke:#000000;stroke-width:0.8;" x="57.6" xlink:href="#m6c7f5ca96a" y="213.496315"/>
      </g>
     </g>
     <g id="text_5">
      <!-- 2500 -->
      <g transform="translate(25.15 217.295534)scale(0.1 -0.1)">
       <defs>
        <path d="M 10.796875 72.90625 
L 49.515625 72.90625 
L 49.515625 64.59375 
L 19.828125 64.59375 
L 19.828125 46.734375 
Q 21.96875 47.46875 24.109375 47.828125 
Q 26.265625 48.1875 28.421875 48.1875 
Q 40.625 48.1875 47.75 41.5 
Q 54.890625 34.8125 54.890625 23.390625 
Q 54.890625 11.625 47.5625 5.09375 
Q 40.234375 -1.421875 26.90625 -1.421875 
Q 22.3125 -1.421875 17.546875 -0.640625 
Q 12.796875 0.140625 7.71875 1.703125 
L 7.71875 11.625 
Q 12.109375 9.234375 16.796875 8.0625 
Q 21.484375 6.890625 26.703125 6.890625 
Q 35.15625 6.890625 40.078125 11.328125 
Q 45.015625 15.765625 45.015625 23.390625 
Q 45.015625 31 40.078125 35.4375 
Q 35.15625 39.890625 26.703125 39.890625 
Q 22.75 39.890625 18.8125 39.015625 
Q 14.890625 38.140625 10.796875 36.28125 
z
" id="DejaVuSans-53"/>
       </defs>
       <use xlink:href="#DejaVuSans-50"/>
       <use x="63.623047" xlink:href="#DejaVuSans-53"/>
       <use x="127.246094" xlink:href="#DejaVuSans-48"/>
       <use x="190.869141" xlink:href="#DejaVuSans-48"/>
      </g>
     </g>
    </g>
    <g id="ytick_3">
     <g id="line2d_20">
      <g>
       <use style="stroke:#000000;stroke-width:0.8;" x="57.6" xlink:href="#m6c7f5ca96a" y="155.010949"/>
      </g>
     </g>
     <g id="text_6">
      <!-- 3000 -->
      <g transform="translate(25.15 158.810167)scale(0.1 -0.1)">
       <use xlink:href="#DejaVuSans-51"/>
       <use x="63.623047" xlink:href="#DejaVuSans-48"/>
       <use x="127.246094" xlink:href="#DejaVuSans-48"/>
       <use x="190.869141" xlink:href="#DejaVuSans-48"/>
      </g>
     </g>
    </g>
    <g id="ytick_4">
     <g id="line2d_21">
      <g>
       <use style="stroke:#000000;stroke-width:0.8;" x="57.6" xlink:href="#m6c7f5ca96a" y="96.525582"/>
      </g>
     </g>
     <g id="text_7">
      <!-- 3500 -->
      <g transform="translate(25.15 100.324801)scale(0.1 -0.1)">
       <use xlink:href="#DejaVuSans-51"/>
       <use x="63.623047" xlink:href="#DejaVuSans-53"/>
       <use x="127.246094" xlink:href="#DejaVuSans-48"/>
       <use x="190.869141" xlink:href="#DejaVuSans-48"/>
      </g>
     </g>
    </g>
    <g id="text_8">
     <!-- Memory (MB) -->
     <g transform="translate(19.070312 208.098312)rotate(-90)scale(0.1 -0.1)">
      <defs>
       <path d="M 9.8125 72.90625 
L 24.515625 72.90625 
L 43.109375 23.296875 
L 61.8125 72.90625 
L 76.515625 72.90625 
L 76.515625 0 
L 66.890625 0 
L 66.890625 64.015625 
L 48.09375 14.015625 
L 38.1875 14.015625 
L 19.390625 64.015625 
L 19.390625 0 
L 9.8125 0 
z
" id="DejaVuSans-77"/>
       <path d="M 41.109375 46.296875 
Q 39.59375 47.171875 37.8125 47.578125 
Q 36.03125 48 33.890625 48 
Q 26.265625 48 22.1875 43.046875 
Q 18.109375 38.09375 18.109375 28.8125 
L 18.109375 0 
L 9.078125 0 
L 9.078125 54.6875 
L 18.109375 54.6875 
L 18.109375 46.1875 
Q 20.953125 51.171875 25.484375 53.578125 
Q 30.03125 56 36.53125 56 
Q 37.453125 56 38.578125 55.875 
Q 39.703125 55.765625 41.0625 55.515625 
z
" id="DejaVuSans-114"/>
       <path d="M 32.171875 -5.078125 
Q 28.375 -14.84375 24.75 -17.8125 
Q 21.140625 -20.796875 15.09375 -20.796875 
L 7.90625 -20.796875 
L 7.90625 -13.28125 
L 13.1875 -13.28125 
Q 16.890625 -13.28125 18.9375 -11.515625 
Q 21 -9.765625 23.484375 -3.21875 
L 25.09375 0.875 
L 2.984375 54.6875 
L 12.5 54.6875 
L 29.59375 11.921875 
L 46.6875 54.6875 
L 56.203125 54.6875 
z
" id="DejaVuSans-121"/>
       <path d="M 19.671875 34.8125 
L 19.671875 8.109375 
L 35.5 8.109375 
Q 43.453125 8.109375 47.28125 11.40625 
Q 51.125 14.703125 51.125 21.484375 
Q 51.125 28.328125 47.28125 31.5625 
Q 43.453125 34.8125 35.5 34.8125 
z
M 19.671875 64.796875 
L 19.671875 42.828125 
L 34.28125 42.828125 
Q 41.5 42.828125 45.03125 45.53125 
Q 48.578125 48.25 48.578125 53.8125 
Q 48.578125 59.328125 45.03125 62.0625 
Q 41.5 64.796875 34.28125 64.796875 
z
M 9.8125 72.90625 
L 35.015625 72.90625 
Q 46.296875 72.90625 52.390625 68.21875 
Q 58.5 63.53125 58.5 54.890625 
Q 58.5 48.1875 55.375 44.234375 
Q 52.25 40.28125 46.1875 39.3125 
Q 53.46875 37.75 57.5 32.78125 
Q 61.53125 27.828125 61.53125 20.40625 
Q 61.53125 10.640625 54.890625 5.3125 
Q 48.25 0 35.984375 0 
L 9.8125 0 
z
" id="DejaVuSans-66"/>
      </defs>
      <use xlink:href="#DejaVuSans-77"/>
      <use x="86.279297" xlink:href="#DejaVuSans-101"/>
      <use x="147.802734" xlink:href="#DejaVuSans-109"/>
      <use x="245.214844" xlink:href="#DejaVuSans-111"/>
      <use x="306.396484" xlink:href="#DejaVuSans-114"/>
      <use x="347.509766" xlink:href="#DejaVuSans-121"/>
      <use x="406.689453" xlink:href="#DejaVuSans-32"/>
      <use x="438.476562" xlink:href="#DejaVuSans-40"/>
      <use x="477.490234" xlink:href="#DejaVuSans-77"/>
      <use x="563.769531" xlink:href="#DejaVuSans-66"/>
      <use x="632.373047" xlink:href="#DejaVuSans-41"/>
     </g>
    </g>
   </g>
   <g id="line2d_22">
    <path clip-path="url(#pcf9b3b6c8f)" d="M 73.832727 295.488 
L 80.40638 295.254193 
L 89.882883 293.175805 
L 98.100943 289.863703 
L 105.644704 287.075749 
L 111.730558 284.956157 
L 119.939937 284.032908 
L 122.530164 281.813182 
L 129.805146 272.707656 
L 133.290187 271.973656 
L 136.167087 271.039867 
L 139.419394 269.449214 
L 144.25995 265.67429 
L 160.437849 265.572718 
L 165.968171 265.357597 
L 230.580155 265.150141 
L 231.781589 262.297987 
L 233.566853 258.966241 
L 235.413049 255.854408 
L 237.184268 252.423007 
L 239.383013 246.355531 
L 240.579463 245.459591 
L 241.958554 244.658995 
L 243.415774 243.147396 
L 244.499609 240.611935 
L 245.687806 240.199419 
L 249.439701 235.841416 
L 250.500741 235.386738 
L 251.620191 234.33892 
L 256.080616 228.730913 
L 257.164845 227.175715 
L 258.198575 224.869269 
L 259.431031 221.845592 
L 262.109784 217.570475 
L 263.342228 215.126045 
L 264.660778 212.76498 
L 265.939339 208.839135 
L 268.260834 203.267541 
L 269.739387 200.173914 
L 273.744293 196.271545 
L 275.37087 191.322796 
L 276.653696 188.740861 
L 278.68331 183.806485 
L 280.107187 182.543067 
L 281.514234 180.154693 
L 284.004813 173.564026 
L 286.182147 168.636837 
L 287.622666 166.351952 
L 288.955789 163.259762 
L 290.401655 160.327117 
L 293.53742 150.826802 
L 294.982294 150.434889 
L 296.218458 149.263939 
L 297.711882 147.502723 
L 298.697012 145.344802 
L 299.66923 145.344802 
L 300.630514 144.620384 
L 301.751944 143.604666 
L 302.907746 142.810778 
L 304.372673 139.499634 
L 306.27627 133.770411 
L 307.984933 127.843794 
L 309.136837 127.3115 
L 310.198881 127.288503 
L 311.488805 126.743753 
L 312.541686 126.465388 
L 313.610065 126.436163 
L 314.614737 126.152049 
L 316.725182 126.069642 
L 317.799068 125.542139 
L 320.001771 125.44488 
L 320.976192 125.16939 
L 322.942984 122.025935 
L 323.908145 120.766829 
L 324.92094 120.017018 
L 327.977127 119.286851 
L 335.830756 116.860628 
L 336.658151 116.16879 
L 337.369564 113.435934 
L 338.22428 112.734514 
L 340.609118 112.700018 
L 341.411025 112.337809 
L 348.092905 112.334455 
L 348.81015 110.24936 
L 350.340465 109.165608 
L 351.07264 107.72348 
L 351.726795 114.058301 
L 352.359243 105.001165 
L 352.96758 111.336944 
L 353.57706 102.255374 
L 354.203341 100.894216 
L 354.816623 107.63724 
L 355.56565 107.614722 
L 356.214843 105.740914 
L 356.827816 96.813139 
L 358.122571 94.184251 
L 358.866783 100.390669 
L 359.482622 99.095629 
L 360.100065 89.891885 
L 360.725607 96.598497 
L 361.336239 94.141131 
L 361.967658 92.129339 
L 362.669862 89.006965 
L 363.388583 86.81359 
L 364.035389 84.151643 
L 365.417097 79.905752 
L 366.3397 75.07726 
L 368.151376 69.518601 
L 368.78404 65.4289 
L 370.317731 57.87953 
L 371.169345 55.515112 
L 372.07207 53.568 
L 372.808312 59.394962 
L 380.329908 59.36909 
L 381.00571 59.173133 
L 386.927949 59.16403 
L 387.554885 55.113616 
L 398.487273 55.018272 
L 398.487273 55.018272 
" style="fill:none;stroke:#000000;stroke-linecap:square;stroke-width:1.5;"/>
    <defs>
     <path d="M 0 3 
C 0.795609 3 1.55874 2.683901 2.12132 2.12132 
C 2.683901 1.55874 3 0.795609 3 0 
C 3 -0.795609 2.683901 -1.55874 2.12132 -2.12132 
C 1.55874 -2.683901 0.795609 -3 0 -3 
C -0.795609 -3 -1.55874 -2.683901 -2.12132 -2.12132 
C -2.683901 -1.55874 -3 -0.795609 -3 0 
C -3 0.795609 -2.683901 1.55874 -2.12132 2.12132 
C -1.55874 2.683901 -0.795609 3 0 3 
z
" id="m8630566418" style="stroke:#000000;"/>
    </defs>
    <g clip-path="url(#pcf9b3b6c8f)">
     <use style="stroke:#000000;" x="73.832727" xlink:href="#m8630566418" y="295.488"/>
     <use style="stroke:#000000;" x="80.40638" xlink:href="#m8630566418" y="295.254193"/>
     <use style="stroke:#000000;" x="89.882883" xlink:href="#m8630566418" y="293.175805"/>
     <use style="stroke:#000000;" x="98.100943" xlink:href="#m8630566418" y="289.863703"/>
     <use style="stroke:#000000;" x="105.644704" xlink:href="#m8630566418" y="287.075749"/>
     <use style="stroke:#000000;" x="111.730558" xlink:href="#m8630566418" y="284.956157"/>
     <use style="stroke:#000000;" x="119.939937" xlink:href="#m8630566418" y="284.032908"/>
     <use style="stroke:#000000;" x="122.530164" xlink:href="#m8630566418" y="281.813182"/>
     <use style="stroke:#000000;" x="129.805146" xlink:href="#m8630566418" y="272.707656"/>
     <use style="stroke:#000000;" x="133.290187" xlink:href="#m8630566418" y="271.973656"/>
     <use style="stroke:#000000;" x="136.167087" xlink:href="#m8630566418" y="271.039867"/>
     <use style="stroke:#000000;" x="139.419394" xlink:href="#m8630566418" y="269.449214"/>
     <use style="stroke:#000000;" x="144.25995" xlink:href="#m8630566418" y="265.67429"/>
     <use style="stroke:#000000;" x="146.712814" xlink:href="#m8630566418" y="265.67429"/>
     <use style="stroke:#000000;" x="149.677817" xlink:href="#m8630566418" y="265.673811"/>
     <use style="stroke:#000000;" x="153.375666" xlink:href="#m8630566418" y="265.659917"/>
     <use style="stroke:#000000;" x="156.67641" xlink:href="#m8630566418" y="265.592841"/>
     <use style="stroke:#000000;" x="160.437849" xlink:href="#m8630566418" y="265.572718"/>
     <use style="stroke:#000000;" x="165.968171" xlink:href="#m8630566418" y="265.357597"/>
     <use style="stroke:#000000;" x="230.580155" xlink:href="#m8630566418" y="265.150141"/>
     <use style="stroke:#000000;" x="231.781589" xlink:href="#m8630566418" y="262.297987"/>
     <use style="stroke:#000000;" x="233.566853" xlink:href="#m8630566418" y="258.966241"/>
     <use style="stroke:#000000;" x="235.413049" xlink:href="#m8630566418" y="255.854408"/>
     <use style="stroke:#000000;" x="237.184268" xlink:href="#m8630566418" y="252.423007"/>
     <use style="stroke:#000000;" x="239.383013" xlink:href="#m8630566418" y="246.355531"/>
     <use style="stroke:#000000;" x="240.579463" xlink:href="#m8630566418" y="245.459591"/>
     <use style="stroke:#000000;" x="241.958554" xlink:href="#m8630566418" y="244.658995"/>
     <use style="stroke:#000000;" x="243.415774" xlink:href="#m8630566418" y="243.147396"/>
     <use style="stroke:#000000;" x="244.499609" xlink:href="#m8630566418" y="240.611935"/>
     <use style="stroke:#000000;" x="245.687806" xlink:href="#m8630566418" y="240.199419"/>
     <use style="stroke:#000000;" x="246.70413" xlink:href="#m8630566418" y="239.06057"/>
     <use style="stroke:#000000;" x="248.167883" xlink:href="#m8630566418" y="237.541784"/>
     <use style="stroke:#000000;" x="249.439701" xlink:href="#m8630566418" y="235.841416"/>
     <use style="stroke:#000000;" x="250.500741" xlink:href="#m8630566418" y="235.386738"/>
     <use style="stroke:#000000;" x="251.620191" xlink:href="#m8630566418" y="234.33892"/>
     <use style="stroke:#000000;" x="252.718229" xlink:href="#m8630566418" y="232.988782"/>
     <use style="stroke:#000000;" x="253.806788" xlink:href="#m8630566418" y="231.609418"/>
     <use style="stroke:#000000;" x="254.971311" xlink:href="#m8630566418" y="230.138544"/>
     <use style="stroke:#000000;" x="256.080616" xlink:href="#m8630566418" y="228.730913"/>
     <use style="stroke:#000000;" x="257.164845" xlink:href="#m8630566418" y="227.175715"/>
     <use style="stroke:#000000;" x="258.198575" xlink:href="#m8630566418" y="224.869269"/>
     <use style="stroke:#000000;" x="259.431031" xlink:href="#m8630566418" y="221.845592"/>
     <use style="stroke:#000000;" x="260.697459" xlink:href="#m8630566418" y="219.908542"/>
     <use style="stroke:#000000;" x="262.109784" xlink:href="#m8630566418" y="217.570475"/>
     <use style="stroke:#000000;" x="263.342228" xlink:href="#m8630566418" y="215.126045"/>
     <use style="stroke:#000000;" x="264.660778" xlink:href="#m8630566418" y="212.76498"/>
     <use style="stroke:#000000;" x="265.939339" xlink:href="#m8630566418" y="208.839135"/>
     <use style="stroke:#000000;" x="266.910388" xlink:href="#m8630566418" y="206.39231"/>
     <use style="stroke:#000000;" x="268.260834" xlink:href="#m8630566418" y="203.267541"/>
     <use style="stroke:#000000;" x="269.739387" xlink:href="#m8630566418" y="200.173914"/>
     <use style="stroke:#000000;" x="271.922102" xlink:href="#m8630566418" y="198.037074"/>
     <use style="stroke:#000000;" x="273.744293" xlink:href="#m8630566418" y="196.271545"/>
     <use style="stroke:#000000;" x="275.37087" xlink:href="#m8630566418" y="191.322796"/>
     <use style="stroke:#000000;" x="276.653696" xlink:href="#m8630566418" y="188.740861"/>
     <use style="stroke:#000000;" x="278.68331" xlink:href="#m8630566418" y="183.806485"/>
     <use style="stroke:#000000;" x="280.107187" xlink:href="#m8630566418" y="182.543067"/>
     <use style="stroke:#000000;" x="281.514234" xlink:href="#m8630566418" y="180.154693"/>
     <use style="stroke:#000000;" x="284.004813" xlink:href="#m8630566418" y="173.564026"/>
     <use style="stroke:#000000;" x="286.182147" xlink:href="#m8630566418" y="168.636837"/>
     <use style="stroke:#000000;" x="287.622666" xlink:href="#m8630566418" y="166.351952"/>
     <use style="stroke:#000000;" x="288.955789" xlink:href="#m8630566418" y="163.259762"/>
     <use style="stroke:#000000;" x="290.401655" xlink:href="#m8630566418" y="160.327117"/>
     <use style="stroke:#000000;" x="292.049538" xlink:href="#m8630566418" y="155.200138"/>
     <use style="stroke:#000000;" x="293.53742" xlink:href="#m8630566418" y="150.826802"/>
     <use style="stroke:#000000;" x="294.982294" xlink:href="#m8630566418" y="150.434889"/>
     <use style="stroke:#000000;" x="296.218458" xlink:href="#m8630566418" y="149.263939"/>
     <use style="stroke:#000000;" x="297.711882" xlink:href="#m8630566418" y="147.502723"/>
     <use style="stroke:#000000;" x="298.697012" xlink:href="#m8630566418" y="145.344802"/>
     <use style="stroke:#000000;" x="299.66923" xlink:href="#m8630566418" y="145.344802"/>
     <use style="stroke:#000000;" x="300.630514" xlink:href="#m8630566418" y="144.620384"/>
     <use style="stroke:#000000;" x="301.751944" xlink:href="#m8630566418" y="143.604666"/>
     <use style="stroke:#000000;" x="302.907746" xlink:href="#m8630566418" y="142.810778"/>
     <use style="stroke:#000000;" x="304.372673" xlink:href="#m8630566418" y="139.499634"/>
     <use style="stroke:#000000;" x="306.27627" xlink:href="#m8630566418" y="133.770411"/>
     <use style="stroke:#000000;" x="307.984933" xlink:href="#m8630566418" y="127.843794"/>
     <use style="stroke:#000000;" x="309.136837" xlink:href="#m8630566418" y="127.3115"/>
     <use style="stroke:#000000;" x="310.198881" xlink:href="#m8630566418" y="127.288503"/>
     <use style="stroke:#000000;" x="311.488805" xlink:href="#m8630566418" y="126.743753"/>
     <use style="stroke:#000000;" x="312.541686" xlink:href="#m8630566418" y="126.465388"/>
     <use style="stroke:#000000;" x="313.610065" xlink:href="#m8630566418" y="126.436163"/>
     <use style="stroke:#000000;" x="314.614737" xlink:href="#m8630566418" y="126.152049"/>
     <use style="stroke:#000000;" x="315.648303" xlink:href="#m8630566418" y="126.119949"/>
     <use style="stroke:#000000;" x="316.725182" xlink:href="#m8630566418" y="126.069642"/>
     <use style="stroke:#000000;" x="317.799068" xlink:href="#m8630566418" y="125.542139"/>
     <use style="stroke:#000000;" x="318.777217" xlink:href="#m8630566418" y="125.504289"/>
     <use style="stroke:#000000;" x="320.001771" xlink:href="#m8630566418" y="125.44488"/>
     <use style="stroke:#000000;" x="320.976192" xlink:href="#m8630566418" y="125.16939"/>
     <use style="stroke:#000000;" x="321.959284" xlink:href="#m8630566418" y="123.525077"/>
     <use style="stroke:#000000;" x="322.942984" xlink:href="#m8630566418" y="122.025935"/>
     <use style="stroke:#000000;" x="323.908145" xlink:href="#m8630566418" y="120.766829"/>
     <use style="stroke:#000000;" x="324.92094" xlink:href="#m8630566418" y="120.017018"/>
     <use style="stroke:#000000;" x="325.889293" xlink:href="#m8630566418" y="119.773629"/>
     <use style="stroke:#000000;" x="326.905954" xlink:href="#m8630566418" y="119.53024"/>
     <use style="stroke:#000000;" x="327.977127" xlink:href="#m8630566418" y="119.286851"/>
     <use style="stroke:#000000;" x="335.830756" xlink:href="#m8630566418" y="116.860628"/>
     <use style="stroke:#000000;" x="336.658151" xlink:href="#m8630566418" y="116.16879"/>
     <use style="stroke:#000000;" x="337.369564" xlink:href="#m8630566418" y="113.435934"/>
     <use style="stroke:#000000;" x="338.22428" xlink:href="#m8630566418" y="112.734514"/>
     <use style="stroke:#000000;" x="338.965153" xlink:href="#m8630566418" y="112.734514"/>
     <use style="stroke:#000000;" x="339.682977" xlink:href="#m8630566418" y="112.734514"/>
     <use style="stroke:#000000;" x="340.609118" xlink:href="#m8630566418" y="112.700018"/>
     <use style="stroke:#000000;" x="341.411025" xlink:href="#m8630566418" y="112.337809"/>
     <use style="stroke:#000000;" x="342.127024" xlink:href="#m8630566418" y="112.337809"/>
     <use style="stroke:#000000;" x="342.858933" xlink:href="#m8630566418" y="112.337809"/>
     <use style="stroke:#000000;" x="343.634394" xlink:href="#m8630566418" y="112.33733"/>
     <use style="stroke:#000000;" x="344.406062" xlink:href="#m8630566418" y="112.334935"/>
     <use style="stroke:#000000;" x="345.140768" xlink:href="#m8630566418" y="112.334935"/>
     <use style="stroke:#000000;" x="345.882188" xlink:href="#m8630566418" y="112.334935"/>
     <use style="stroke:#000000;" x="346.587824" xlink:href="#m8630566418" y="112.334455"/>
     <use style="stroke:#000000;" x="347.359292" xlink:href="#m8630566418" y="112.334455"/>
     <use style="stroke:#000000;" x="348.092905" xlink:href="#m8630566418" y="112.334455"/>
     <use style="stroke:#000000;" x="348.81015" xlink:href="#m8630566418" y="110.24936"/>
     <use style="stroke:#000000;" x="349.613315" xlink:href="#m8630566418" y="109.625556"/>
     <use style="stroke:#000000;" x="350.340465" xlink:href="#m8630566418" y="109.165608"/>
     <use style="stroke:#000000;" x="351.07264" xlink:href="#m8630566418" y="107.72348"/>
     <use style="stroke:#000000;" x="351.726795" xlink:href="#m8630566418" y="114.058301"/>
     <use style="stroke:#000000;" x="352.359243" xlink:href="#m8630566418" y="105.001165"/>
     <use style="stroke:#000000;" x="352.96758" xlink:href="#m8630566418" y="111.336944"/>
     <use style="stroke:#000000;" x="353.57706" xlink:href="#m8630566418" y="102.255374"/>
     <use style="stroke:#000000;" x="354.203341" xlink:href="#m8630566418" y="100.894216"/>
     <use style="stroke:#000000;" x="354.816623" xlink:href="#m8630566418" y="107.63724"/>
     <use style="stroke:#000000;" x="355.56565" xlink:href="#m8630566418" y="107.614722"/>
     <use style="stroke:#000000;" x="356.214843" xlink:href="#m8630566418" y="105.740914"/>
     <use style="stroke:#000000;" x="356.827816" xlink:href="#m8630566418" y="96.813139"/>
     <use style="stroke:#000000;" x="357.441482" xlink:href="#m8630566418" y="95.478812"/>
     <use style="stroke:#000000;" x="358.122571" xlink:href="#m8630566418" y="94.184251"/>
     <use style="stroke:#000000;" x="358.866783" xlink:href="#m8630566418" y="100.390669"/>
     <use style="stroke:#000000;" x="359.482622" xlink:href="#m8630566418" y="99.095629"/>
     <use style="stroke:#000000;" x="360.100065" xlink:href="#m8630566418" y="89.891885"/>
     <use style="stroke:#000000;" x="360.725607" xlink:href="#m8630566418" y="96.598497"/>
     <use style="stroke:#000000;" x="361.336239" xlink:href="#m8630566418" y="94.141131"/>
     <use style="stroke:#000000;" x="361.967658" xlink:href="#m8630566418" y="92.129339"/>
     <use style="stroke:#000000;" x="362.669862" xlink:href="#m8630566418" y="89.006965"/>
     <use style="stroke:#000000;" x="363.388583" xlink:href="#m8630566418" y="86.81359"/>
     <use style="stroke:#000000;" x="364.035389" xlink:href="#m8630566418" y="84.151643"/>
     <use style="stroke:#000000;" x="364.705195" xlink:href="#m8630566418" y="81.942457"/>
     <use style="stroke:#000000;" x="365.417097" xlink:href="#m8630566418" y="79.905752"/>
     <use style="stroke:#000000;" x="366.3397" xlink:href="#m8630566418" y="75.07726"/>
     <use style="stroke:#000000;" x="367.014021" xlink:href="#m8630566418" y="73.038638"/>
     <use style="stroke:#000000;" x="367.58517" xlink:href="#m8630566418" y="71.409656"/>
     <use style="stroke:#000000;" x="368.151376" xlink:href="#m8630566418" y="69.518601"/>
     <use style="stroke:#000000;" x="368.78404" xlink:href="#m8630566418" y="65.4289"/>
     <use style="stroke:#000000;" x="369.471209" xlink:href="#m8630566418" y="61.789085"/>
     <use style="stroke:#000000;" x="370.317731" xlink:href="#m8630566418" y="57.87953"/>
     <use style="stroke:#000000;" x="371.169345" xlink:href="#m8630566418" y="55.515112"/>
     <use style="stroke:#000000;" x="372.07207" xlink:href="#m8630566418" y="53.568"/>
     <use style="stroke:#000000;" x="372.808312" xlink:href="#m8630566418" y="59.394962"/>
     <use style="stroke:#000000;" x="373.54979" xlink:href="#m8630566418" y="59.391129"/>
     <use style="stroke:#000000;" x="374.145501" xlink:href="#m8630566418" y="59.391129"/>
     <use style="stroke:#000000;" x="374.809559" xlink:href="#m8630566418" y="59.389212"/>
     <use style="stroke:#000000;" x="375.320107" xlink:href="#m8630566418" y="59.389212"/>
     <use style="stroke:#000000;" x="375.877607" xlink:href="#m8630566418" y="59.386817"/>
     <use style="stroke:#000000;" x="376.534295" xlink:href="#m8630566418" y="59.383942"/>
     <use style="stroke:#000000;" x="377.029078" xlink:href="#m8630566418" y="59.383942"/>
     <use style="stroke:#000000;" x="377.531959" xlink:href="#m8630566418" y="59.383942"/>
     <use style="stroke:#000000;" x="378.193298" xlink:href="#m8630566418" y="59.381546"/>
     <use style="stroke:#000000;" x="378.899873" xlink:href="#m8630566418" y="59.377714"/>
     <use style="stroke:#000000;" x="379.662522" xlink:href="#m8630566418" y="59.372443"/>
     <use style="stroke:#000000;" x="380.329908" xlink:href="#m8630566418" y="59.36909"/>
     <use style="stroke:#000000;" x="381.00571" xlink:href="#m8630566418" y="59.173133"/>
     <use style="stroke:#000000;" x="381.53664" xlink:href="#m8630566418" y="59.173133"/>
     <use style="stroke:#000000;" x="382.060001" xlink:href="#m8630566418" y="59.173133"/>
     <use style="stroke:#000000;" x="382.590069" xlink:href="#m8630566418" y="59.173133"/>
     <use style="stroke:#000000;" x="383.118249" xlink:href="#m8630566418" y="59.172654"/>
     <use style="stroke:#000000;" x="383.674701" xlink:href="#m8630566418" y="59.172654"/>
     <use style="stroke:#000000;" x="384.219625" xlink:href="#m8630566418" y="59.172654"/>
     <use style="stroke:#000000;" x="384.733318" xlink:href="#m8630566418" y="59.172654"/>
     <use style="stroke:#000000;" x="385.197973" xlink:href="#m8630566418" y="59.172654"/>
     <use style="stroke:#000000;" x="385.70783" xlink:href="#m8630566418" y="59.170737"/>
     <use style="stroke:#000000;" x="386.3436" xlink:href="#m8630566418" y="59.167383"/>
     <use style="stroke:#000000;" x="386.927949" xlink:href="#m8630566418" y="59.16403"/>
     <use style="stroke:#000000;" x="387.554885" xlink:href="#m8630566418" y="55.113616"/>
     <use style="stroke:#000000;" x="388.063007" xlink:href="#m8630566418" y="55.113616"/>
     <use style="stroke:#000000;" x="388.732656" xlink:href="#m8630566418" y="55.108825"/>
     <use style="stroke:#000000;" x="389.213787" xlink:href="#m8630566418" y="55.108825"/>
     <use style="stroke:#000000;" x="389.676362" xlink:href="#m8630566418" y="55.108825"/>
     <use style="stroke:#000000;" x="390.290132" xlink:href="#m8630566418" y="55.099242"/>
     <use style="stroke:#000000;" x="391.027152" xlink:href="#m8630566418" y="55.09493"/>
     <use style="stroke:#000000;" x="391.715313" xlink:href="#m8630566418" y="55.091097"/>
     <use style="stroke:#000000;" x="392.287451" xlink:href="#m8630566418" y="55.091097"/>
     <use style="stroke:#000000;" x="392.770313" xlink:href="#m8630566418" y="55.091097"/>
     <use style="stroke:#000000;" x="393.316378" xlink:href="#m8630566418" y="55.018272"/>
     <use style="stroke:#000000;" x="393.816572" xlink:href="#m8630566418" y="55.018272"/>
     <use style="stroke:#000000;" x="394.300075" xlink:href="#m8630566418" y="55.018272"/>
     <use style="stroke:#000000;" x="394.777593" xlink:href="#m8630566418" y="55.018272"/>
     <use style="stroke:#000000;" x="395.266179" xlink:href="#m8630566418" y="55.018272"/>
     <use style="stroke:#000000;" x="395.743684" xlink:href="#m8630566418" y="55.018272"/>
     <use style="stroke:#000000;" x="396.245932" xlink:href="#m8630566418" y="55.018272"/>
     <use style="stroke:#000000;" x="396.710371" xlink:href="#m8630566418" y="55.018272"/>
     <use style="stroke:#000000;" x="397.164548" xlink:href="#m8630566418" y="55.018272"/>
     <use style="stroke:#000000;" x="397.594238" xlink:href="#m8630566418" y="55.018272"/>
     <use style="stroke:#000000;" x="398.028789" xlink:href="#m8630566418" y="55.018272"/>
     <use style="stroke:#000000;" x="398.487273" xlink:href="#m8630566418" y="55.018272"/>
    </g>
   </g>
   <g id="patch_3">
    <path d="M 57.6 307.584 
L 57.6 41.472 
" style="fill:none;stroke:#000000;stroke-linecap:square;stroke-linejoin:miter;stroke-width:0.8;"/>
   </g>
   <g id="patch_4">
    <path d="M 414.72 307.584 
L 414.72 41.472 
" style="fill:none;stroke:#000000;stroke-linecap:square;stroke-linejoin:miter;stroke-width:0.8;"/>
   </g>
   <g id="patch_5">
    <path d="M 57.6 307.584 
L 414.72 307.584 
" style="fill:none;stroke:#000000;stroke-linecap:square;stroke-linejoin:miter;stroke-width:0.8;"/>
   </g>
   <g id="patch_6">
    <path d="M 57.6 41.472 
L 414.72 41.472 
" style="fill:none;stroke:#000000;stroke-linecap:square;stroke-linejoin:miter;stroke-width:0.8;"/>
   </g>
   <g id="legend_1">
    <g id="patch_7">
     <path d="M 64.6 64.150125 
L 118.617188 64.150125 
Q 120.617188 64.150125 120.617188 62.150125 
L 120.617188 48.472 
Q 120.617188 46.472 118.617188 46.472 
L 64.6 46.472 
Q 62.6 46.472 62.6 48.472 
L 62.6 62.150125 
Q 62.6 64.150125 64.6 64.150125 
z
" style="fill:#ffffff;opacity:0.8;stroke:#cccccc;stroke-linejoin:miter;"/>
    </g>
    <g id="line2d_23">
     <path d="M 66.6 54.570438 
L 86.6 54.570438 
" style="fill:none;stroke:#000000;stroke-linecap:square;stroke-width:1.5;"/>
    </g>
    <g id="line2d_24">
     <g>
      <use style="stroke:#000000;" x="76.6" xlink:href="#m8630566418" y="54.570438"/>
     </g>
    </g>
    <g id="text_9">
     <!-- RAM -->
     <g transform="translate(94.6 58.070438)scale(0.1 -0.1)">
      <defs>
       <path d="M 44.390625 34.1875 
Q 47.5625 33.109375 50.5625 29.59375 
Q 53.5625 26.078125 56.59375 19.921875 
L 66.609375 0 
L 56 0 
L 46.6875 18.703125 
Q 43.0625 26.03125 39.671875 28.421875 
Q 36.28125 30.8125 30.421875 30.8125 
L 19.671875 30.8125 
L 19.671875 0 
L 9.8125 0 
L 9.8125 72.90625 
L 32.078125 72.90625 
Q 44.578125 72.90625 50.734375 67.671875 
Q 56.890625 62.453125 56.890625 51.90625 
Q 56.890625 45.015625 53.6875 40.46875 
Q 50.484375 35.9375 44.390625 34.1875 
z
M 19.671875 64.796875 
L 19.671875 38.921875 
L 32.078125 38.921875 
Q 39.203125 38.921875 42.84375 42.21875 
Q 46.484375 45.515625 46.484375 51.90625 
Q 46.484375 58.296875 42.84375 61.546875 
Q 39.203125 64.796875 32.078125 64.796875 
z
" id="DejaVuSans-82"/>
       <path d="M 34.1875 63.1875 
L 20.796875 26.90625 
L 47.609375 26.90625 
z
M 28.609375 72.90625 
L 39.796875 72.90625 
L 67.578125 0 
L 57.328125 0 
L 50.6875 18.703125 
L 17.828125 18.703125 
L 11.1875 0 
L 0.78125 0 
z
" id="DejaVuSans-65"/>
      </defs>
      <use xlink:href="#DejaVuSans-82"/>
      <use x="65.482422" xlink:href="#DejaVuSans-65"/>
      <use x="133.890625" xlink:href="#DejaVuSans-77"/>
     </g>
    </g>
   </g>
  </g>
 </g>
 <defs>
  <clipPath id="pcf9b3b6c8f">
   <rect height="266.112" width="357.12" x="57.6" y="41.472"/>
  </clipPath>
 </defs>
</svg>
