<?xml version="1.0" encoding="utf-8" standalone="no"?>
<!DOCTYPE svg PUBLIC "-//W3C//DTD SVG 1.1//EN"
  "http://www.w3.org/Graphics/SVG/1.1/DTD/svg11.dtd">
<!-- Created with matplotlib (https://matplotlib.org/) -->
<svg height="345.6pt" version="1.1" viewBox="0 0 460.8 345.6" width="460.8pt" xmlns="http://www.w3.org/2000/svg" xmlns:xlink="http://www.w3.org/1999/xlink">
 <metadata>
  <rdf:RDF xmlns:cc="http://creativecommons.org/ns#" xmlns:dc="http://purl.org/dc/elements/1.1/" xmlns:rdf="http://www.w3.org/1999/02/22-rdf-syntax-ns#">
   <cc:Work>
    <dc:type rdf:resource="http://purl.org/dc/dcmitype/StillImage"/>
    <dc:date>2023-02-03T11:33:32.744079</dc:date>
    <dc:format>image/svg+xml</dc:format>
    <dc:creator>
     <cc:Agent>
      <dc:title>Matplotlib v3.3.2, https://matplotlib.org/</dc:title>
     </cc:Agent>
    </dc:creator>
   </cc:Work>
  </rdf:RDF>
 </metadata>
 <defs>
  <style type="text/css">*{stroke-linecap:butt;stroke-linejoin:round;}</style>
 </defs>
 <g id="figure_1">
  <g id="patch_1">
   <path d="M 0 345.6 
L 460.8 345.6 
L 460.8 0 
L 0 0 
z
" style="fill:#ffffff;"/>
  </g>
  <g id="axes_1">
   <g id="patch_2">
    <path d="M 57.6 307.584 
L 414.72 307.584 
L 414.72 41.472 
L 57.6 41.472 
z
" style="fill:#ffffff;"/>
   </g>
   <g id="matplotlib.axis_1">
    <g id="xtick_1">
     <g id="line2d_1">
      <defs>
       <path d="M 0 0 
L 0 3.5 
" id="mff3e2e89ab" style="stroke:#000000;stroke-width:0.8;"/>
      </defs>
      <g>
       <use style="stroke:#000000;stroke-width:0.8;" x="65.416529" xlink:href="#mff3e2e89ab" y="307.584"/>
      </g>
     </g>
     <g id="text_1">
      <!-- $\mathdefault{10^{2}}$ -->
      <g transform="translate(56.616529 322.182437)scale(0.1 -0.1)">
       <defs>
        <path d="M 12.40625 8.296875 
L 28.515625 8.296875 
L 28.515625 63.921875 
L 10.984375 60.40625 
L 10.984375 69.390625 
L 28.421875 72.90625 
L 38.28125 72.90625 
L 38.28125 8.296875 
L 54.390625 8.296875 
L 54.390625 0 
L 12.40625 0 
z
" id="DejaVuSans-49"/>
        <path d="M 31.78125 66.40625 
Q 24.171875 66.40625 20.328125 58.90625 
Q 16.5 51.421875 16.5 36.375 
Q 16.5 21.390625 20.328125 13.890625 
Q 24.171875 6.390625 31.78125 6.390625 
Q 39.453125 6.390625 43.28125 13.890625 
Q 47.125 21.390625 47.125 36.375 
Q 47.125 51.421875 43.28125 58.90625 
Q 39.453125 66.40625 31.78125 66.40625 
z
M 31.78125 74.21875 
Q 44.046875 74.21875 50.515625 64.515625 
Q 56.984375 54.828125 56.984375 36.375 
Q 56.984375 17.96875 50.515625 8.265625 
Q 44.046875 -1.421875 31.78125 -1.421875 
Q 19.53125 -1.421875 13.0625 8.265625 
Q 6.59375 17.96875 6.59375 36.375 
Q 6.59375 54.828125 13.0625 64.515625 
Q 19.53125 74.21875 31.78125 74.21875 
z
" id="DejaVuSans-48"/>
        <path d="M 19.1875 8.296875 
L 53.609375 8.296875 
L 53.609375 0 
L 7.328125 0 
L 7.328125 8.296875 
Q 12.9375 14.109375 22.625 23.890625 
Q 32.328125 33.6875 34.8125 36.53125 
Q 39.546875 41.84375 41.421875 45.53125 
Q 43.3125 49.21875 43.3125 52.78125 
Q 43.3125 58.59375 39.234375 62.25 
Q 35.15625 65.921875 28.609375 65.921875 
Q 23.96875 65.921875 18.8125 64.3125 
Q 13.671875 62.703125 7.8125 59.421875 
L 7.8125 69.390625 
Q 13.765625 71.78125 18.9375 73 
Q 24.125 74.21875 28.421875 74.21875 
Q 39.75 74.21875 46.484375 68.546875 
Q 53.21875 62.890625 53.21875 53.421875 
Q 53.21875 48.921875 51.53125 44.890625 
Q 49.859375 40.875 45.40625 35.40625 
Q 44.1875 33.984375 37.640625 27.21875 
Q 31.109375 20.453125 19.1875 8.296875 
z
" id="DejaVuSans-50"/>
       </defs>
       <use transform="translate(0 0.765625)" xlink:href="#DejaVuSans-49"/>
       <use transform="translate(63.623047 0.765625)" xlink:href="#DejaVuSans-48"/>
       <use transform="translate(128.203125 39.046875)scale(0.7)" xlink:href="#DejaVuSans-50"/>
      </g>
     </g>
    </g>
    <g id="xtick_2">
     <g id="line2d_2">
      <g>
       <use style="stroke:#000000;stroke-width:0.8;" x="312.827687" xlink:href="#mff3e2e89ab" y="307.584"/>
      </g>
     </g>
     <g id="text_2">
      <!-- $\mathdefault{10^{3}}$ -->
      <g transform="translate(304.027687 322.182437)scale(0.1 -0.1)">
       <defs>
        <path d="M 40.578125 39.3125 
Q 47.65625 37.796875 51.625 33 
Q 55.609375 28.21875 55.609375 21.1875 
Q 55.609375 10.40625 48.1875 4.484375 
Q 40.765625 -1.421875 27.09375 -1.421875 
Q 22.515625 -1.421875 17.65625 -0.515625 
Q 12.796875 0.390625 7.625 2.203125 
L 7.625 11.71875 
Q 11.71875 9.328125 16.59375 8.109375 
Q 21.484375 6.890625 26.8125 6.890625 
Q 36.078125 6.890625 40.9375 10.546875 
Q 45.796875 14.203125 45.796875 21.1875 
Q 45.796875 27.640625 41.28125 31.265625 
Q 36.765625 34.90625 28.71875 34.90625 
L 20.21875 34.90625 
L 20.21875 43.015625 
L 29.109375 43.015625 
Q 36.375 43.015625 40.234375 45.921875 
Q 44.09375 48.828125 44.09375 54.296875 
Q 44.09375 59.90625 40.109375 62.90625 
Q 36.140625 65.921875 28.71875 65.921875 
Q 24.65625 65.921875 20.015625 65.03125 
Q 15.375 64.15625 9.8125 62.3125 
L 9.8125 71.09375 
Q 15.4375 72.65625 20.34375 73.4375 
Q 25.25 74.21875 29.59375 74.21875 
Q 40.828125 74.21875 47.359375 69.109375 
Q 53.90625 64.015625 53.90625 55.328125 
Q 53.90625 49.265625 50.4375 45.09375 
Q 46.96875 40.921875 40.578125 39.3125 
z
" id="DejaVuSans-51"/>
       </defs>
       <use transform="translate(0 0.765625)" xlink:href="#DejaVuSans-49"/>
       <use transform="translate(63.623047 0.765625)" xlink:href="#DejaVuSans-48"/>
       <use transform="translate(128.203125 39.046875)scale(0.7)" xlink:href="#DejaVuSans-51"/>
      </g>
     </g>
    </g>
    <g id="xtick_3">
     <g id="line2d_3">
      <defs>
       <path d="M 0 0 
L 0 2 
" id="m8f4a08ee38" style="stroke:#000000;stroke-width:0.6;"/>
      </defs>
      <g>
       <use style="stroke:#000000;stroke-width:0.6;" x="139.894709" xlink:href="#m8f4a08ee38" y="307.584"/>
      </g>
     </g>
    </g>
    <g id="xtick_4">
     <g id="line2d_4">
      <g>
       <use style="stroke:#000000;stroke-width:0.6;" x="183.461652" xlink:href="#m8f4a08ee38" y="307.584"/>
      </g>
     </g>
    </g>
    <g id="xtick_5">
     <g id="line2d_5">
      <g>
       <use style="stroke:#000000;stroke-width:0.6;" x="214.372889" xlink:href="#m8f4a08ee38" y="307.584"/>
      </g>
     </g>
    </g>
    <g id="xtick_6">
     <g id="line2d_6">
      <g>
       <use style="stroke:#000000;stroke-width:0.6;" x="238.349508" xlink:href="#m8f4a08ee38" y="307.584"/>
      </g>
     </g>
    </g>
    <g id="xtick_7">
     <g id="line2d_7">
      <g>
       <use style="stroke:#000000;stroke-width:0.6;" x="257.939831" xlink:href="#m8f4a08ee38" y="307.584"/>
      </g>
     </g>
    </g>
    <g id="xtick_8">
     <g id="line2d_8">
      <g>
       <use style="stroke:#000000;stroke-width:0.6;" x="274.503214" xlink:href="#m8f4a08ee38" y="307.584"/>
      </g>
     </g>
    </g>
    <g id="xtick_9">
     <g id="line2d_9">
      <g>
       <use style="stroke:#000000;stroke-width:0.6;" x="288.851069" xlink:href="#m8f4a08ee38" y="307.584"/>
      </g>
     </g>
    </g>
    <g id="xtick_10">
     <g id="line2d_10">
      <g>
       <use style="stroke:#000000;stroke-width:0.6;" x="301.506774" xlink:href="#m8f4a08ee38" y="307.584"/>
      </g>
     </g>
    </g>
    <g id="xtick_11">
     <g id="line2d_11">
      <g>
       <use style="stroke:#000000;stroke-width:0.6;" x="387.305867" xlink:href="#m8f4a08ee38" y="307.584"/>
      </g>
     </g>
    </g>
    <g id="text_3">
     <!-- Execution time (s) -->
     <g transform="translate(190.645156 335.860562)scale(0.1 -0.1)">
      <defs>
       <path d="M 9.8125 72.90625 
L 55.90625 72.90625 
L 55.90625 64.59375 
L 19.671875 64.59375 
L 19.671875 43.015625 
L 54.390625 43.015625 
L 54.390625 34.71875 
L 19.671875 34.71875 
L 19.671875 8.296875 
L 56.78125 8.296875 
L 56.78125 0 
L 9.8125 0 
z
" id="DejaVuSans-69"/>
       <path d="M 54.890625 54.6875 
L 35.109375 28.078125 
L 55.90625 0 
L 45.3125 0 
L 29.390625 21.484375 
L 13.484375 0 
L 2.875 0 
L 24.125 28.609375 
L 4.6875 54.6875 
L 15.28125 54.6875 
L 29.78125 35.203125 
L 44.28125 54.6875 
z
" id="DejaVuSans-120"/>
       <path d="M 56.203125 29.59375 
L 56.203125 25.203125 
L 14.890625 25.203125 
Q 15.484375 15.921875 20.484375 11.0625 
Q 25.484375 6.203125 34.421875 6.203125 
Q 39.59375 6.203125 44.453125 7.46875 
Q 49.3125 8.734375 54.109375 11.28125 
L 54.109375 2.78125 
Q 49.265625 0.734375 44.1875 -0.34375 
Q 39.109375 -1.421875 33.890625 -1.421875 
Q 20.796875 -1.421875 13.15625 6.1875 
Q 5.515625 13.8125 5.515625 26.8125 
Q 5.515625 40.234375 12.765625 48.109375 
Q 20.015625 56 32.328125 56 
Q 43.359375 56 49.78125 48.890625 
Q 56.203125 41.796875 56.203125 29.59375 
z
M 47.21875 32.234375 
Q 47.125 39.59375 43.09375 43.984375 
Q 39.0625 48.390625 32.421875 48.390625 
Q 24.90625 48.390625 20.390625 44.140625 
Q 15.875 39.890625 15.1875 32.171875 
z
" id="DejaVuSans-101"/>
       <path d="M 48.78125 52.59375 
L 48.78125 44.1875 
Q 44.96875 46.296875 41.140625 47.34375 
Q 37.3125 48.390625 33.40625 48.390625 
Q 24.65625 48.390625 19.8125 42.84375 
Q 14.984375 37.3125 14.984375 27.296875 
Q 14.984375 17.28125 19.8125 11.734375 
Q 24.65625 6.203125 33.40625 6.203125 
Q 37.3125 6.203125 41.140625 7.25 
Q 44.96875 8.296875 48.78125 10.40625 
L 48.78125 2.09375 
Q 45.015625 0.34375 40.984375 -0.53125 
Q 36.96875 -1.421875 32.421875 -1.421875 
Q 20.0625 -1.421875 12.78125 6.34375 
Q 5.515625 14.109375 5.515625 27.296875 
Q 5.515625 40.671875 12.859375 48.328125 
Q 20.21875 56 33.015625 56 
Q 37.15625 56 41.109375 55.140625 
Q 45.0625 54.296875 48.78125 52.59375 
z
" id="DejaVuSans-99"/>
       <path d="M 8.5 21.578125 
L 8.5 54.6875 
L 17.484375 54.6875 
L 17.484375 21.921875 
Q 17.484375 14.15625 20.5 10.265625 
Q 23.53125 6.390625 29.59375 6.390625 
Q 36.859375 6.390625 41.078125 11.03125 
Q 45.3125 15.671875 45.3125 23.6875 
L 45.3125 54.6875 
L 54.296875 54.6875 
L 54.296875 0 
L 45.3125 0 
L 45.3125 8.40625 
Q 42.046875 3.421875 37.71875 1 
Q 33.40625 -1.421875 27.6875 -1.421875 
Q 18.265625 -1.421875 13.375 4.4375 
Q 8.5 10.296875 8.5 21.578125 
z
M 31.109375 56 
z
" id="DejaVuSans-117"/>
       <path d="M 18.3125 70.21875 
L 18.3125 54.6875 
L 36.8125 54.6875 
L 36.8125 47.703125 
L 18.3125 47.703125 
L 18.3125 18.015625 
Q 18.3125 11.328125 20.140625 9.421875 
Q 21.96875 7.515625 27.59375 7.515625 
L 36.8125 7.515625 
L 36.8125 0 
L 27.59375 0 
Q 17.1875 0 13.234375 3.875 
Q 9.28125 7.765625 9.28125 18.015625 
L 9.28125 47.703125 
L 2.6875 47.703125 
L 2.6875 54.6875 
L 9.28125 54.6875 
L 9.28125 70.21875 
z
" id="DejaVuSans-116"/>
       <path d="M 9.421875 54.6875 
L 18.40625 54.6875 
L 18.40625 0 
L 9.421875 0 
z
M 9.421875 75.984375 
L 18.40625 75.984375 
L 18.40625 64.59375 
L 9.421875 64.59375 
z
" id="DejaVuSans-105"/>
       <path d="M 30.609375 48.390625 
Q 23.390625 48.390625 19.1875 42.75 
Q 14.984375 37.109375 14.984375 27.296875 
Q 14.984375 17.484375 19.15625 11.84375 
Q 23.34375 6.203125 30.609375 6.203125 
Q 37.796875 6.203125 41.984375 11.859375 
Q 46.1875 17.53125 46.1875 27.296875 
Q 46.1875 37.015625 41.984375 42.703125 
Q 37.796875 48.390625 30.609375 48.390625 
z
M 30.609375 56 
Q 42.328125 56 49.015625 48.375 
Q 55.71875 40.765625 55.71875 27.296875 
Q 55.71875 13.875 49.015625 6.21875 
Q 42.328125 -1.421875 30.609375 -1.421875 
Q 18.84375 -1.421875 12.171875 6.21875 
Q 5.515625 13.875 5.515625 27.296875 
Q 5.515625 40.765625 12.171875 48.375 
Q 18.84375 56 30.609375 56 
z
" id="DejaVuSans-111"/>
       <path d="M 54.890625 33.015625 
L 54.890625 0 
L 45.90625 0 
L 45.90625 32.71875 
Q 45.90625 40.484375 42.875 44.328125 
Q 39.84375 48.1875 33.796875 48.1875 
Q 26.515625 48.1875 22.3125 43.546875 
Q 18.109375 38.921875 18.109375 30.90625 
L 18.109375 0 
L 9.078125 0 
L 9.078125 54.6875 
L 18.109375 54.6875 
L 18.109375 46.1875 
Q 21.34375 51.125 25.703125 53.5625 
Q 30.078125 56 35.796875 56 
Q 45.21875 56 50.046875 50.171875 
Q 54.890625 44.34375 54.890625 33.015625 
z
" id="DejaVuSans-110"/>
       <path id="DejaVuSans-32"/>
       <path d="M 52 44.1875 
Q 55.375 50.25 60.0625 53.125 
Q 64.75 56 71.09375 56 
Q 79.640625 56 84.28125 50.015625 
Q 88.921875 44.046875 88.921875 33.015625 
L 88.921875 0 
L 79.890625 0 
L 79.890625 32.71875 
Q 79.890625 40.578125 77.09375 44.375 
Q 74.3125 48.1875 68.609375 48.1875 
Q 61.625 48.1875 57.5625 43.546875 
Q 53.515625 38.921875 53.515625 30.90625 
L 53.515625 0 
L 44.484375 0 
L 44.484375 32.71875 
Q 44.484375 40.625 41.703125 44.40625 
Q 38.921875 48.1875 33.109375 48.1875 
Q 26.21875 48.1875 22.15625 43.53125 
Q 18.109375 38.875 18.109375 30.90625 
L 18.109375 0 
L 9.078125 0 
L 9.078125 54.6875 
L 18.109375 54.6875 
L 18.109375 46.1875 
Q 21.1875 51.21875 25.484375 53.609375 
Q 29.78125 56 35.6875 56 
Q 41.65625 56 45.828125 52.96875 
Q 50 49.953125 52 44.1875 
z
" id="DejaVuSans-109"/>
       <path d="M 31 75.875 
Q 24.46875 64.65625 21.28125 53.65625 
Q 18.109375 42.671875 18.109375 31.390625 
Q 18.109375 20.125 21.3125 9.0625 
Q 24.515625 -2 31 -13.1875 
L 23.1875 -13.1875 
Q 15.875 -1.703125 12.234375 9.375 
Q 8.59375 20.453125 8.59375 31.390625 
Q 8.59375 42.28125 12.203125 53.3125 
Q 15.828125 64.359375 23.1875 75.875 
z
" id="DejaVuSans-40"/>
       <path d="M 44.28125 53.078125 
L 44.28125 44.578125 
Q 40.484375 46.53125 36.375 47.5 
Q 32.28125 48.484375 27.875 48.484375 
Q 21.1875 48.484375 17.84375 46.4375 
Q 14.5 44.390625 14.5 40.28125 
Q 14.5 37.15625 16.890625 35.375 
Q 19.28125 33.59375 26.515625 31.984375 
L 29.59375 31.296875 
Q 39.15625 29.25 43.1875 25.515625 
Q 47.21875 21.78125 47.21875 15.09375 
Q 47.21875 7.46875 41.1875 3.015625 
Q 35.15625 -1.421875 24.609375 -1.421875 
Q 20.21875 -1.421875 15.453125 -0.5625 
Q 10.6875 0.296875 5.421875 2 
L 5.421875 11.28125 
Q 10.40625 8.6875 15.234375 7.390625 
Q 20.0625 6.109375 24.8125 6.109375 
Q 31.15625 6.109375 34.5625 8.28125 
Q 37.984375 10.453125 37.984375 14.40625 
Q 37.984375 18.0625 35.515625 20.015625 
Q 33.0625 21.96875 24.703125 23.78125 
L 21.578125 24.515625 
Q 13.234375 26.265625 9.515625 29.90625 
Q 5.8125 33.546875 5.8125 39.890625 
Q 5.8125 47.609375 11.28125 51.796875 
Q 16.75 56 26.8125 56 
Q 31.78125 56 36.171875 55.265625 
Q 40.578125 54.546875 44.28125 53.078125 
z
" id="DejaVuSans-115"/>
       <path d="M 8.015625 75.875 
L 15.828125 75.875 
Q 23.140625 64.359375 26.78125 53.3125 
Q 30.421875 42.28125 30.421875 31.390625 
Q 30.421875 20.453125 26.78125 9.375 
Q 23.140625 -1.703125 15.828125 -13.1875 
L 8.015625 -13.1875 
Q 14.5 -2 17.703125 9.0625 
Q 20.90625 20.125 20.90625 31.390625 
Q 20.90625 42.671875 17.703125 53.65625 
Q 14.5 64.65625 8.015625 75.875 
z
" id="DejaVuSans-41"/>
      </defs>
      <use xlink:href="#DejaVuSans-69"/>
      <use x="63.183594" xlink:href="#DejaVuSans-120"/>
      <use x="119.238281" xlink:href="#DejaVuSans-101"/>
      <use x="180.761719" xlink:href="#DejaVuSans-99"/>
      <use x="235.742188" xlink:href="#DejaVuSans-117"/>
      <use x="299.121094" xlink:href="#DejaVuSans-116"/>
      <use x="338.330078" xlink:href="#DejaVuSans-105"/>
      <use x="366.113281" xlink:href="#DejaVuSans-111"/>
      <use x="427.294922" xlink:href="#DejaVuSans-110"/>
      <use x="490.673828" xlink:href="#DejaVuSans-32"/>
      <use x="522.460938" xlink:href="#DejaVuSans-116"/>
      <use x="561.669922" xlink:href="#DejaVuSans-105"/>
      <use x="589.453125" xlink:href="#DejaVuSans-109"/>
      <use x="686.865234" xlink:href="#DejaVuSans-101"/>
      <use x="748.388672" xlink:href="#DejaVuSans-32"/>
      <use x="780.175781" xlink:href="#DejaVuSans-40"/>
      <use x="819.189453" xlink:href="#DejaVuSans-115"/>
      <use x="871.289062" xlink:href="#DejaVuSans-41"/>
     </g>
    </g>
   </g>
   <g id="matplotlib.axis_2">
    <g id="ytick_1">
     <g id="line2d_12">
      <defs>
       <path d="M 0 0 
L -2 0 
" id="m7c9a41918e" style="stroke:#000000;stroke-width:0.6;"/>
      </defs>
      <g>
       <use style="stroke:#000000;stroke-width:0.6;" x="57.6" xlink:href="#m7c9a41918e" y="229.920387"/>
      </g>
     </g>
     <g id="text_4">
      <!-- $\mathdefault{2\times10^{2}}$ -->
      <g transform="translate(16 233.719606)scale(0.1 -0.1)">
       <defs>
        <path d="M 70.125 53.71875 
L 47.796875 31.296875 
L 70.125 8.984375 
L 64.3125 3.078125 
L 41.890625 25.484375 
L 19.484375 3.078125 
L 13.71875 8.984375 
L 35.984375 31.296875 
L 13.71875 53.71875 
L 19.484375 59.625 
L 41.890625 37.203125 
L 64.3125 59.625 
z
" id="DejaVuSans-215"/>
       </defs>
       <use transform="translate(0 0.765625)" xlink:href="#DejaVuSans-50"/>
       <use transform="translate(83.105469 0.765625)" xlink:href="#DejaVuSans-215"/>
       <use transform="translate(186.376953 0.765625)" xlink:href="#DejaVuSans-49"/>
       <use transform="translate(250 0.765625)" xlink:href="#DejaVuSans-48"/>
       <use transform="translate(314.580078 39.046875)scale(0.7)" xlink:href="#DejaVuSans-50"/>
      </g>
     </g>
    </g>
    <g id="ytick_2">
     <g id="line2d_13">
      <g>
       <use style="stroke:#000000;stroke-width:0.6;" x="57.6" xlink:href="#m7c9a41918e" y="181.879027"/>
      </g>
     </g>
     <g id="text_5">
      <!-- $\mathdefault{3\times10^{2}}$ -->
      <g transform="translate(16 185.678246)scale(0.1 -0.1)">
       <use transform="translate(0 0.765625)" xlink:href="#DejaVuSans-51"/>
       <use transform="translate(83.105469 0.765625)" xlink:href="#DejaVuSans-215"/>
       <use transform="translate(186.376953 0.765625)" xlink:href="#DejaVuSans-49"/>
       <use transform="translate(250 0.765625)" xlink:href="#DejaVuSans-48"/>
       <use transform="translate(314.580078 39.046875)scale(0.7)" xlink:href="#DejaVuSans-50"/>
      </g>
     </g>
    </g>
    <g id="ytick_3">
     <g id="line2d_14">
      <g>
       <use style="stroke:#000000;stroke-width:0.6;" x="57.6" xlink:href="#m7c9a41918e" y="147.79314"/>
      </g>
     </g>
     <g id="text_6">
      <!-- $\mathdefault{4\times10^{2}}$ -->
      <g transform="translate(16 151.592359)scale(0.1 -0.1)">
       <defs>
        <path d="M 37.796875 64.3125 
L 12.890625 25.390625 
L 37.796875 25.390625 
z
M 35.203125 72.90625 
L 47.609375 72.90625 
L 47.609375 25.390625 
L 58.015625 25.390625 
L 58.015625 17.1875 
L 47.609375 17.1875 
L 47.609375 0 
L 37.796875 0 
L 37.796875 17.1875 
L 4.890625 17.1875 
L 4.890625 26.703125 
z
" id="DejaVuSans-52"/>
       </defs>
       <use transform="translate(0 0.765625)" xlink:href="#DejaVuSans-52"/>
       <use transform="translate(83.105469 0.765625)" xlink:href="#DejaVuSans-215"/>
       <use transform="translate(186.376953 0.765625)" xlink:href="#DejaVuSans-49"/>
       <use transform="translate(250 0.765625)" xlink:href="#DejaVuSans-48"/>
       <use transform="translate(314.580078 39.046875)scale(0.7)" xlink:href="#DejaVuSans-50"/>
      </g>
     </g>
    </g>
    <g id="ytick_4">
     <g id="line2d_15">
      <g>
       <use style="stroke:#000000;stroke-width:0.6;" x="57.6" xlink:href="#m7c9a41918e" y="121.354072"/>
      </g>
     </g>
    </g>
    <g id="ytick_5">
     <g id="line2d_16">
      <g>
       <use style="stroke:#000000;stroke-width:0.6;" x="57.6" xlink:href="#m7c9a41918e" y="99.751781"/>
      </g>
     </g>
     <g id="text_7">
      <!-- $\mathdefault{6\times10^{2}}$ -->
      <g transform="translate(16 103.550999)scale(0.1 -0.1)">
       <defs>
        <path d="M 33.015625 40.375 
Q 26.375 40.375 22.484375 35.828125 
Q 18.609375 31.296875 18.609375 23.390625 
Q 18.609375 15.53125 22.484375 10.953125 
Q 26.375 6.390625 33.015625 6.390625 
Q 39.65625 6.390625 43.53125 10.953125 
Q 47.40625 15.53125 47.40625 23.390625 
Q 47.40625 31.296875 43.53125 35.828125 
Q 39.65625 40.375 33.015625 40.375 
z
M 52.59375 71.296875 
L 52.59375 62.3125 
Q 48.875 64.0625 45.09375 64.984375 
Q 41.3125 65.921875 37.59375 65.921875 
Q 27.828125 65.921875 22.671875 59.328125 
Q 17.53125 52.734375 16.796875 39.40625 
Q 19.671875 43.65625 24.015625 45.921875 
Q 28.375 48.1875 33.59375 48.1875 
Q 44.578125 48.1875 50.953125 41.515625 
Q 57.328125 34.859375 57.328125 23.390625 
Q 57.328125 12.15625 50.6875 5.359375 
Q 44.046875 -1.421875 33.015625 -1.421875 
Q 20.359375 -1.421875 13.671875 8.265625 
Q 6.984375 17.96875 6.984375 36.375 
Q 6.984375 53.65625 15.1875 63.9375 
Q 23.390625 74.21875 37.203125 74.21875 
Q 40.921875 74.21875 44.703125 73.484375 
Q 48.484375 72.75 52.59375 71.296875 
z
" id="DejaVuSans-54"/>
       </defs>
       <use transform="translate(0 0.765625)" xlink:href="#DejaVuSans-54"/>
       <use transform="translate(83.105469 0.765625)" xlink:href="#DejaVuSans-215"/>
       <use transform="translate(186.376953 0.765625)" xlink:href="#DejaVuSans-49"/>
       <use transform="translate(250 0.765625)" xlink:href="#DejaVuSans-48"/>
       <use transform="translate(314.580078 39.046875)scale(0.7)" xlink:href="#DejaVuSans-50"/>
      </g>
     </g>
    </g>
    <g id="ytick_6">
     <g id="line2d_17">
      <g>
       <use style="stroke:#000000;stroke-width:0.6;" x="57.6" xlink:href="#m7c9a41918e" y="81.487303"/>
      </g>
     </g>
    </g>
    <g id="ytick_7">
     <g id="line2d_18">
      <g>
       <use style="stroke:#000000;stroke-width:0.6;" x="57.6" xlink:href="#m7c9a41918e" y="65.665894"/>
      </g>
     </g>
    </g>
    <g id="ytick_8">
     <g id="line2d_19">
      <g>
       <use style="stroke:#000000;stroke-width:0.6;" x="57.6" xlink:href="#m7c9a41918e" y="51.710421"/>
      </g>
     </g>
    </g>
    <g id="text_8">
     <!-- Number of edge species -->
     <g transform="translate(9.920312 235.377219)rotate(-90)scale(0.1 -0.1)">
      <defs>
       <path d="M 9.8125 72.90625 
L 23.09375 72.90625 
L 55.421875 11.921875 
L 55.421875 72.90625 
L 64.984375 72.90625 
L 64.984375 0 
L 51.703125 0 
L 19.390625 60.984375 
L 19.390625 0 
L 9.8125 0 
z
" id="DejaVuSans-78"/>
       <path d="M 48.6875 27.296875 
Q 48.6875 37.203125 44.609375 42.84375 
Q 40.53125 48.484375 33.40625 48.484375 
Q 26.265625 48.484375 22.1875 42.84375 
Q 18.109375 37.203125 18.109375 27.296875 
Q 18.109375 17.390625 22.1875 11.75 
Q 26.265625 6.109375 33.40625 6.109375 
Q 40.53125 6.109375 44.609375 11.75 
Q 48.6875 17.390625 48.6875 27.296875 
z
M 18.109375 46.390625 
Q 20.953125 51.265625 25.265625 53.625 
Q 29.59375 56 35.59375 56 
Q 45.5625 56 51.78125 48.09375 
Q 58.015625 40.1875 58.015625 27.296875 
Q 58.015625 14.40625 51.78125 6.484375 
Q 45.5625 -1.421875 35.59375 -1.421875 
Q 29.59375 -1.421875 25.265625 0.953125 
Q 20.953125 3.328125 18.109375 8.203125 
L 18.109375 0 
L 9.078125 0 
L 9.078125 75.984375 
L 18.109375 75.984375 
z
" id="DejaVuSans-98"/>
       <path d="M 41.109375 46.296875 
Q 39.59375 47.171875 37.8125 47.578125 
Q 36.03125 48 33.890625 48 
Q 26.265625 48 22.1875 43.046875 
Q 18.109375 38.09375 18.109375 28.8125 
L 18.109375 0 
L 9.078125 0 
L 9.078125 54.6875 
L 18.109375 54.6875 
L 18.109375 46.1875 
Q 20.953125 51.171875 25.484375 53.578125 
Q 30.03125 56 36.53125 56 
Q 37.453125 56 38.578125 55.875 
Q 39.703125 55.765625 41.0625 55.515625 
z
" id="DejaVuSans-114"/>
       <path d="M 37.109375 75.984375 
L 37.109375 68.5 
L 28.515625 68.5 
Q 23.6875 68.5 21.796875 66.546875 
Q 19.921875 64.59375 19.921875 59.515625 
L 19.921875 54.6875 
L 34.71875 54.6875 
L 34.71875 47.703125 
L 19.921875 47.703125 
L 19.921875 0 
L 10.890625 0 
L 10.890625 47.703125 
L 2.296875 47.703125 
L 2.296875 54.6875 
L 10.890625 54.6875 
L 10.890625 58.5 
Q 10.890625 67.625 15.140625 71.796875 
Q 19.390625 75.984375 28.609375 75.984375 
z
" id="DejaVuSans-102"/>
       <path d="M 45.40625 46.390625 
L 45.40625 75.984375 
L 54.390625 75.984375 
L 54.390625 0 
L 45.40625 0 
L 45.40625 8.203125 
Q 42.578125 3.328125 38.25 0.953125 
Q 33.9375 -1.421875 27.875 -1.421875 
Q 17.96875 -1.421875 11.734375 6.484375 
Q 5.515625 14.40625 5.515625 27.296875 
Q 5.515625 40.1875 11.734375 48.09375 
Q 17.96875 56 27.875 56 
Q 33.9375 56 38.25 53.625 
Q 42.578125 51.265625 45.40625 46.390625 
z
M 14.796875 27.296875 
Q 14.796875 17.390625 18.875 11.75 
Q 22.953125 6.109375 30.078125 6.109375 
Q 37.203125 6.109375 41.296875 11.75 
Q 45.40625 17.390625 45.40625 27.296875 
Q 45.40625 37.203125 41.296875 42.84375 
Q 37.203125 48.484375 30.078125 48.484375 
Q 22.953125 48.484375 18.875 42.84375 
Q 14.796875 37.203125 14.796875 27.296875 
z
" id="DejaVuSans-100"/>
       <path d="M 45.40625 27.984375 
Q 45.40625 37.75 41.375 43.109375 
Q 37.359375 48.484375 30.078125 48.484375 
Q 22.859375 48.484375 18.828125 43.109375 
Q 14.796875 37.75 14.796875 27.984375 
Q 14.796875 18.265625 18.828125 12.890625 
Q 22.859375 7.515625 30.078125 7.515625 
Q 37.359375 7.515625 41.375 12.890625 
Q 45.40625 18.265625 45.40625 27.984375 
z
M 54.390625 6.78125 
Q 54.390625 -7.171875 48.1875 -13.984375 
Q 42 -20.796875 29.203125 -20.796875 
Q 24.46875 -20.796875 20.265625 -20.09375 
Q 16.0625 -19.390625 12.109375 -17.921875 
L 12.109375 -9.1875 
Q 16.0625 -11.328125 19.921875 -12.34375 
Q 23.78125 -13.375 27.78125 -13.375 
Q 36.625 -13.375 41.015625 -8.765625 
Q 45.40625 -4.15625 45.40625 5.171875 
L 45.40625 9.625 
Q 42.625 4.78125 38.28125 2.390625 
Q 33.9375 0 27.875 0 
Q 17.828125 0 11.671875 7.65625 
Q 5.515625 15.328125 5.515625 27.984375 
Q 5.515625 40.671875 11.671875 48.328125 
Q 17.828125 56 27.875 56 
Q 33.9375 56 38.28125 53.609375 
Q 42.625 51.21875 45.40625 46.390625 
L 45.40625 54.6875 
L 54.390625 54.6875 
z
" id="DejaVuSans-103"/>
       <path d="M 18.109375 8.203125 
L 18.109375 -20.796875 
L 9.078125 -20.796875 
L 9.078125 54.6875 
L 18.109375 54.6875 
L 18.109375 46.390625 
Q 20.953125 51.265625 25.265625 53.625 
Q 29.59375 56 35.59375 56 
Q 45.5625 56 51.78125 48.09375 
Q 58.015625 40.1875 58.015625 27.296875 
Q 58.015625 14.40625 51.78125 6.484375 
Q 45.5625 -1.421875 35.59375 -1.421875 
Q 29.59375 -1.421875 25.265625 0.953125 
Q 20.953125 3.328125 18.109375 8.203125 
z
M 48.6875 27.296875 
Q 48.6875 37.203125 44.609375 42.84375 
Q 40.53125 48.484375 33.40625 48.484375 
Q 26.265625 48.484375 22.1875 42.84375 
Q 18.109375 37.203125 18.109375 27.296875 
Q 18.109375 17.390625 22.1875 11.75 
Q 26.265625 6.109375 33.40625 6.109375 
Q 40.53125 6.109375 44.609375 11.75 
Q 48.6875 17.390625 48.6875 27.296875 
z
" id="DejaVuSans-112"/>
      </defs>
      <use xlink:href="#DejaVuSans-78"/>
      <use x="74.804688" xlink:href="#DejaVuSans-117"/>
      <use x="138.183594" xlink:href="#DejaVuSans-109"/>
      <use x="235.595703" xlink:href="#DejaVuSans-98"/>
      <use x="299.072266" xlink:href="#DejaVuSans-101"/>
      <use x="360.595703" xlink:href="#DejaVuSans-114"/>
      <use x="401.708984" xlink:href="#DejaVuSans-32"/>
      <use x="433.496094" xlink:href="#DejaVuSans-111"/>
      <use x="494.677734" xlink:href="#DejaVuSans-102"/>
      <use x="529.882812" xlink:href="#DejaVuSans-32"/>
      <use x="561.669922" xlink:href="#DejaVuSans-101"/>
      <use x="623.193359" xlink:href="#DejaVuSans-100"/>
      <use x="686.669922" xlink:href="#DejaVuSans-103"/>
      <use x="750.146484" xlink:href="#DejaVuSans-101"/>
      <use x="811.669922" xlink:href="#DejaVuSans-32"/>
      <use x="843.457031" xlink:href="#DejaVuSans-115"/>
      <use x="895.556641" xlink:href="#DejaVuSans-112"/>
      <use x="959.033203" xlink:href="#DejaVuSans-101"/>
      <use x="1020.556641" xlink:href="#DejaVuSans-99"/>
      <use x="1075.537109" xlink:href="#DejaVuSans-105"/>
      <use x="1103.320312" xlink:href="#DejaVuSans-101"/>
      <use x="1164.84375" xlink:href="#DejaVuSans-115"/>
     </g>
    </g>
   </g>
   <g id="line2d_20">
    <path clip-path="url(#pe81d09468a)" d="M 73.832727 293.445112 
L 86.311623 294.462153 
L 91.900808 295.488 
L 104.908771 264.798816 
L 113.282426 258.602132 
L 117.578102 259.359225 
L 124.449287 254.15844 
L 128.800873 254.887578 
L 133.639942 255.621231 
L 143.369017 237.883587 
L 148.763089 234.757164 
L 152.485129 235.375883 
L 155.850882 235.997851 
L 162.025431 228.156316 
L 165.983573 224.705065 
L 172.094909 217.555335 
L 176.605249 218.090255 
L 180.780225 214.916372 
L 185.273372 207.825436 
L 190.103424 207.825436 
L 192.908177 208.318096 
L 195.85657 207.825436 
L 198.88356 207.334815 
L 201.914407 207.334815 
L 207.931782 189.631213 
L 212.043648 179.92056 
L 215.700289 168.451327 
L 220.848727 160.606318 
L 223.743662 155.75634 
L 226.58253 151.707853 
L 232.544954 144.290878 
L 235.779779 137.854479 
L 238.861948 134.63021 
L 242.765934 128.937716 
L 245.457343 125.944263 
L 248.072036 123.506223 
L 250.652256 123.747781 
L 253.691283 121.591279 
L 256.295161 119.473325 
L 258.69542 118.775671 
L 261.022924 117.85181 
L 263.420138 115.573191 
L 266.245489 114.003836 
L 268.973784 111.360947 
L 271.368164 110.061286 
L 275.500561 104.177865 
L 278.440031 99.160834 
L 281.224671 94.915004 
L 283.855604 90.085811 
L 286.352114 89.360023 
L 288.624405 89.360023 
L 290.69811 88.818584 
L 293.172532 85.09625 
L 295.376517 84.400303 
L 297.886807 83.881013 
L 300.108461 83.536079 
L 302.022322 83.536079 
L 304.318442 79.307059 
L 306.352539 79.307059 
L 308.403388 78.149489 
L 310.39569 77.003119 
L 312.378096 77.003119 
L 314.154916 77.003119 
L 316.035524 77.003119 
L 317.763358 77.003119 
L 319.545049 77.003119 
L 321.241085 77.003119 
L 322.906097 77.003119 
L 325.69662 72.997174 
L 327.515166 70.966407 
L 329.309704 68.817664 
L 331.062111 67.306361 
L 332.933451 66.111046 
L 334.831137 64.92767 
L 336.487504 64.92767 
L 338.142149 64.92767 
L 339.714385 64.92767 
L 341.314503 63.901823 
L 342.887362 63.901823 
L 344.447179 63.901823 
L 345.938501 63.901823 
L 347.426578 63.901823 
L 349.3216 62.884782 
L 350.854734 61.304006 
L 352.427818 61.304006 
L 354.027128 61.304006 
L 355.459318 61.304006 
L 356.916798 61.304006 
L 358.347559 61.304006 
L 359.710029 61.304006 
L 361.064185 61.161339 
L 362.402264 61.161339 
L 363.764042 61.161339 
L 365.192652 61.161339 
L 366.501563 61.161339 
L 367.824074 61.161339 
L 369.122176 61.161339 
L 370.533309 59.885012 
L 371.831795 59.885012 
L 373.08633 59.885012 
L 374.342863 59.885012 
L 375.699378 57.926545 
L 376.986433 56.959318 
L 378.22349 56.959318 
L 379.459539 56.959318 
L 380.782196 56.959318 
L 382.054794 55.183724 
L 383.379342 53.568 
L 384.586218 53.568 
L 385.867568 53.568 
L 387.042056 53.568 
L 388.209155 53.568 
L 389.391447 53.568 
L 390.533686 53.568 
L 391.670566 53.568 
L 392.822519 53.568 
L 393.941604 53.568 
L 395.160841 53.568 
L 396.295474 53.568 
L 397.38964 53.568 
L 398.487273 53.568 
" style="fill:none;stroke:#0000ff;stroke-linecap:square;stroke-width:1.5;"/>
    <defs>
     <path d="M 0 3 
C 0.795609 3 1.55874 2.683901 2.12132 2.12132 
C 2.683901 1.55874 3 0.795609 3 0 
C 3 -0.795609 2.683901 -1.55874 2.12132 -2.12132 
C 1.55874 -2.683901 0.795609 -3 0 -3 
C -0.795609 -3 -1.55874 -2.683901 -2.12132 -2.12132 
C -2.683901 -1.55874 -3 -0.795609 -3 0 
C -3 0.795609 -2.683901 1.55874 -2.12132 2.12132 
C -1.55874 2.683901 -0.795609 3 0 3 
z
" id="m8662ea186e" style="stroke:#0000ff;"/>
    </defs>
    <g clip-path="url(#pe81d09468a)">
     <use style="fill:#0000ff;stroke:#0000ff;" x="73.832727" xlink:href="#m8662ea186e" y="293.445112"/>
     <use style="fill:#0000ff;stroke:#0000ff;" x="86.311623" xlink:href="#m8662ea186e" y="294.462153"/>
     <use style="fill:#0000ff;stroke:#0000ff;" x="91.900808" xlink:href="#m8662ea186e" y="295.488"/>
     <use style="fill:#0000ff;stroke:#0000ff;" x="104.908771" xlink:href="#m8662ea186e" y="264.798816"/>
     <use style="fill:#0000ff;stroke:#0000ff;" x="113.282426" xlink:href="#m8662ea186e" y="258.602132"/>
     <use style="fill:#0000ff;stroke:#0000ff;" x="117.578102" xlink:href="#m8662ea186e" y="259.359225"/>
     <use style="fill:#0000ff;stroke:#0000ff;" x="124.449287" xlink:href="#m8662ea186e" y="254.15844"/>
     <use style="fill:#0000ff;stroke:#0000ff;" x="128.800873" xlink:href="#m8662ea186e" y="254.887578"/>
     <use style="fill:#0000ff;stroke:#0000ff;" x="133.639942" xlink:href="#m8662ea186e" y="255.621231"/>
     <use style="fill:#0000ff;stroke:#0000ff;" x="143.369017" xlink:href="#m8662ea186e" y="237.883587"/>
     <use style="fill:#0000ff;stroke:#0000ff;" x="148.763089" xlink:href="#m8662ea186e" y="234.757164"/>
     <use style="fill:#0000ff;stroke:#0000ff;" x="152.485129" xlink:href="#m8662ea186e" y="235.375883"/>
     <use style="fill:#0000ff;stroke:#0000ff;" x="155.850882" xlink:href="#m8662ea186e" y="235.997851"/>
     <use style="fill:#0000ff;stroke:#0000ff;" x="162.025431" xlink:href="#m8662ea186e" y="228.156316"/>
     <use style="fill:#0000ff;stroke:#0000ff;" x="165.983573" xlink:href="#m8662ea186e" y="224.705065"/>
     <use style="fill:#0000ff;stroke:#0000ff;" x="172.094909" xlink:href="#m8662ea186e" y="217.555335"/>
     <use style="fill:#0000ff;stroke:#0000ff;" x="176.605249" xlink:href="#m8662ea186e" y="218.090255"/>
     <use style="fill:#0000ff;stroke:#0000ff;" x="180.780225" xlink:href="#m8662ea186e" y="214.916372"/>
     <use style="fill:#0000ff;stroke:#0000ff;" x="185.273372" xlink:href="#m8662ea186e" y="207.825436"/>
     <use style="fill:#0000ff;stroke:#0000ff;" x="190.103424" xlink:href="#m8662ea186e" y="207.825436"/>
     <use style="fill:#0000ff;stroke:#0000ff;" x="192.908177" xlink:href="#m8662ea186e" y="208.318096"/>
     <use style="fill:#0000ff;stroke:#0000ff;" x="195.85657" xlink:href="#m8662ea186e" y="207.825436"/>
     <use style="fill:#0000ff;stroke:#0000ff;" x="198.88356" xlink:href="#m8662ea186e" y="207.334815"/>
     <use style="fill:#0000ff;stroke:#0000ff;" x="201.914407" xlink:href="#m8662ea186e" y="207.334815"/>
     <use style="fill:#0000ff;stroke:#0000ff;" x="207.931782" xlink:href="#m8662ea186e" y="189.631213"/>
     <use style="fill:#0000ff;stroke:#0000ff;" x="212.043648" xlink:href="#m8662ea186e" y="179.92056"/>
     <use style="fill:#0000ff;stroke:#0000ff;" x="215.700289" xlink:href="#m8662ea186e" y="168.451327"/>
     <use style="fill:#0000ff;stroke:#0000ff;" x="220.848727" xlink:href="#m8662ea186e" y="160.606318"/>
     <use style="fill:#0000ff;stroke:#0000ff;" x="223.743662" xlink:href="#m8662ea186e" y="155.75634"/>
     <use style="fill:#0000ff;stroke:#0000ff;" x="226.58253" xlink:href="#m8662ea186e" y="151.707853"/>
     <use style="fill:#0000ff;stroke:#0000ff;" x="232.544954" xlink:href="#m8662ea186e" y="144.290878"/>
     <use style="fill:#0000ff;stroke:#0000ff;" x="235.779779" xlink:href="#m8662ea186e" y="137.854479"/>
     <use style="fill:#0000ff;stroke:#0000ff;" x="238.861948" xlink:href="#m8662ea186e" y="134.63021"/>
     <use style="fill:#0000ff;stroke:#0000ff;" x="242.765934" xlink:href="#m8662ea186e" y="128.937716"/>
     <use style="fill:#0000ff;stroke:#0000ff;" x="245.457343" xlink:href="#m8662ea186e" y="125.944263"/>
     <use style="fill:#0000ff;stroke:#0000ff;" x="248.072036" xlink:href="#m8662ea186e" y="123.506223"/>
     <use style="fill:#0000ff;stroke:#0000ff;" x="250.652256" xlink:href="#m8662ea186e" y="123.747781"/>
     <use style="fill:#0000ff;stroke:#0000ff;" x="253.691283" xlink:href="#m8662ea186e" y="121.591279"/>
     <use style="fill:#0000ff;stroke:#0000ff;" x="256.295161" xlink:href="#m8662ea186e" y="119.473325"/>
     <use style="fill:#0000ff;stroke:#0000ff;" x="258.69542" xlink:href="#m8662ea186e" y="118.775671"/>
     <use style="fill:#0000ff;stroke:#0000ff;" x="261.022924" xlink:href="#m8662ea186e" y="117.85181"/>
     <use style="fill:#0000ff;stroke:#0000ff;" x="263.420138" xlink:href="#m8662ea186e" y="115.573191"/>
     <use style="fill:#0000ff;stroke:#0000ff;" x="266.245489" xlink:href="#m8662ea186e" y="114.003836"/>
     <use style="fill:#0000ff;stroke:#0000ff;" x="268.973784" xlink:href="#m8662ea186e" y="111.360947"/>
     <use style="fill:#0000ff;stroke:#0000ff;" x="271.368164" xlink:href="#m8662ea186e" y="110.061286"/>
     <use style="fill:#0000ff;stroke:#0000ff;" x="275.500561" xlink:href="#m8662ea186e" y="104.177865"/>
     <use style="fill:#0000ff;stroke:#0000ff;" x="278.440031" xlink:href="#m8662ea186e" y="99.160834"/>
     <use style="fill:#0000ff;stroke:#0000ff;" x="281.224671" xlink:href="#m8662ea186e" y="94.915004"/>
     <use style="fill:#0000ff;stroke:#0000ff;" x="283.855604" xlink:href="#m8662ea186e" y="90.085811"/>
     <use style="fill:#0000ff;stroke:#0000ff;" x="286.352114" xlink:href="#m8662ea186e" y="89.360023"/>
     <use style="fill:#0000ff;stroke:#0000ff;" x="288.624405" xlink:href="#m8662ea186e" y="89.360023"/>
     <use style="fill:#0000ff;stroke:#0000ff;" x="290.69811" xlink:href="#m8662ea186e" y="88.818584"/>
     <use style="fill:#0000ff;stroke:#0000ff;" x="293.172532" xlink:href="#m8662ea186e" y="85.09625"/>
     <use style="fill:#0000ff;stroke:#0000ff;" x="295.376517" xlink:href="#m8662ea186e" y="84.400303"/>
     <use style="fill:#0000ff;stroke:#0000ff;" x="297.886807" xlink:href="#m8662ea186e" y="83.881013"/>
     <use style="fill:#0000ff;stroke:#0000ff;" x="300.108461" xlink:href="#m8662ea186e" y="83.536079"/>
     <use style="fill:#0000ff;stroke:#0000ff;" x="302.022322" xlink:href="#m8662ea186e" y="83.536079"/>
     <use style="fill:#0000ff;stroke:#0000ff;" x="304.318442" xlink:href="#m8662ea186e" y="79.307059"/>
     <use style="fill:#0000ff;stroke:#0000ff;" x="306.352539" xlink:href="#m8662ea186e" y="79.307059"/>
     <use style="fill:#0000ff;stroke:#0000ff;" x="308.403388" xlink:href="#m8662ea186e" y="78.149489"/>
     <use style="fill:#0000ff;stroke:#0000ff;" x="310.39569" xlink:href="#m8662ea186e" y="77.003119"/>
     <use style="fill:#0000ff;stroke:#0000ff;" x="312.378096" xlink:href="#m8662ea186e" y="77.003119"/>
     <use style="fill:#0000ff;stroke:#0000ff;" x="314.154916" xlink:href="#m8662ea186e" y="77.003119"/>
     <use style="fill:#0000ff;stroke:#0000ff;" x="316.035524" xlink:href="#m8662ea186e" y="77.003119"/>
     <use style="fill:#0000ff;stroke:#0000ff;" x="317.763358" xlink:href="#m8662ea186e" y="77.003119"/>
     <use style="fill:#0000ff;stroke:#0000ff;" x="319.545049" xlink:href="#m8662ea186e" y="77.003119"/>
     <use style="fill:#0000ff;stroke:#0000ff;" x="321.241085" xlink:href="#m8662ea186e" y="77.003119"/>
     <use style="fill:#0000ff;stroke:#0000ff;" x="322.906097" xlink:href="#m8662ea186e" y="77.003119"/>
     <use style="fill:#0000ff;stroke:#0000ff;" x="325.69662" xlink:href="#m8662ea186e" y="72.997174"/>
     <use style="fill:#0000ff;stroke:#0000ff;" x="327.515166" xlink:href="#m8662ea186e" y="70.966407"/>
     <use style="fill:#0000ff;stroke:#0000ff;" x="329.309704" xlink:href="#m8662ea186e" y="68.817664"/>
     <use style="fill:#0000ff;stroke:#0000ff;" x="331.062111" xlink:href="#m8662ea186e" y="67.306361"/>
     <use style="fill:#0000ff;stroke:#0000ff;" x="332.933451" xlink:href="#m8662ea186e" y="66.111046"/>
     <use style="fill:#0000ff;stroke:#0000ff;" x="334.831137" xlink:href="#m8662ea186e" y="64.92767"/>
     <use style="fill:#0000ff;stroke:#0000ff;" x="336.487504" xlink:href="#m8662ea186e" y="64.92767"/>
     <use style="fill:#0000ff;stroke:#0000ff;" x="338.142149" xlink:href="#m8662ea186e" y="64.92767"/>
     <use style="fill:#0000ff;stroke:#0000ff;" x="339.714385" xlink:href="#m8662ea186e" y="64.92767"/>
     <use style="fill:#0000ff;stroke:#0000ff;" x="341.314503" xlink:href="#m8662ea186e" y="63.901823"/>
     <use style="fill:#0000ff;stroke:#0000ff;" x="342.887362" xlink:href="#m8662ea186e" y="63.901823"/>
     <use style="fill:#0000ff;stroke:#0000ff;" x="344.447179" xlink:href="#m8662ea186e" y="63.901823"/>
     <use style="fill:#0000ff;stroke:#0000ff;" x="345.938501" xlink:href="#m8662ea186e" y="63.901823"/>
     <use style="fill:#0000ff;stroke:#0000ff;" x="347.426578" xlink:href="#m8662ea186e" y="63.901823"/>
     <use style="fill:#0000ff;stroke:#0000ff;" x="349.3216" xlink:href="#m8662ea186e" y="62.884782"/>
     <use style="fill:#0000ff;stroke:#0000ff;" x="350.854734" xlink:href="#m8662ea186e" y="61.304006"/>
     <use style="fill:#0000ff;stroke:#0000ff;" x="352.427818" xlink:href="#m8662ea186e" y="61.304006"/>
     <use style="fill:#0000ff;stroke:#0000ff;" x="354.027128" xlink:href="#m8662ea186e" y="61.304006"/>
     <use style="fill:#0000ff;stroke:#0000ff;" x="355.459318" xlink:href="#m8662ea186e" y="61.304006"/>
     <use style="fill:#0000ff;stroke:#0000ff;" x="356.916798" xlink:href="#m8662ea186e" y="61.304006"/>
     <use style="fill:#0000ff;stroke:#0000ff;" x="358.347559" xlink:href="#m8662ea186e" y="61.304006"/>
     <use style="fill:#0000ff;stroke:#0000ff;" x="359.710029" xlink:href="#m8662ea186e" y="61.304006"/>
     <use style="fill:#0000ff;stroke:#0000ff;" x="361.064185" xlink:href="#m8662ea186e" y="61.161339"/>
     <use style="fill:#0000ff;stroke:#0000ff;" x="362.402264" xlink:href="#m8662ea186e" y="61.161339"/>
     <use style="fill:#0000ff;stroke:#0000ff;" x="363.764042" xlink:href="#m8662ea186e" y="61.161339"/>
     <use style="fill:#0000ff;stroke:#0000ff;" x="365.192652" xlink:href="#m8662ea186e" y="61.161339"/>
     <use style="fill:#0000ff;stroke:#0000ff;" x="366.501563" xlink:href="#m8662ea186e" y="61.161339"/>
     <use style="fill:#0000ff;stroke:#0000ff;" x="367.824074" xlink:href="#m8662ea186e" y="61.161339"/>
     <use style="fill:#0000ff;stroke:#0000ff;" x="369.122176" xlink:href="#m8662ea186e" y="61.161339"/>
     <use style="fill:#0000ff;stroke:#0000ff;" x="370.533309" xlink:href="#m8662ea186e" y="59.885012"/>
     <use style="fill:#0000ff;stroke:#0000ff;" x="371.831795" xlink:href="#m8662ea186e" y="59.885012"/>
     <use style="fill:#0000ff;stroke:#0000ff;" x="373.08633" xlink:href="#m8662ea186e" y="59.885012"/>
     <use style="fill:#0000ff;stroke:#0000ff;" x="374.342863" xlink:href="#m8662ea186e" y="59.885012"/>
     <use style="fill:#0000ff;stroke:#0000ff;" x="375.699378" xlink:href="#m8662ea186e" y="57.926545"/>
     <use style="fill:#0000ff;stroke:#0000ff;" x="376.986433" xlink:href="#m8662ea186e" y="56.959318"/>
     <use style="fill:#0000ff;stroke:#0000ff;" x="378.22349" xlink:href="#m8662ea186e" y="56.959318"/>
     <use style="fill:#0000ff;stroke:#0000ff;" x="379.459539" xlink:href="#m8662ea186e" y="56.959318"/>
     <use style="fill:#0000ff;stroke:#0000ff;" x="380.782196" xlink:href="#m8662ea186e" y="56.959318"/>
     <use style="fill:#0000ff;stroke:#0000ff;" x="382.054794" xlink:href="#m8662ea186e" y="55.183724"/>
     <use style="fill:#0000ff;stroke:#0000ff;" x="383.379342" xlink:href="#m8662ea186e" y="53.568"/>
     <use style="fill:#0000ff;stroke:#0000ff;" x="384.586218" xlink:href="#m8662ea186e" y="53.568"/>
     <use style="fill:#0000ff;stroke:#0000ff;" x="385.867568" xlink:href="#m8662ea186e" y="53.568"/>
     <use style="fill:#0000ff;stroke:#0000ff;" x="387.042056" xlink:href="#m8662ea186e" y="53.568"/>
     <use style="fill:#0000ff;stroke:#0000ff;" x="388.209155" xlink:href="#m8662ea186e" y="53.568"/>
     <use style="fill:#0000ff;stroke:#0000ff;" x="389.391447" xlink:href="#m8662ea186e" y="53.568"/>
     <use style="fill:#0000ff;stroke:#0000ff;" x="390.533686" xlink:href="#m8662ea186e" y="53.568"/>
     <use style="fill:#0000ff;stroke:#0000ff;" x="391.670566" xlink:href="#m8662ea186e" y="53.568"/>
     <use style="fill:#0000ff;stroke:#0000ff;" x="392.822519" xlink:href="#m8662ea186e" y="53.568"/>
     <use style="fill:#0000ff;stroke:#0000ff;" x="393.941604" xlink:href="#m8662ea186e" y="53.568"/>
     <use style="fill:#0000ff;stroke:#0000ff;" x="395.160841" xlink:href="#m8662ea186e" y="53.568"/>
     <use style="fill:#0000ff;stroke:#0000ff;" x="396.295474" xlink:href="#m8662ea186e" y="53.568"/>
     <use style="fill:#0000ff;stroke:#0000ff;" x="397.38964" xlink:href="#m8662ea186e" y="53.568"/>
     <use style="fill:#0000ff;stroke:#0000ff;" x="398.487273" xlink:href="#m8662ea186e" y="53.568"/>
    </g>
   </g>
   <g id="patch_3">
    <path d="M 57.6 307.584 
L 57.6 41.472 
" style="fill:none;stroke:#000000;stroke-linecap:square;stroke-linejoin:miter;stroke-width:0.8;"/>
   </g>
   <g id="patch_4">
    <path d="M 414.72 307.584 
L 414.72 41.472 
" style="fill:none;stroke:#000000;stroke-linecap:square;stroke-linejoin:miter;stroke-width:0.8;"/>
   </g>
   <g id="patch_5">
    <path d="M 57.6 307.584 
L 414.72 307.584 
" style="fill:none;stroke:#000000;stroke-linecap:square;stroke-linejoin:miter;stroke-width:0.8;"/>
   </g>
   <g id="patch_6">
    <path d="M 57.6 41.472 
L 414.72 41.472 
" style="fill:none;stroke:#000000;stroke-linecap:square;stroke-linejoin:miter;stroke-width:0.8;"/>
   </g>
  </g>
  <g id="axes_2">
   <g id="matplotlib.axis_3">
    <g id="ytick_9">
     <g id="line2d_21">
      <defs>
       <path d="M 0 0 
L 3.5 0 
" id="m9e816debf2" style="stroke:#000000;stroke-width:0.8;"/>
      </defs>
      <g>
       <use style="stroke:#000000;stroke-width:0.8;" x="414.72" xlink:href="#m9e816debf2" y="285.44008"/>
      </g>
     </g>
     <g id="text_9">
      <!-- $\mathdefault{10^{2}}$ -->
      <g transform="translate(421.72 289.239299)scale(0.1 -0.1)">
       <use transform="translate(0 0.765625)" xlink:href="#DejaVuSans-49"/>
       <use transform="translate(63.623047 0.765625)" xlink:href="#DejaVuSans-48"/>
       <use transform="translate(128.203125 39.046875)scale(0.7)" xlink:href="#DejaVuSans-50"/>
      </g>
     </g>
    </g>
    <g id="ytick_10">
     <g id="line2d_22">
      <g>
       <use style="stroke:#000000;stroke-width:0.8;" x="414.72" xlink:href="#m9e816debf2" y="86.903793"/>
      </g>
     </g>
     <g id="text_10">
      <!-- $\mathdefault{10^{3}}$ -->
      <g transform="translate(421.72 90.703012)scale(0.1 -0.1)">
       <use transform="translate(0 0.765625)" xlink:href="#DejaVuSans-49"/>
       <use transform="translate(63.623047 0.765625)" xlink:href="#DejaVuSans-48"/>
       <use transform="translate(128.203125 39.046875)scale(0.7)" xlink:href="#DejaVuSans-51"/>
      </g>
     </g>
    </g>
    <g id="ytick_11">
     <g id="line2d_23">
      <defs>
       <path d="M 0 0 
L 2 0 
" id="m8e560812fe" style="stroke:#000000;stroke-width:0.6;"/>
      </defs>
      <g>
       <use style="stroke:#000000;stroke-width:0.6;" x="414.72" xlink:href="#m8e560812fe" y="304.680234"/>
      </g>
     </g>
    </g>
    <g id="ytick_12">
     <g id="line2d_24">
      <g>
       <use style="stroke:#000000;stroke-width:0.6;" x="414.72" xlink:href="#m8e560812fe" y="294.524602"/>
      </g>
     </g>
    </g>
    <g id="ytick_13">
     <g id="line2d_25">
      <g>
       <use style="stroke:#000000;stroke-width:0.6;" x="414.72" xlink:href="#m8e560812fe" y="225.674702"/>
      </g>
     </g>
    </g>
    <g id="ytick_14">
     <g id="line2d_26">
      <g>
       <use style="stroke:#000000;stroke-width:0.6;" x="414.72" xlink:href="#m8e560812fe" y="190.714198"/>
      </g>
     </g>
    </g>
    <g id="ytick_15">
     <g id="line2d_27">
      <g>
       <use style="stroke:#000000;stroke-width:0.6;" x="414.72" xlink:href="#m8e560812fe" y="165.909325"/>
      </g>
     </g>
    </g>
    <g id="ytick_16">
     <g id="line2d_28">
      <g>
       <use style="stroke:#000000;stroke-width:0.6;" x="414.72" xlink:href="#m8e560812fe" y="146.669171"/>
      </g>
     </g>
    </g>
    <g id="ytick_17">
     <g id="line2d_29">
      <g>
       <use style="stroke:#000000;stroke-width:0.6;" x="414.72" xlink:href="#m8e560812fe" y="130.94882"/>
      </g>
     </g>
    </g>
    <g id="ytick_18">
     <g id="line2d_30">
      <g>
       <use style="stroke:#000000;stroke-width:0.6;" x="414.72" xlink:href="#m8e560812fe" y="117.657453"/>
      </g>
     </g>
    </g>
    <g id="ytick_19">
     <g id="line2d_31">
      <g>
       <use style="stroke:#000000;stroke-width:0.6;" x="414.72" xlink:href="#m8e560812fe" y="106.143947"/>
      </g>
     </g>
    </g>
    <g id="ytick_20">
     <g id="line2d_32">
      <g>
       <use style="stroke:#000000;stroke-width:0.6;" x="414.72" xlink:href="#m8e560812fe" y="95.988315"/>
      </g>
     </g>
    </g>
    <g id="text_11">
     <!-- Number of edge reactions -->
     <g transform="translate(450.918438 239.717062)rotate(-90)scale(0.1 -0.1)">
      <defs>
       <path d="M 34.28125 27.484375 
Q 23.390625 27.484375 19.1875 25 
Q 14.984375 22.515625 14.984375 16.5 
Q 14.984375 11.71875 18.140625 8.90625 
Q 21.296875 6.109375 26.703125 6.109375 
Q 34.1875 6.109375 38.703125 11.40625 
Q 43.21875 16.703125 43.21875 25.484375 
L 43.21875 27.484375 
z
M 52.203125 31.203125 
L 52.203125 0 
L 43.21875 0 
L 43.21875 8.296875 
Q 40.140625 3.328125 35.546875 0.953125 
Q 30.953125 -1.421875 24.3125 -1.421875 
Q 15.921875 -1.421875 10.953125 3.296875 
Q 6 8.015625 6 15.921875 
Q 6 25.140625 12.171875 29.828125 
Q 18.359375 34.515625 30.609375 34.515625 
L 43.21875 34.515625 
L 43.21875 35.40625 
Q 43.21875 41.609375 39.140625 45 
Q 35.0625 48.390625 27.6875 48.390625 
Q 23 48.390625 18.546875 47.265625 
Q 14.109375 46.140625 10.015625 43.890625 
L 10.015625 52.203125 
Q 14.9375 54.109375 19.578125 55.046875 
Q 24.21875 56 28.609375 56 
Q 40.484375 56 46.34375 49.84375 
Q 52.203125 43.703125 52.203125 31.203125 
z
" id="DejaVuSans-97"/>
      </defs>
      <use xlink:href="#DejaVuSans-78"/>
      <use x="74.804688" xlink:href="#DejaVuSans-117"/>
      <use x="138.183594" xlink:href="#DejaVuSans-109"/>
      <use x="235.595703" xlink:href="#DejaVuSans-98"/>
      <use x="299.072266" xlink:href="#DejaVuSans-101"/>
      <use x="360.595703" xlink:href="#DejaVuSans-114"/>
      <use x="401.708984" xlink:href="#DejaVuSans-32"/>
      <use x="433.496094" xlink:href="#DejaVuSans-111"/>
      <use x="494.677734" xlink:href="#DejaVuSans-102"/>
      <use x="529.882812" xlink:href="#DejaVuSans-32"/>
      <use x="561.669922" xlink:href="#DejaVuSans-101"/>
      <use x="623.193359" xlink:href="#DejaVuSans-100"/>
      <use x="686.669922" xlink:href="#DejaVuSans-103"/>
      <use x="750.146484" xlink:href="#DejaVuSans-101"/>
      <use x="811.669922" xlink:href="#DejaVuSans-32"/>
      <use x="843.457031" xlink:href="#DejaVuSans-114"/>
      <use x="882.320312" xlink:href="#DejaVuSans-101"/>
      <use x="943.84375" xlink:href="#DejaVuSans-97"/>
      <use x="1005.123047" xlink:href="#DejaVuSans-99"/>
      <use x="1060.103516" xlink:href="#DejaVuSans-116"/>
      <use x="1099.3125" xlink:href="#DejaVuSans-105"/>
      <use x="1127.095703" xlink:href="#DejaVuSans-111"/>
      <use x="1188.277344" xlink:href="#DejaVuSans-110"/>
      <use x="1251.65625" xlink:href="#DejaVuSans-115"/>
     </g>
    </g>
   </g>
   <g id="line2d_33">
    <path clip-path="url(#pe81d09468a)" d="M 73.832727 295.488 
L 86.311623 295.488 
L 91.900808 295.488 
L 104.908771 257.669005 
L 113.282426 247.097839 
L 117.578102 247.097839 
L 124.449287 238.679137 
L 128.800873 238.679137 
L 133.639942 238.679137 
L 143.369017 217.849569 
L 148.763089 210.675889 
L 152.485129 210.675889 
L 155.850882 210.675889 
L 162.025431 203.385079 
L 165.983573 199.79872 
L 172.094909 189.288988 
L 176.605249 189.288988 
L 180.780225 183.020402 
L 185.273372 177.17683 
L 190.103424 176.199786 
L 192.908177 176.443011 
L 195.85657 175.957245 
L 198.88356 175.4742 
L 201.914407 175.233689 
L 207.931782 165.694036 
L 212.043648 158.478807 
L 215.700289 152.371957 
L 220.848727 145.982129 
L 223.743662 141.32028 
L 226.58253 138.922816 
L 232.544954 133.131803 
L 235.779779 128.260758 
L 238.861948 126.060365 
L 242.765934 122.080126 
L 245.457343 119.399395 
L 248.072036 117.780717 
L 250.652256 116.921546 
L 253.691283 113.450608 
L 256.295161 111.708666 
L 258.69542 110.114004 
L 261.022924 107.995938 
L 263.420138 106.143947 
L 266.245489 104.966455 
L 268.973784 102.34867 
L 271.368164 100.008545 
L 275.500561 95.60595 
L 278.440031 91.87276 
L 281.224671 88.557797 
L 283.855604 85.875273 
L 286.352114 84.104368 
L 288.624405 83.854324 
L 290.69811 82.86134 
L 293.172532 79.949209 
L 295.376517 77.983251 
L 297.886807 76.901583 
L 300.108461 77.518016 
L 302.022322 77.518016 
L 304.318442 75.153499 
L 306.352539 75.153499 
L 308.403388 74.255332 
L 310.39569 73.513942 
L 312.378096 73.513942 
L 314.154916 73.513942 
L 316.035524 73.513942 
L 317.763358 73.513942 
L 319.545049 73.513942 
L 321.241085 73.513942 
L 322.906097 73.513942 
L 325.69662 70.753401 
L 327.515166 68.704576 
L 329.309704 66.839844 
L 331.062111 65.215497 
L 332.933451 64.348254 
L 334.831137 63.555391 
L 336.487504 63.555391 
L 338.142149 63.555391 
L 339.714385 63.555391 
L 341.314503 62.314748 
L 342.887362 62.314748 
L 344.447179 62.314748 
L 345.938501 62.314748 
L 347.426578 62.314748 
L 349.3216 61.604557 
L 350.854734 60.772712 
L 352.427818 60.772712 
L 354.027128 60.772712 
L 355.459318 60.772712 
L 356.916798 60.772712 
L 358.347559 60.772712 
L 359.710029 60.772712 
L 361.064185 60.709055 
L 362.402264 60.709055 
L 363.764042 60.709055 
L 365.192652 60.709055 
L 366.501563 60.709055 
L 367.824074 60.709055 
L 369.122176 60.709055 
L 370.533309 59.007848 
L 371.831795 59.007848 
L 373.08633 59.007848 
L 374.342863 59.007848 
L 375.699378 57.707509 
L 376.986433 56.973169 
L 378.22349 56.973169 
L 379.459539 56.973169 
L 380.782196 56.973169 
L 382.054794 55.52299 
L 383.379342 53.568 
L 384.586218 53.568 
L 385.867568 53.568 
L 387.042056 53.568 
L 388.209155 53.568 
L 389.391447 53.568 
L 390.533686 53.568 
L 391.670566 53.568 
L 392.822519 53.568 
L 393.941604 53.568 
L 395.160841 53.568 
L 396.295474 53.568 
L 397.38964 53.568 
L 398.487273 53.568 
" style="fill:none;stroke:#ff0000;stroke-linecap:square;stroke-width:1.5;"/>
    <defs>
     <path d="M 0 3 
C 0.795609 3 1.55874 2.683901 2.12132 2.12132 
C 2.683901 1.55874 3 0.795609 3 0 
C 3 -0.795609 2.683901 -1.55874 2.12132 -2.12132 
C 1.55874 -2.683901 0.795609 -3 0 -3 
C -0.795609 -3 -1.55874 -2.683901 -2.12132 -2.12132 
C -2.683901 -1.55874 -3 -0.795609 -3 0 
C -3 0.795609 -2.683901 1.55874 -2.12132 2.12132 
C -1.55874 2.683901 -0.795609 3 0 3 
z
" id="m20cc3daab7" style="stroke:#ff0000;"/>
    </defs>
    <g clip-path="url(#pe81d09468a)">
     <use style="fill:#ff0000;stroke:#ff0000;" x="73.832727" xlink:href="#m20cc3daab7" y="295.488"/>
     <use style="fill:#ff0000;stroke:#ff0000;" x="86.311623" xlink:href="#m20cc3daab7" y="295.488"/>
     <use style="fill:#ff0000;stroke:#ff0000;" x="91.900808" xlink:href="#m20cc3daab7" y="295.488"/>
     <use style="fill:#ff0000;stroke:#ff0000;" x="104.908771" xlink:href="#m20cc3daab7" y="257.669005"/>
     <use style="fill:#ff0000;stroke:#ff0000;" x="113.282426" xlink:href="#m20cc3daab7" y="247.097839"/>
     <use style="fill:#ff0000;stroke:#ff0000;" x="117.578102" xlink:href="#m20cc3daab7" y="247.097839"/>
     <use style="fill:#ff0000;stroke:#ff0000;" x="124.449287" xlink:href="#m20cc3daab7" y="238.679137"/>
     <use style="fill:#ff0000;stroke:#ff0000;" x="128.800873" xlink:href="#m20cc3daab7" y="238.679137"/>
     <use style="fill:#ff0000;stroke:#ff0000;" x="133.639942" xlink:href="#m20cc3daab7" y="238.679137"/>
     <use style="fill:#ff0000;stroke:#ff0000;" x="143.369017" xlink:href="#m20cc3daab7" y="217.849569"/>
     <use style="fill:#ff0000;stroke:#ff0000;" x="148.763089" xlink:href="#m20cc3daab7" y="210.675889"/>
     <use style="fill:#ff0000;stroke:#ff0000;" x="152.485129" xlink:href="#m20cc3daab7" y="210.675889"/>
     <use style="fill:#ff0000;stroke:#ff0000;" x="155.850882" xlink:href="#m20cc3daab7" y="210.675889"/>
     <use style="fill:#ff0000;stroke:#ff0000;" x="162.025431" xlink:href="#m20cc3daab7" y="203.385079"/>
     <use style="fill:#ff0000;stroke:#ff0000;" x="165.983573" xlink:href="#m20cc3daab7" y="199.79872"/>
     <use style="fill:#ff0000;stroke:#ff0000;" x="172.094909" xlink:href="#m20cc3daab7" y="189.288988"/>
     <use style="fill:#ff0000;stroke:#ff0000;" x="176.605249" xlink:href="#m20cc3daab7" y="189.288988"/>
     <use style="fill:#ff0000;stroke:#ff0000;" x="180.780225" xlink:href="#m20cc3daab7" y="183.020402"/>
     <use style="fill:#ff0000;stroke:#ff0000;" x="185.273372" xlink:href="#m20cc3daab7" y="177.17683"/>
     <use style="fill:#ff0000;stroke:#ff0000;" x="190.103424" xlink:href="#m20cc3daab7" y="176.199786"/>
     <use style="fill:#ff0000;stroke:#ff0000;" x="192.908177" xlink:href="#m20cc3daab7" y="176.443011"/>
     <use style="fill:#ff0000;stroke:#ff0000;" x="195.85657" xlink:href="#m20cc3daab7" y="175.957245"/>
     <use style="fill:#ff0000;stroke:#ff0000;" x="198.88356" xlink:href="#m20cc3daab7" y="175.4742"/>
     <use style="fill:#ff0000;stroke:#ff0000;" x="201.914407" xlink:href="#m20cc3daab7" y="175.233689"/>
     <use style="fill:#ff0000;stroke:#ff0000;" x="207.931782" xlink:href="#m20cc3daab7" y="165.694036"/>
     <use style="fill:#ff0000;stroke:#ff0000;" x="212.043648" xlink:href="#m20cc3daab7" y="158.478807"/>
     <use style="fill:#ff0000;stroke:#ff0000;" x="215.700289" xlink:href="#m20cc3daab7" y="152.371957"/>
     <use style="fill:#ff0000;stroke:#ff0000;" x="220.848727" xlink:href="#m20cc3daab7" y="145.982129"/>
     <use style="fill:#ff0000;stroke:#ff0000;" x="223.743662" xlink:href="#m20cc3daab7" y="141.32028"/>
     <use style="fill:#ff0000;stroke:#ff0000;" x="226.58253" xlink:href="#m20cc3daab7" y="138.922816"/>
     <use style="fill:#ff0000;stroke:#ff0000;" x="232.544954" xlink:href="#m20cc3daab7" y="133.131803"/>
     <use style="fill:#ff0000;stroke:#ff0000;" x="235.779779" xlink:href="#m20cc3daab7" y="128.260758"/>
     <use style="fill:#ff0000;stroke:#ff0000;" x="238.861948" xlink:href="#m20cc3daab7" y="126.060365"/>
     <use style="fill:#ff0000;stroke:#ff0000;" x="242.765934" xlink:href="#m20cc3daab7" y="122.080126"/>
     <use style="fill:#ff0000;stroke:#ff0000;" x="245.457343" xlink:href="#m20cc3daab7" y="119.399395"/>
     <use style="fill:#ff0000;stroke:#ff0000;" x="248.072036" xlink:href="#m20cc3daab7" y="117.780717"/>
     <use style="fill:#ff0000;stroke:#ff0000;" x="250.652256" xlink:href="#m20cc3daab7" y="116.921546"/>
     <use style="fill:#ff0000;stroke:#ff0000;" x="253.691283" xlink:href="#m20cc3daab7" y="113.450608"/>
     <use style="fill:#ff0000;stroke:#ff0000;" x="256.295161" xlink:href="#m20cc3daab7" y="111.708666"/>
     <use style="fill:#ff0000;stroke:#ff0000;" x="258.69542" xlink:href="#m20cc3daab7" y="110.114004"/>
     <use style="fill:#ff0000;stroke:#ff0000;" x="261.022924" xlink:href="#m20cc3daab7" y="107.995938"/>
     <use style="fill:#ff0000;stroke:#ff0000;" x="263.420138" xlink:href="#m20cc3daab7" y="106.143947"/>
     <use style="fill:#ff0000;stroke:#ff0000;" x="266.245489" xlink:href="#m20cc3daab7" y="104.966455"/>
     <use style="fill:#ff0000;stroke:#ff0000;" x="268.973784" xlink:href="#m20cc3daab7" y="102.34867"/>
     <use style="fill:#ff0000;stroke:#ff0000;" x="271.368164" xlink:href="#m20cc3daab7" y="100.008545"/>
     <use style="fill:#ff0000;stroke:#ff0000;" x="275.500561" xlink:href="#m20cc3daab7" y="95.60595"/>
     <use style="fill:#ff0000;stroke:#ff0000;" x="278.440031" xlink:href="#m20cc3daab7" y="91.87276"/>
     <use style="fill:#ff0000;stroke:#ff0000;" x="281.224671" xlink:href="#m20cc3daab7" y="88.557797"/>
     <use style="fill:#ff0000;stroke:#ff0000;" x="283.855604" xlink:href="#m20cc3daab7" y="85.875273"/>
     <use style="fill:#ff0000;stroke:#ff0000;" x="286.352114" xlink:href="#m20cc3daab7" y="84.104368"/>
     <use style="fill:#ff0000;stroke:#ff0000;" x="288.624405" xlink:href="#m20cc3daab7" y="83.854324"/>
     <use style="fill:#ff0000;stroke:#ff0000;" x="290.69811" xlink:href="#m20cc3daab7" y="82.86134"/>
     <use style="fill:#ff0000;stroke:#ff0000;" x="293.172532" xlink:href="#m20cc3daab7" y="79.949209"/>
     <use style="fill:#ff0000;stroke:#ff0000;" x="295.376517" xlink:href="#m20cc3daab7" y="77.983251"/>
     <use style="fill:#ff0000;stroke:#ff0000;" x="297.886807" xlink:href="#m20cc3daab7" y="76.901583"/>
     <use style="fill:#ff0000;stroke:#ff0000;" x="300.108461" xlink:href="#m20cc3daab7" y="77.518016"/>
     <use style="fill:#ff0000;stroke:#ff0000;" x="302.022322" xlink:href="#m20cc3daab7" y="77.518016"/>
     <use style="fill:#ff0000;stroke:#ff0000;" x="304.318442" xlink:href="#m20cc3daab7" y="75.153499"/>
     <use style="fill:#ff0000;stroke:#ff0000;" x="306.352539" xlink:href="#m20cc3daab7" y="75.153499"/>
     <use style="fill:#ff0000;stroke:#ff0000;" x="308.403388" xlink:href="#m20cc3daab7" y="74.255332"/>
     <use style="fill:#ff0000;stroke:#ff0000;" x="310.39569" xlink:href="#m20cc3daab7" y="73.513942"/>
     <use style="fill:#ff0000;stroke:#ff0000;" x="312.378096" xlink:href="#m20cc3daab7" y="73.513942"/>
     <use style="fill:#ff0000;stroke:#ff0000;" x="314.154916" xlink:href="#m20cc3daab7" y="73.513942"/>
     <use style="fill:#ff0000;stroke:#ff0000;" x="316.035524" xlink:href="#m20cc3daab7" y="73.513942"/>
     <use style="fill:#ff0000;stroke:#ff0000;" x="317.763358" xlink:href="#m20cc3daab7" y="73.513942"/>
     <use style="fill:#ff0000;stroke:#ff0000;" x="319.545049" xlink:href="#m20cc3daab7" y="73.513942"/>
     <use style="fill:#ff0000;stroke:#ff0000;" x="321.241085" xlink:href="#m20cc3daab7" y="73.513942"/>
     <use style="fill:#ff0000;stroke:#ff0000;" x="322.906097" xlink:href="#m20cc3daab7" y="73.513942"/>
     <use style="fill:#ff0000;stroke:#ff0000;" x="325.69662" xlink:href="#m20cc3daab7" y="70.753401"/>
     <use style="fill:#ff0000;stroke:#ff0000;" x="327.515166" xlink:href="#m20cc3daab7" y="68.704576"/>
     <use style="fill:#ff0000;stroke:#ff0000;" x="329.309704" xlink:href="#m20cc3daab7" y="66.839844"/>
     <use style="fill:#ff0000;stroke:#ff0000;" x="331.062111" xlink:href="#m20cc3daab7" y="65.215497"/>
     <use style="fill:#ff0000;stroke:#ff0000;" x="332.933451" xlink:href="#m20cc3daab7" y="64.348254"/>
     <use style="fill:#ff0000;stroke:#ff0000;" x="334.831137" xlink:href="#m20cc3daab7" y="63.555391"/>
     <use style="fill:#ff0000;stroke:#ff0000;" x="336.487504" xlink:href="#m20cc3daab7" y="63.555391"/>
     <use style="fill:#ff0000;stroke:#ff0000;" x="338.142149" xlink:href="#m20cc3daab7" y="63.555391"/>
     <use style="fill:#ff0000;stroke:#ff0000;" x="339.714385" xlink:href="#m20cc3daab7" y="63.555391"/>
     <use style="fill:#ff0000;stroke:#ff0000;" x="341.314503" xlink:href="#m20cc3daab7" y="62.314748"/>
     <use style="fill:#ff0000;stroke:#ff0000;" x="342.887362" xlink:href="#m20cc3daab7" y="62.314748"/>
     <use style="fill:#ff0000;stroke:#ff0000;" x="344.447179" xlink:href="#m20cc3daab7" y="62.314748"/>
     <use style="fill:#ff0000;stroke:#ff0000;" x="345.938501" xlink:href="#m20cc3daab7" y="62.314748"/>
     <use style="fill:#ff0000;stroke:#ff0000;" x="347.426578" xlink:href="#m20cc3daab7" y="62.314748"/>
     <use style="fill:#ff0000;stroke:#ff0000;" x="349.3216" xlink:href="#m20cc3daab7" y="61.604557"/>
     <use style="fill:#ff0000;stroke:#ff0000;" x="350.854734" xlink:href="#m20cc3daab7" y="60.772712"/>
     <use style="fill:#ff0000;stroke:#ff0000;" x="352.427818" xlink:href="#m20cc3daab7" y="60.772712"/>
     <use style="fill:#ff0000;stroke:#ff0000;" x="354.027128" xlink:href="#m20cc3daab7" y="60.772712"/>
     <use style="fill:#ff0000;stroke:#ff0000;" x="355.459318" xlink:href="#m20cc3daab7" y="60.772712"/>
     <use style="fill:#ff0000;stroke:#ff0000;" x="356.916798" xlink:href="#m20cc3daab7" y="60.772712"/>
     <use style="fill:#ff0000;stroke:#ff0000;" x="358.347559" xlink:href="#m20cc3daab7" y="60.772712"/>
     <use style="fill:#ff0000;stroke:#ff0000;" x="359.710029" xlink:href="#m20cc3daab7" y="60.772712"/>
     <use style="fill:#ff0000;stroke:#ff0000;" x="361.064185" xlink:href="#m20cc3daab7" y="60.709055"/>
     <use style="fill:#ff0000;stroke:#ff0000;" x="362.402264" xlink:href="#m20cc3daab7" y="60.709055"/>
     <use style="fill:#ff0000;stroke:#ff0000;" x="363.764042" xlink:href="#m20cc3daab7" y="60.709055"/>
     <use style="fill:#ff0000;stroke:#ff0000;" x="365.192652" xlink:href="#m20cc3daab7" y="60.709055"/>
     <use style="fill:#ff0000;stroke:#ff0000;" x="366.501563" xlink:href="#m20cc3daab7" y="60.709055"/>
     <use style="fill:#ff0000;stroke:#ff0000;" x="367.824074" xlink:href="#m20cc3daab7" y="60.709055"/>
     <use style="fill:#ff0000;stroke:#ff0000;" x="369.122176" xlink:href="#m20cc3daab7" y="60.709055"/>
     <use style="fill:#ff0000;stroke:#ff0000;" x="370.533309" xlink:href="#m20cc3daab7" y="59.007848"/>
     <use style="fill:#ff0000;stroke:#ff0000;" x="371.831795" xlink:href="#m20cc3daab7" y="59.007848"/>
     <use style="fill:#ff0000;stroke:#ff0000;" x="373.08633" xlink:href="#m20cc3daab7" y="59.007848"/>
     <use style="fill:#ff0000;stroke:#ff0000;" x="374.342863" xlink:href="#m20cc3daab7" y="59.007848"/>
     <use style="fill:#ff0000;stroke:#ff0000;" x="375.699378" xlink:href="#m20cc3daab7" y="57.707509"/>
     <use style="fill:#ff0000;stroke:#ff0000;" x="376.986433" xlink:href="#m20cc3daab7" y="56.973169"/>
     <use style="fill:#ff0000;stroke:#ff0000;" x="378.22349" xlink:href="#m20cc3daab7" y="56.973169"/>
     <use style="fill:#ff0000;stroke:#ff0000;" x="379.459539" xlink:href="#m20cc3daab7" y="56.973169"/>
     <use style="fill:#ff0000;stroke:#ff0000;" x="380.782196" xlink:href="#m20cc3daab7" y="56.973169"/>
     <use style="fill:#ff0000;stroke:#ff0000;" x="382.054794" xlink:href="#m20cc3daab7" y="55.52299"/>
     <use style="fill:#ff0000;stroke:#ff0000;" x="383.379342" xlink:href="#m20cc3daab7" y="53.568"/>
     <use style="fill:#ff0000;stroke:#ff0000;" x="384.586218" xlink:href="#m20cc3daab7" y="53.568"/>
     <use style="fill:#ff0000;stroke:#ff0000;" x="385.867568" xlink:href="#m20cc3daab7" y="53.568"/>
     <use style="fill:#ff0000;stroke:#ff0000;" x="387.042056" xlink:href="#m20cc3daab7" y="53.568"/>
     <use style="fill:#ff0000;stroke:#ff0000;" x="388.209155" xlink:href="#m20cc3daab7" y="53.568"/>
     <use style="fill:#ff0000;stroke:#ff0000;" x="389.391447" xlink:href="#m20cc3daab7" y="53.568"/>
     <use style="fill:#ff0000;stroke:#ff0000;" x="390.533686" xlink:href="#m20cc3daab7" y="53.568"/>
     <use style="fill:#ff0000;stroke:#ff0000;" x="391.670566" xlink:href="#m20cc3daab7" y="53.568"/>
     <use style="fill:#ff0000;stroke:#ff0000;" x="392.822519" xlink:href="#m20cc3daab7" y="53.568"/>
     <use style="fill:#ff0000;stroke:#ff0000;" x="393.941604" xlink:href="#m20cc3daab7" y="53.568"/>
     <use style="fill:#ff0000;stroke:#ff0000;" x="395.160841" xlink:href="#m20cc3daab7" y="53.568"/>
     <use style="fill:#ff0000;stroke:#ff0000;" x="396.295474" xlink:href="#m20cc3daab7" y="53.568"/>
     <use style="fill:#ff0000;stroke:#ff0000;" x="397.38964" xlink:href="#m20cc3daab7" y="53.568"/>
     <use style="fill:#ff0000;stroke:#ff0000;" x="398.487273" xlink:href="#m20cc3daab7" y="53.568"/>
    </g>
   </g>
   <g id="patch_7">
    <path d="M 57.6 307.584 
L 57.6 41.472 
" style="fill:none;stroke:#000000;stroke-linecap:square;stroke-linejoin:miter;stroke-width:0.8;"/>
   </g>
   <g id="patch_8">
    <path d="M 414.72 307.584 
L 414.72 41.472 
" style="fill:none;stroke:#000000;stroke-linecap:square;stroke-linejoin:miter;stroke-width:0.8;"/>
   </g>
   <g id="patch_9">
    <path d="M 57.6 307.584 
L 414.72 307.584 
" style="fill:none;stroke:#000000;stroke-linecap:square;stroke-linejoin:miter;stroke-width:0.8;"/>
   </g>
   <g id="patch_10">
    <path d="M 57.6 41.472 
L 414.72 41.472 
" style="fill:none;stroke:#000000;stroke-linecap:square;stroke-linejoin:miter;stroke-width:0.8;"/>
   </g>
  </g>
 </g>
 <defs>
  <clipPath id="pe81d09468a">
   <rect height="266.112" width="357.12" x="57.6" y="41.472"/>
  </clipPath>
 </defs>
</svg>
