<?xml version="1.0" encoding="utf-8" standalone="no"?>
<!DOCTYPE svg PUBLIC "-//W3C//DTD SVG 1.1//EN"
  "http://www.w3.org/Graphics/SVG/1.1/DTD/svg11.dtd">
<svg xmlns:xlink="http://www.w3.org/1999/xlink" width="460.8pt" height="345.6pt" viewBox="0 0 460.8 345.6" xmlns="http://www.w3.org/2000/svg" version="1.1">
 <metadata>
  <rdf:RDF xmlns:dc="http://purl.org/dc/elements/1.1/" xmlns:cc="http://creativecommons.org/ns#" xmlns:rdf="http://www.w3.org/1999/02/22-rdf-syntax-ns#">
   <cc:Work>
    <dc:type rdf:resource="http://purl.org/dc/dcmitype/StillImage"/>
    <dc:date>2024-03-01T16:22:25.596141</dc:date>
    <dc:format>image/svg+xml</dc:format>
    <dc:creator>
     <cc:Agent>
      <dc:title>Matplotlib v3.5.3, https://matplotlib.org/</dc:title>
     </cc:Agent>
    </dc:creator>
   </cc:Work>
  </rdf:RDF>
 </metadata>
 <defs>
  <style type="text/css">*{stroke-linejoin: round; stroke-linecap: butt}</style>
 </defs>
 <g id="figure_1">
  <g id="patch_1">
   <path d="M 0 345.6 
L 460.8 345.6 
L 460.8 0 
L 0 0 
z
" style="fill: #ffffff"/>
  </g>
  <g id="axes_1">
   <g id="patch_2">
    <path d="M 57.6 307.584 
L 414.72 307.584 
L 414.72 41.472 
L 57.6 41.472 
z
" style="fill: #ffffff"/>
   </g>
   <g id="matplotlib.axis_1">
    <g id="xtick_1">
     <g id="line2d_1">
      <defs>
       <path id="m0cdefdc48a" d="M 0 0 
L 0 3.5 
" style="stroke: #000000; stroke-width: 0.8"/>
      </defs>
      <g>
       <use xlink:href="#m0cdefdc48a" x="68.096208" y="307.584" style="stroke: #000000; stroke-width: 0.8"/>
      </g>
     </g>
     <g id="text_1">
      <!-- $\mathdefault{10^{2}}$ -->
      <g transform="translate(59.296208 322.182437)scale(0.1 -0.1)">
       <defs>
        <path id="DejaVuSans-31" d="M 794 531 
L 1825 531 
L 1825 4091 
L 703 3866 
L 703 4441 
L 1819 4666 
L 2450 4666 
L 2450 531 
L 3481 531 
L 3481 0 
L 794 0 
L 794 531 
z
" transform="scale(0.015625)"/>
        <path id="DejaVuSans-30" d="M 2034 4250 
Q 1547 4250 1301 3770 
Q 1056 3291 1056 2328 
Q 1056 1369 1301 889 
Q 1547 409 2034 409 
Q 2525 409 2770 889 
Q 3016 1369 3016 2328 
Q 3016 3291 2770 3770 
Q 2525 4250 2034 4250 
z
M 2034 4750 
Q 2819 4750 3233 4129 
Q 3647 3509 3647 2328 
Q 3647 1150 3233 529 
Q 2819 -91 2034 -91 
Q 1250 -91 836 529 
Q 422 1150 422 2328 
Q 422 3509 836 4129 
Q 1250 4750 2034 4750 
z
" transform="scale(0.015625)"/>
        <path id="DejaVuSans-32" d="M 1228 531 
L 3431 531 
L 3431 0 
L 469 0 
L 469 531 
Q 828 903 1448 1529 
Q 2069 2156 2228 2338 
Q 2531 2678 2651 2914 
Q 2772 3150 2772 3378 
Q 2772 3750 2511 3984 
Q 2250 4219 1831 4219 
Q 1534 4219 1204 4116 
Q 875 4013 500 3803 
L 500 4441 
Q 881 4594 1212 4672 
Q 1544 4750 1819 4750 
Q 2544 4750 2975 4387 
Q 3406 4025 3406 3419 
Q 3406 3131 3298 2873 
Q 3191 2616 2906 2266 
Q 2828 2175 2409 1742 
Q 1991 1309 1228 531 
z
" transform="scale(0.015625)"/>
       </defs>
       <use xlink:href="#DejaVuSans-31" transform="translate(0 0.765625)"/>
       <use xlink:href="#DejaVuSans-30" transform="translate(63.623047 0.765625)"/>
       <use xlink:href="#DejaVuSans-32" transform="translate(128.203125 39.046875)scale(0.7)"/>
      </g>
     </g>
    </g>
    <g id="xtick_2">
     <g id="line2d_2">
      <g>
       <use xlink:href="#m0cdefdc48a" x="222.85798" y="307.584" style="stroke: #000000; stroke-width: 0.8"/>
      </g>
     </g>
     <g id="text_2">
      <!-- $\mathdefault{10^{3}}$ -->
      <g transform="translate(214.05798 322.182437)scale(0.1 -0.1)">
       <defs>
        <path id="DejaVuSans-33" d="M 2597 2516 
Q 3050 2419 3304 2112 
Q 3559 1806 3559 1356 
Q 3559 666 3084 287 
Q 2609 -91 1734 -91 
Q 1441 -91 1130 -33 
Q 819 25 488 141 
L 488 750 
Q 750 597 1062 519 
Q 1375 441 1716 441 
Q 2309 441 2620 675 
Q 2931 909 2931 1356 
Q 2931 1769 2642 2001 
Q 2353 2234 1838 2234 
L 1294 2234 
L 1294 2753 
L 1863 2753 
Q 2328 2753 2575 2939 
Q 2822 3125 2822 3475 
Q 2822 3834 2567 4026 
Q 2313 4219 1838 4219 
Q 1578 4219 1281 4162 
Q 984 4106 628 3988 
L 628 4550 
Q 988 4650 1302 4700 
Q 1616 4750 1894 4750 
Q 2613 4750 3031 4423 
Q 3450 4097 3450 3541 
Q 3450 3153 3228 2886 
Q 3006 2619 2597 2516 
z
" transform="scale(0.015625)"/>
       </defs>
       <use xlink:href="#DejaVuSans-31" transform="translate(0 0.765625)"/>
       <use xlink:href="#DejaVuSans-30" transform="translate(63.623047 0.765625)"/>
       <use xlink:href="#DejaVuSans-33" transform="translate(128.203125 39.046875)scale(0.7)"/>
      </g>
     </g>
    </g>
    <g id="xtick_3">
     <g id="line2d_3">
      <g>
       <use xlink:href="#m0cdefdc48a" x="377.619752" y="307.584" style="stroke: #000000; stroke-width: 0.8"/>
      </g>
     </g>
     <g id="text_3">
      <!-- $\mathdefault{10^{4}}$ -->
      <g transform="translate(368.819752 322.182437)scale(0.1 -0.1)">
       <defs>
        <path id="DejaVuSans-34" d="M 2419 4116 
L 825 1625 
L 2419 1625 
L 2419 4116 
z
M 2253 4666 
L 3047 4666 
L 3047 1625 
L 3713 1625 
L 3713 1100 
L 3047 1100 
L 3047 0 
L 2419 0 
L 2419 1100 
L 313 1100 
L 313 1709 
L 2253 4666 
z
" transform="scale(0.015625)"/>
       </defs>
       <use xlink:href="#DejaVuSans-31" transform="translate(0 0.684375)"/>
       <use xlink:href="#DejaVuSans-30" transform="translate(63.623047 0.684375)"/>
       <use xlink:href="#DejaVuSans-34" transform="translate(128.203125 38.965625)scale(0.7)"/>
      </g>
     </g>
    </g>
    <g id="xtick_4">
     <g id="line2d_4">
      <defs>
       <path id="me7d3874f0b" d="M 0 0 
L 0 2 
" style="stroke: #000000; stroke-width: 0.6"/>
      </defs>
      <g>
       <use xlink:href="#me7d3874f0b" x="61.014698" y="307.584" style="stroke: #000000; stroke-width: 0.6"/>
      </g>
     </g>
    </g>
    <g id="xtick_5">
     <g id="line2d_5">
      <g>
       <use xlink:href="#me7d3874f0b" x="114.684144" y="307.584" style="stroke: #000000; stroke-width: 0.6"/>
      </g>
     </g>
    </g>
    <g id="xtick_6">
     <g id="line2d_6">
      <g>
       <use xlink:href="#me7d3874f0b" x="141.936339" y="307.584" style="stroke: #000000; stroke-width: 0.6"/>
      </g>
     </g>
    </g>
    <g id="xtick_7">
     <g id="line2d_7">
      <g>
       <use xlink:href="#me7d3874f0b" x="161.272079" y="307.584" style="stroke: #000000; stroke-width: 0.6"/>
      </g>
     </g>
    </g>
    <g id="xtick_8">
     <g id="line2d_8">
      <g>
       <use xlink:href="#me7d3874f0b" x="176.270045" y="307.584" style="stroke: #000000; stroke-width: 0.6"/>
      </g>
     </g>
    </g>
    <g id="xtick_9">
     <g id="line2d_9">
      <g>
       <use xlink:href="#me7d3874f0b" x="188.524275" y="307.584" style="stroke: #000000; stroke-width: 0.6"/>
      </g>
     </g>
    </g>
    <g id="xtick_10">
     <g id="line2d_10">
      <g>
       <use xlink:href="#me7d3874f0b" x="198.885078" y="307.584" style="stroke: #000000; stroke-width: 0.6"/>
      </g>
     </g>
    </g>
    <g id="xtick_11">
     <g id="line2d_11">
      <g>
       <use xlink:href="#me7d3874f0b" x="207.860015" y="307.584" style="stroke: #000000; stroke-width: 0.6"/>
      </g>
     </g>
    </g>
    <g id="xtick_12">
     <g id="line2d_12">
      <g>
       <use xlink:href="#me7d3874f0b" x="215.77647" y="307.584" style="stroke: #000000; stroke-width: 0.6"/>
      </g>
     </g>
    </g>
    <g id="xtick_13">
     <g id="line2d_13">
      <g>
       <use xlink:href="#me7d3874f0b" x="269.445916" y="307.584" style="stroke: #000000; stroke-width: 0.6"/>
      </g>
     </g>
    </g>
    <g id="xtick_14">
     <g id="line2d_14">
      <g>
       <use xlink:href="#me7d3874f0b" x="296.698111" y="307.584" style="stroke: #000000; stroke-width: 0.6"/>
      </g>
     </g>
    </g>
    <g id="xtick_15">
     <g id="line2d_15">
      <g>
       <use xlink:href="#me7d3874f0b" x="316.033851" y="307.584" style="stroke: #000000; stroke-width: 0.6"/>
      </g>
     </g>
    </g>
    <g id="xtick_16">
     <g id="line2d_16">
      <g>
       <use xlink:href="#me7d3874f0b" x="331.031816" y="307.584" style="stroke: #000000; stroke-width: 0.6"/>
      </g>
     </g>
    </g>
    <g id="xtick_17">
     <g id="line2d_17">
      <g>
       <use xlink:href="#me7d3874f0b" x="343.286046" y="307.584" style="stroke: #000000; stroke-width: 0.6"/>
      </g>
     </g>
    </g>
    <g id="xtick_18">
     <g id="line2d_18">
      <g>
       <use xlink:href="#me7d3874f0b" x="353.64685" y="307.584" style="stroke: #000000; stroke-width: 0.6"/>
      </g>
     </g>
    </g>
    <g id="xtick_19">
     <g id="line2d_19">
      <g>
       <use xlink:href="#me7d3874f0b" x="362.621787" y="307.584" style="stroke: #000000; stroke-width: 0.6"/>
      </g>
     </g>
    </g>
    <g id="xtick_20">
     <g id="line2d_20">
      <g>
       <use xlink:href="#me7d3874f0b" x="370.538242" y="307.584" style="stroke: #000000; stroke-width: 0.6"/>
      </g>
     </g>
    </g>
    <g id="text_4">
     <!-- Execution time (s) -->
     <g transform="translate(190.645156 335.860562)scale(0.1 -0.1)">
      <defs>
       <path id="DejaVuSans-45" d="M 628 4666 
L 3578 4666 
L 3578 4134 
L 1259 4134 
L 1259 2753 
L 3481 2753 
L 3481 2222 
L 1259 2222 
L 1259 531 
L 3634 531 
L 3634 0 
L 628 0 
L 628 4666 
z
" transform="scale(0.015625)"/>
       <path id="DejaVuSans-78" d="M 3513 3500 
L 2247 1797 
L 3578 0 
L 2900 0 
L 1881 1375 
L 863 0 
L 184 0 
L 1544 1831 
L 300 3500 
L 978 3500 
L 1906 2253 
L 2834 3500 
L 3513 3500 
z
" transform="scale(0.015625)"/>
       <path id="DejaVuSans-65" d="M 3597 1894 
L 3597 1613 
L 953 1613 
Q 991 1019 1311 708 
Q 1631 397 2203 397 
Q 2534 397 2845 478 
Q 3156 559 3463 722 
L 3463 178 
Q 3153 47 2828 -22 
Q 2503 -91 2169 -91 
Q 1331 -91 842 396 
Q 353 884 353 1716 
Q 353 2575 817 3079 
Q 1281 3584 2069 3584 
Q 2775 3584 3186 3129 
Q 3597 2675 3597 1894 
z
M 3022 2063 
Q 3016 2534 2758 2815 
Q 2500 3097 2075 3097 
Q 1594 3097 1305 2825 
Q 1016 2553 972 2059 
L 3022 2063 
z
" transform="scale(0.015625)"/>
       <path id="DejaVuSans-63" d="M 3122 3366 
L 3122 2828 
Q 2878 2963 2633 3030 
Q 2388 3097 2138 3097 
Q 1578 3097 1268 2742 
Q 959 2388 959 1747 
Q 959 1106 1268 751 
Q 1578 397 2138 397 
Q 2388 397 2633 464 
Q 2878 531 3122 666 
L 3122 134 
Q 2881 22 2623 -34 
Q 2366 -91 2075 -91 
Q 1284 -91 818 406 
Q 353 903 353 1747 
Q 353 2603 823 3093 
Q 1294 3584 2113 3584 
Q 2378 3584 2631 3529 
Q 2884 3475 3122 3366 
z
" transform="scale(0.015625)"/>
       <path id="DejaVuSans-75" d="M 544 1381 
L 544 3500 
L 1119 3500 
L 1119 1403 
Q 1119 906 1312 657 
Q 1506 409 1894 409 
Q 2359 409 2629 706 
Q 2900 1003 2900 1516 
L 2900 3500 
L 3475 3500 
L 3475 0 
L 2900 0 
L 2900 538 
Q 2691 219 2414 64 
Q 2138 -91 1772 -91 
Q 1169 -91 856 284 
Q 544 659 544 1381 
z
M 1991 3584 
L 1991 3584 
z
" transform="scale(0.015625)"/>
       <path id="DejaVuSans-74" d="M 1172 4494 
L 1172 3500 
L 2356 3500 
L 2356 3053 
L 1172 3053 
L 1172 1153 
Q 1172 725 1289 603 
Q 1406 481 1766 481 
L 2356 481 
L 2356 0 
L 1766 0 
Q 1100 0 847 248 
Q 594 497 594 1153 
L 594 3053 
L 172 3053 
L 172 3500 
L 594 3500 
L 594 4494 
L 1172 4494 
z
" transform="scale(0.015625)"/>
       <path id="DejaVuSans-69" d="M 603 3500 
L 1178 3500 
L 1178 0 
L 603 0 
L 603 3500 
z
M 603 4863 
L 1178 4863 
L 1178 4134 
L 603 4134 
L 603 4863 
z
" transform="scale(0.015625)"/>
       <path id="DejaVuSans-6f" d="M 1959 3097 
Q 1497 3097 1228 2736 
Q 959 2375 959 1747 
Q 959 1119 1226 758 
Q 1494 397 1959 397 
Q 2419 397 2687 759 
Q 2956 1122 2956 1747 
Q 2956 2369 2687 2733 
Q 2419 3097 1959 3097 
z
M 1959 3584 
Q 2709 3584 3137 3096 
Q 3566 2609 3566 1747 
Q 3566 888 3137 398 
Q 2709 -91 1959 -91 
Q 1206 -91 779 398 
Q 353 888 353 1747 
Q 353 2609 779 3096 
Q 1206 3584 1959 3584 
z
" transform="scale(0.015625)"/>
       <path id="DejaVuSans-6e" d="M 3513 2113 
L 3513 0 
L 2938 0 
L 2938 2094 
Q 2938 2591 2744 2837 
Q 2550 3084 2163 3084 
Q 1697 3084 1428 2787 
Q 1159 2491 1159 1978 
L 1159 0 
L 581 0 
L 581 3500 
L 1159 3500 
L 1159 2956 
Q 1366 3272 1645 3428 
Q 1925 3584 2291 3584 
Q 2894 3584 3203 3211 
Q 3513 2838 3513 2113 
z
" transform="scale(0.015625)"/>
       <path id="DejaVuSans-20" transform="scale(0.015625)"/>
       <path id="DejaVuSans-6d" d="M 3328 2828 
Q 3544 3216 3844 3400 
Q 4144 3584 4550 3584 
Q 5097 3584 5394 3201 
Q 5691 2819 5691 2113 
L 5691 0 
L 5113 0 
L 5113 2094 
Q 5113 2597 4934 2840 
Q 4756 3084 4391 3084 
Q 3944 3084 3684 2787 
Q 3425 2491 3425 1978 
L 3425 0 
L 2847 0 
L 2847 2094 
Q 2847 2600 2669 2842 
Q 2491 3084 2119 3084 
Q 1678 3084 1418 2786 
Q 1159 2488 1159 1978 
L 1159 0 
L 581 0 
L 581 3500 
L 1159 3500 
L 1159 2956 
Q 1356 3278 1631 3431 
Q 1906 3584 2284 3584 
Q 2666 3584 2933 3390 
Q 3200 3197 3328 2828 
z
" transform="scale(0.015625)"/>
       <path id="DejaVuSans-28" d="M 1984 4856 
Q 1566 4138 1362 3434 
Q 1159 2731 1159 2009 
Q 1159 1288 1364 580 
Q 1569 -128 1984 -844 
L 1484 -844 
Q 1016 -109 783 600 
Q 550 1309 550 2009 
Q 550 2706 781 3412 
Q 1013 4119 1484 4856 
L 1984 4856 
z
" transform="scale(0.015625)"/>
       <path id="DejaVuSans-73" d="M 2834 3397 
L 2834 2853 
Q 2591 2978 2328 3040 
Q 2066 3103 1784 3103 
Q 1356 3103 1142 2972 
Q 928 2841 928 2578 
Q 928 2378 1081 2264 
Q 1234 2150 1697 2047 
L 1894 2003 
Q 2506 1872 2764 1633 
Q 3022 1394 3022 966 
Q 3022 478 2636 193 
Q 2250 -91 1575 -91 
Q 1294 -91 989 -36 
Q 684 19 347 128 
L 347 722 
Q 666 556 975 473 
Q 1284 391 1588 391 
Q 1994 391 2212 530 
Q 2431 669 2431 922 
Q 2431 1156 2273 1281 
Q 2116 1406 1581 1522 
L 1381 1569 
Q 847 1681 609 1914 
Q 372 2147 372 2553 
Q 372 3047 722 3315 
Q 1072 3584 1716 3584 
Q 2034 3584 2315 3537 
Q 2597 3491 2834 3397 
z
" transform="scale(0.015625)"/>
       <path id="DejaVuSans-29" d="M 513 4856 
L 1013 4856 
Q 1481 4119 1714 3412 
Q 1947 2706 1947 2009 
Q 1947 1309 1714 600 
Q 1481 -109 1013 -844 
L 513 -844 
Q 928 -128 1133 580 
Q 1338 1288 1338 2009 
Q 1338 2731 1133 3434 
Q 928 4138 513 4856 
z
" transform="scale(0.015625)"/>
      </defs>
      <use xlink:href="#DejaVuSans-45"/>
      <use xlink:href="#DejaVuSans-78" x="63.183594"/>
      <use xlink:href="#DejaVuSans-65" x="119.238281"/>
      <use xlink:href="#DejaVuSans-63" x="180.761719"/>
      <use xlink:href="#DejaVuSans-75" x="235.742188"/>
      <use xlink:href="#DejaVuSans-74" x="299.121094"/>
      <use xlink:href="#DejaVuSans-69" x="338.330078"/>
      <use xlink:href="#DejaVuSans-6f" x="366.113281"/>
      <use xlink:href="#DejaVuSans-6e" x="427.294922"/>
      <use xlink:href="#DejaVuSans-20" x="490.673828"/>
      <use xlink:href="#DejaVuSans-74" x="522.460938"/>
      <use xlink:href="#DejaVuSans-69" x="561.669922"/>
      <use xlink:href="#DejaVuSans-6d" x="589.453125"/>
      <use xlink:href="#DejaVuSans-65" x="686.865234"/>
      <use xlink:href="#DejaVuSans-20" x="748.388672"/>
      <use xlink:href="#DejaVuSans-28" x="780.175781"/>
      <use xlink:href="#DejaVuSans-73" x="819.189453"/>
      <use xlink:href="#DejaVuSans-29" x="871.289062"/>
     </g>
    </g>
   </g>
   <g id="matplotlib.axis_2">
    <g id="ytick_1">
     <g id="line2d_21">
      <defs>
       <path id="m891a4b9bae" d="M 0 0 
L -3.5 0 
" style="stroke: #000000; stroke-width: 0.8"/>
      </defs>
      <g>
       <use xlink:href="#m891a4b9bae" x="57.6" y="280.07332" style="stroke: #000000; stroke-width: 0.8"/>
      </g>
     </g>
     <g id="text_5">
      <!-- 3000 -->
      <g transform="translate(25.15 283.872539)scale(0.1 -0.1)">
       <use xlink:href="#DejaVuSans-33"/>
       <use xlink:href="#DejaVuSans-30" x="63.623047"/>
       <use xlink:href="#DejaVuSans-30" x="127.246094"/>
       <use xlink:href="#DejaVuSans-30" x="190.869141"/>
      </g>
     </g>
    </g>
    <g id="ytick_2">
     <g id="line2d_22">
      <g>
       <use xlink:href="#m891a4b9bae" x="57.6" y="243.828673" style="stroke: #000000; stroke-width: 0.8"/>
      </g>
     </g>
     <g id="text_6">
      <!-- 4000 -->
      <g transform="translate(25.15 247.627892)scale(0.1 -0.1)">
       <use xlink:href="#DejaVuSans-34"/>
       <use xlink:href="#DejaVuSans-30" x="63.623047"/>
       <use xlink:href="#DejaVuSans-30" x="127.246094"/>
       <use xlink:href="#DejaVuSans-30" x="190.869141"/>
      </g>
     </g>
    </g>
    <g id="ytick_3">
     <g id="line2d_23">
      <g>
       <use xlink:href="#m891a4b9bae" x="57.6" y="207.584027" style="stroke: #000000; stroke-width: 0.8"/>
      </g>
     </g>
     <g id="text_7">
      <!-- 5000 -->
      <g transform="translate(25.15 211.383246)scale(0.1 -0.1)">
       <defs>
        <path id="DejaVuSans-35" d="M 691 4666 
L 3169 4666 
L 3169 4134 
L 1269 4134 
L 1269 2991 
Q 1406 3038 1543 3061 
Q 1681 3084 1819 3084 
Q 2600 3084 3056 2656 
Q 3513 2228 3513 1497 
Q 3513 744 3044 326 
Q 2575 -91 1722 -91 
Q 1428 -91 1123 -41 
Q 819 9 494 109 
L 494 744 
Q 775 591 1075 516 
Q 1375 441 1709 441 
Q 2250 441 2565 725 
Q 2881 1009 2881 1497 
Q 2881 1984 2565 2268 
Q 2250 2553 1709 2553 
Q 1456 2553 1204 2497 
Q 953 2441 691 2322 
L 691 4666 
z
" transform="scale(0.015625)"/>
       </defs>
       <use xlink:href="#DejaVuSans-35"/>
       <use xlink:href="#DejaVuSans-30" x="63.623047"/>
       <use xlink:href="#DejaVuSans-30" x="127.246094"/>
       <use xlink:href="#DejaVuSans-30" x="190.869141"/>
      </g>
     </g>
    </g>
    <g id="ytick_4">
     <g id="line2d_24">
      <g>
       <use xlink:href="#m891a4b9bae" x="57.6" y="171.33938" style="stroke: #000000; stroke-width: 0.8"/>
      </g>
     </g>
     <g id="text_8">
      <!-- 6000 -->
      <g transform="translate(25.15 175.138599)scale(0.1 -0.1)">
       <defs>
        <path id="DejaVuSans-36" d="M 2113 2584 
Q 1688 2584 1439 2293 
Q 1191 2003 1191 1497 
Q 1191 994 1439 701 
Q 1688 409 2113 409 
Q 2538 409 2786 701 
Q 3034 994 3034 1497 
Q 3034 2003 2786 2293 
Q 2538 2584 2113 2584 
z
M 3366 4563 
L 3366 3988 
Q 3128 4100 2886 4159 
Q 2644 4219 2406 4219 
Q 1781 4219 1451 3797 
Q 1122 3375 1075 2522 
Q 1259 2794 1537 2939 
Q 1816 3084 2150 3084 
Q 2853 3084 3261 2657 
Q 3669 2231 3669 1497 
Q 3669 778 3244 343 
Q 2819 -91 2113 -91 
Q 1303 -91 875 529 
Q 447 1150 447 2328 
Q 447 3434 972 4092 
Q 1497 4750 2381 4750 
Q 2619 4750 2861 4703 
Q 3103 4656 3366 4563 
z
" transform="scale(0.015625)"/>
       </defs>
       <use xlink:href="#DejaVuSans-36"/>
       <use xlink:href="#DejaVuSans-30" x="63.623047"/>
       <use xlink:href="#DejaVuSans-30" x="127.246094"/>
       <use xlink:href="#DejaVuSans-30" x="190.869141"/>
      </g>
     </g>
    </g>
    <g id="ytick_5">
     <g id="line2d_25">
      <g>
       <use xlink:href="#m891a4b9bae" x="57.6" y="135.094734" style="stroke: #000000; stroke-width: 0.8"/>
      </g>
     </g>
     <g id="text_9">
      <!-- 7000 -->
      <g transform="translate(25.15 138.893953)scale(0.1 -0.1)">
       <defs>
        <path id="DejaVuSans-37" d="M 525 4666 
L 3525 4666 
L 3525 4397 
L 1831 0 
L 1172 0 
L 2766 4134 
L 525 4134 
L 525 4666 
z
" transform="scale(0.015625)"/>
       </defs>
       <use xlink:href="#DejaVuSans-37"/>
       <use xlink:href="#DejaVuSans-30" x="63.623047"/>
       <use xlink:href="#DejaVuSans-30" x="127.246094"/>
       <use xlink:href="#DejaVuSans-30" x="190.869141"/>
      </g>
     </g>
    </g>
    <g id="ytick_6">
     <g id="line2d_26">
      <g>
       <use xlink:href="#m891a4b9bae" x="57.6" y="98.850087" style="stroke: #000000; stroke-width: 0.8"/>
      </g>
     </g>
     <g id="text_10">
      <!-- 8000 -->
      <g transform="translate(25.15 102.649306)scale(0.1 -0.1)">
       <defs>
        <path id="DejaVuSans-38" d="M 2034 2216 
Q 1584 2216 1326 1975 
Q 1069 1734 1069 1313 
Q 1069 891 1326 650 
Q 1584 409 2034 409 
Q 2484 409 2743 651 
Q 3003 894 3003 1313 
Q 3003 1734 2745 1975 
Q 2488 2216 2034 2216 
z
M 1403 2484 
Q 997 2584 770 2862 
Q 544 3141 544 3541 
Q 544 4100 942 4425 
Q 1341 4750 2034 4750 
Q 2731 4750 3128 4425 
Q 3525 4100 3525 3541 
Q 3525 3141 3298 2862 
Q 3072 2584 2669 2484 
Q 3125 2378 3379 2068 
Q 3634 1759 3634 1313 
Q 3634 634 3220 271 
Q 2806 -91 2034 -91 
Q 1263 -91 848 271 
Q 434 634 434 1313 
Q 434 1759 690 2068 
Q 947 2378 1403 2484 
z
M 1172 3481 
Q 1172 3119 1398 2916 
Q 1625 2713 2034 2713 
Q 2441 2713 2670 2916 
Q 2900 3119 2900 3481 
Q 2900 3844 2670 4047 
Q 2441 4250 2034 4250 
Q 1625 4250 1398 4047 
Q 1172 3844 1172 3481 
z
" transform="scale(0.015625)"/>
       </defs>
       <use xlink:href="#DejaVuSans-38"/>
       <use xlink:href="#DejaVuSans-30" x="63.623047"/>
       <use xlink:href="#DejaVuSans-30" x="127.246094"/>
       <use xlink:href="#DejaVuSans-30" x="190.869141"/>
      </g>
     </g>
    </g>
    <g id="ytick_7">
     <g id="line2d_27">
      <g>
       <use xlink:href="#m891a4b9bae" x="57.6" y="62.605441" style="stroke: #000000; stroke-width: 0.8"/>
      </g>
     </g>
     <g id="text_11">
      <!-- 9000 -->
      <g transform="translate(25.15 66.40466)scale(0.1 -0.1)">
       <defs>
        <path id="DejaVuSans-39" d="M 703 97 
L 703 672 
Q 941 559 1184 500 
Q 1428 441 1663 441 
Q 2288 441 2617 861 
Q 2947 1281 2994 2138 
Q 2813 1869 2534 1725 
Q 2256 1581 1919 1581 
Q 1219 1581 811 2004 
Q 403 2428 403 3163 
Q 403 3881 828 4315 
Q 1253 4750 1959 4750 
Q 2769 4750 3195 4129 
Q 3622 3509 3622 2328 
Q 3622 1225 3098 567 
Q 2575 -91 1691 -91 
Q 1453 -91 1209 -44 
Q 966 3 703 97 
z
M 1959 2075 
Q 2384 2075 2632 2365 
Q 2881 2656 2881 3163 
Q 2881 3666 2632 3958 
Q 2384 4250 1959 4250 
Q 1534 4250 1286 3958 
Q 1038 3666 1038 3163 
Q 1038 2656 1286 2365 
Q 1534 2075 1959 2075 
z
" transform="scale(0.015625)"/>
       </defs>
       <use xlink:href="#DejaVuSans-39"/>
       <use xlink:href="#DejaVuSans-30" x="63.623047"/>
       <use xlink:href="#DejaVuSans-30" x="127.246094"/>
       <use xlink:href="#DejaVuSans-30" x="190.869141"/>
      </g>
     </g>
    </g>
    <g id="text_12">
     <!-- Memory (MB) -->
     <g transform="translate(19.070312 208.098312)rotate(-90)scale(0.1 -0.1)">
      <defs>
       <path id="DejaVuSans-4d" d="M 628 4666 
L 1569 4666 
L 2759 1491 
L 3956 4666 
L 4897 4666 
L 4897 0 
L 4281 0 
L 4281 4097 
L 3078 897 
L 2444 897 
L 1241 4097 
L 1241 0 
L 628 0 
L 628 4666 
z
" transform="scale(0.015625)"/>
       <path id="DejaVuSans-72" d="M 2631 2963 
Q 2534 3019 2420 3045 
Q 2306 3072 2169 3072 
Q 1681 3072 1420 2755 
Q 1159 2438 1159 1844 
L 1159 0 
L 581 0 
L 581 3500 
L 1159 3500 
L 1159 2956 
Q 1341 3275 1631 3429 
Q 1922 3584 2338 3584 
Q 2397 3584 2469 3576 
Q 2541 3569 2628 3553 
L 2631 2963 
z
" transform="scale(0.015625)"/>
       <path id="DejaVuSans-79" d="M 2059 -325 
Q 1816 -950 1584 -1140 
Q 1353 -1331 966 -1331 
L 506 -1331 
L 506 -850 
L 844 -850 
Q 1081 -850 1212 -737 
Q 1344 -625 1503 -206 
L 1606 56 
L 191 3500 
L 800 3500 
L 1894 763 
L 2988 3500 
L 3597 3500 
L 2059 -325 
z
" transform="scale(0.015625)"/>
       <path id="DejaVuSans-42" d="M 1259 2228 
L 1259 519 
L 2272 519 
Q 2781 519 3026 730 
Q 3272 941 3272 1375 
Q 3272 1813 3026 2020 
Q 2781 2228 2272 2228 
L 1259 2228 
z
M 1259 4147 
L 1259 2741 
L 2194 2741 
Q 2656 2741 2882 2914 
Q 3109 3088 3109 3444 
Q 3109 3797 2882 3972 
Q 2656 4147 2194 4147 
L 1259 4147 
z
M 628 4666 
L 2241 4666 
Q 2963 4666 3353 4366 
Q 3744 4066 3744 3513 
Q 3744 3084 3544 2831 
Q 3344 2578 2956 2516 
Q 3422 2416 3680 2098 
Q 3938 1781 3938 1306 
Q 3938 681 3513 340 
Q 3088 0 2303 0 
L 628 0 
L 628 4666 
z
" transform="scale(0.015625)"/>
      </defs>
      <use xlink:href="#DejaVuSans-4d"/>
      <use xlink:href="#DejaVuSans-65" x="86.279297"/>
      <use xlink:href="#DejaVuSans-6d" x="147.802734"/>
      <use xlink:href="#DejaVuSans-6f" x="245.214844"/>
      <use xlink:href="#DejaVuSans-72" x="306.396484"/>
      <use xlink:href="#DejaVuSans-79" x="347.509766"/>
      <use xlink:href="#DejaVuSans-20" x="406.689453"/>
      <use xlink:href="#DejaVuSans-28" x="438.476562"/>
      <use xlink:href="#DejaVuSans-4d" x="477.490234"/>
      <use xlink:href="#DejaVuSans-42" x="563.769531"/>
      <use xlink:href="#DejaVuSans-29" x="632.373047"/>
     </g>
    </g>
   </g>
   <g id="line2d_28">
    <path d="M 73.832727 295.281198 
L 86.154597 294.874571 
L 108.315816 295.488 
L 113.54297 295.042032 
L 115.635626 295.042032 
L 121.514297 293.822004 
L 127.874394 293.824527 
L 132.933369 293.156169 
L 135.990517 292.889538 
L 141.092085 290.774456 
L 149.651493 291.282183 
L 151.622643 290.829237 
L 153.800775 289.470846 
L 156.349895 288.935209 
L 159.095229 287.328447 
L 163.156995 286.788505 
L 165.144717 285.370434 
L 168.473442 285.361378 
L 173.645111 284.195388 
L 176.849015 282.736788 
L 178.781792 282.506529 
L 183.712221 282.506381 
L 185.959132 281.698769 
L 189.440774 281.698769 
L 197.045688 280.617252 
L 198.652088 279.887729 
L 201.317473 278.894247 
L 206.134122 276.676284 
L 210.346818 275.572795 
L 211.576544 274.830802 
L 212.997673 274.182634 
L 214.246028 272.767828 
L 215.403938 272.46438 
L 216.777117 271.432002 
L 218.022721 270.871128 
L 219.397143 270.598707 
L 221.075463 270.397844 
L 239.44835 270.212716 
L 240.351612 270.015119 
L 242.164054 268.746099 
L 244.064604 267.254392 
L 267.07745 266.230774 
L 267.734421 265.501399 
L 268.876181 263.866579 
L 269.648585 263.585399 
L 270.206347 263.195549 
L 270.726663 262.266498 
L 271.295797 260.811312 
L 273.072345 259.402296 
L 273.711244 257.840963 
L 274.830683 257.199327 
L 275.52004 256.562739 
L 276.780642 256.03111 
L 277.413881 256.303531 
L 278.485039 254.10457 
L 279.050883 253.823984 
L 279.621633 253.119996 
L 280.278057 252.4938 
L 280.961892 251.677281 
L 282.188491 249.750443 
L 282.722727 249.49465 
L 286.196206 245.629544 
L 287.450462 243.141684 
L 287.975837 244.424361 
L 290.268729 240.805251 
L 291.157582 240.980877 
L 292.125445 240.723005 
L 292.707944 239.867589 
L 293.741355 238.635536 
L 294.296727 238.016466 
L 295.701054 235.707943 
L 296.262603 235.50797 
L 296.785101 234.384736 
L 297.80999 233.164262 
L 298.340159 232.280194 
L 298.92249 231.534341 
L 300.016207 229.777785 
L 300.528928 229.508927 
L 301.322048 228.252378 
L 302.067486 227.46941 
L 303.263312 226.678277 
L 305.458519 225.62274 
L 308.612533 224.590066 
L 310.704046 223.472325 
L 313.130344 223.096875 
L 313.571607 222.604588 
L 314.057957 221.894513 
L 314.462927 220.726445 
L 315.81708 218.746014 
L 316.273317 218.423415 
L 318.448654 214.990619 
L 320.182218 212.486428 
L 321.247452 211.113636 
L 321.811826 210.474376 
L 322.396924 210.055575 
L 322.889467 209.505984 
L 325.426973 205.765286 
L 325.918024 205.489747 
L 326.50473 204.367256 
L 327.662575 203.042862 
L 328.381589 201.605936 
L 328.957517 200.864239 
L 329.404319 200.547727 
L 329.864622 199.769213 
L 330.449058 198.213372 
L 331.321701 197.681447 
L 331.912665 195.480704 
L 332.674304 194.925026 
L 333.593729 193.469988 
L 334.052297 193.37735 
L 334.587535 192.928413 
L 335.15688 192.214478 
L 335.670092 191.861 
L 336.808472 189.508088 
L 337.234188 189.166931 
L 337.71726 188.543555 
L 338.75213 186.904875 
L 339.127093 185.606758 
L 339.504934 185.148468 
L 339.913276 184.31354 
L 340.383417 183.605692 
L 340.818024 183.333716 
L 341.704035 181.554446 
L 342.285789 179.69397 
L 343.728038 178.671242 
L 345.62596 175.855141 
L 346.07166 175.478948 
L 347.387337 173.606298 
L 348.787087 171.417284 
L 349.337102 169.480054 
L 350.224768 168.936549 
L 351.081912 167.578158 
L 351.484552 165.035368 
L 353.227923 163.747049 
L 353.953455 162.252819 
L 355.790322 157.015515 
L 357.357053 155.760895 
L 357.774712 155.32339 
L 358.764753 152.974041 
L 359.114222 152.255949 
L 359.495916 151.934537 
L 361.017921 148.866948 
L 361.376658 147.522215 
L 361.773753 146.863952 
L 362.165086 146.455395 
L 362.521991 145.333943 
L 362.868871 144.991153 
L 363.512657 143.007605 
L 363.854115 142.218253 
L 364.22335 141.770207 
L 364.980918 140.147263 
L 365.495505 137.810236 
L 365.765233 137.434043 
L 366.071224 136.29923 
L 366.752885 135.410857 
L 367.065677 134.752445 
L 367.47585 134.305438 
L 367.837667 134.144064 
L 368.866975 132.172838 
L 369.856285 129.9476 
L 370.193536 128.956642 
L 370.898639 127.579248 
L 372.186527 124.436836 
L 372.520108 123.424797 
L 373.181876 121.985348 
L 374.441779 118.887622 
L 377.078082 111.803796 
L 377.363603 111.145088 
L 377.973362 110.54502 
L 378.817584 108.585671 
L 387.026437 85.995845 
L 387.626445 84.985885 
L 388.176038 83.944006 
L 388.44122 83.305636 
L 388.775376 81.957192 
L 389.031672 81.691155 
L 390.796463 76.58776 
L 391.313855 74.932156 
L 391.547383 73.409867 
L 391.973907 72.645159 
L 392.202207 71.07566 
L 392.7954 69.737905 
L 394.032239 65.423119 
L 394.265707 65.147581 
L 394.773806 63.746137 
L 396.26443 59.030515 
L 396.541985 58.798475 
L 397.050927 57.83513 
L 397.756713 55.81907 
L 398.487273 53.568 
L 398.487273 53.568 
" clip-path="url(#p2bfcb29ed4)" style="fill: none; stroke: #000000; stroke-width: 1.5; stroke-linecap: square"/>
    <defs>
     <path id="md33821309e" d="M 0 3 
C 0.795609 3 1.55874 2.683901 2.12132 2.12132 
C 2.683901 1.55874 3 0.795609 3 0 
C 3 -0.795609 2.683901 -1.55874 2.12132 -2.12132 
C 1.55874 -2.683901 0.795609 -3 0 -3 
C -0.795609 -3 -1.55874 -2.683901 -2.12132 -2.12132 
C -2.683901 -1.55874 -3 -0.795609 -3 0 
C -3 0.795609 -2.683901 1.55874 -2.12132 2.12132 
C -1.55874 2.683901 -0.795609 3 0 3 
z
" style="stroke: #000000"/>
    </defs>
    <g clip-path="url(#p2bfcb29ed4)">
     <use xlink:href="#md33821309e" x="73.832727" y="295.281198" style="stroke: #000000"/>
     <use xlink:href="#md33821309e" x="86.154597" y="294.874571" style="stroke: #000000"/>
     <use xlink:href="#md33821309e" x="108.315816" y="295.488" style="stroke: #000000"/>
     <use xlink:href="#md33821309e" x="113.54297" y="295.042032" style="stroke: #000000"/>
     <use xlink:href="#md33821309e" x="115.635626" y="295.042032" style="stroke: #000000"/>
     <use xlink:href="#md33821309e" x="121.514297" y="293.822004" style="stroke: #000000"/>
     <use xlink:href="#md33821309e" x="127.874394" y="293.824527" style="stroke: #000000"/>
     <use xlink:href="#md33821309e" x="132.933369" y="293.156169" style="stroke: #000000"/>
     <use xlink:href="#md33821309e" x="135.990517" y="292.889538" style="stroke: #000000"/>
     <use xlink:href="#md33821309e" x="141.092085" y="290.774456" style="stroke: #000000"/>
     <use xlink:href="#md33821309e" x="149.651493" y="291.282183" style="stroke: #000000"/>
     <use xlink:href="#md33821309e" x="151.622643" y="290.829237" style="stroke: #000000"/>
     <use xlink:href="#md33821309e" x="153.800775" y="289.470846" style="stroke: #000000"/>
     <use xlink:href="#md33821309e" x="156.349895" y="288.935209" style="stroke: #000000"/>
     <use xlink:href="#md33821309e" x="159.095229" y="287.328447" style="stroke: #000000"/>
     <use xlink:href="#md33821309e" x="161.104521" y="287.087648" style="stroke: #000000"/>
     <use xlink:href="#md33821309e" x="163.156995" y="286.788505" style="stroke: #000000"/>
     <use xlink:href="#md33821309e" x="165.144717" y="285.370434" style="stroke: #000000"/>
     <use xlink:href="#md33821309e" x="168.473442" y="285.361378" style="stroke: #000000"/>
     <use xlink:href="#md33821309e" x="173.645111" y="284.195388" style="stroke: #000000"/>
     <use xlink:href="#md33821309e" x="176.849015" y="282.736788" style="stroke: #000000"/>
     <use xlink:href="#md33821309e" x="178.781792" y="282.506529" style="stroke: #000000"/>
     <use xlink:href="#md33821309e" x="180.477889" y="282.506529" style="stroke: #000000"/>
     <use xlink:href="#md33821309e" x="182.168429" y="282.506381" style="stroke: #000000"/>
     <use xlink:href="#md33821309e" x="183.712221" y="282.506381" style="stroke: #000000"/>
     <use xlink:href="#md33821309e" x="185.959132" y="281.698769" style="stroke: #000000"/>
     <use xlink:href="#md33821309e" x="187.698368" y="281.698769" style="stroke: #000000"/>
     <use xlink:href="#md33821309e" x="189.440774" y="281.698769" style="stroke: #000000"/>
     <use xlink:href="#md33821309e" x="191.560043" y="281.384335" style="stroke: #000000"/>
     <use xlink:href="#md33821309e" x="193.270042" y="281.237361" style="stroke: #000000"/>
     <use xlink:href="#md33821309e" x="194.871751" y="280.994632" style="stroke: #000000"/>
     <use xlink:href="#md33821309e" x="197.045688" y="280.617252" style="stroke: #000000"/>
     <use xlink:href="#md33821309e" x="198.652088" y="279.887729" style="stroke: #000000"/>
     <use xlink:href="#md33821309e" x="201.317473" y="278.894247" style="stroke: #000000"/>
     <use xlink:href="#md33821309e" x="206.134122" y="276.676284" style="stroke: #000000"/>
     <use xlink:href="#md33821309e" x="207.643654" y="276.282128" style="stroke: #000000"/>
     <use xlink:href="#md33821309e" x="208.944418" y="276.013122" style="stroke: #000000"/>
     <use xlink:href="#md33821309e" x="210.346818" y="275.572795" style="stroke: #000000"/>
     <use xlink:href="#md33821309e" x="211.576544" y="274.830802" style="stroke: #000000"/>
     <use xlink:href="#md33821309e" x="212.997673" y="274.182634" style="stroke: #000000"/>
     <use xlink:href="#md33821309e" x="214.246028" y="272.767828" style="stroke: #000000"/>
     <use xlink:href="#md33821309e" x="215.403938" y="272.46438" style="stroke: #000000"/>
     <use xlink:href="#md33821309e" x="216.777117" y="271.432002" style="stroke: #000000"/>
     <use xlink:href="#md33821309e" x="218.022721" y="270.871128" style="stroke: #000000"/>
     <use xlink:href="#md33821309e" x="219.397143" y="270.598707" style="stroke: #000000"/>
     <use xlink:href="#md33821309e" x="221.075463" y="270.397844" style="stroke: #000000"/>
     <use xlink:href="#md33821309e" x="239.44835" y="270.212716" style="stroke: #000000"/>
     <use xlink:href="#md33821309e" x="240.351612" y="270.015119" style="stroke: #000000"/>
     <use xlink:href="#md33821309e" x="241.244693" y="269.428709" style="stroke: #000000"/>
     <use xlink:href="#md33821309e" x="242.164054" y="268.746099" style="stroke: #000000"/>
     <use xlink:href="#md33821309e" x="243.075473" y="267.993417" style="stroke: #000000"/>
     <use xlink:href="#md33821309e" x="244.064604" y="267.254392" style="stroke: #000000"/>
     <use xlink:href="#md33821309e" x="267.07745" y="266.230774" style="stroke: #000000"/>
     <use xlink:href="#md33821309e" x="267.734421" y="265.501399" style="stroke: #000000"/>
     <use xlink:href="#md33821309e" x="268.876181" y="263.866579" style="stroke: #000000"/>
     <use xlink:href="#md33821309e" x="269.648585" y="263.585399" style="stroke: #000000"/>
     <use xlink:href="#md33821309e" x="270.206347" y="263.195549" style="stroke: #000000"/>
     <use xlink:href="#md33821309e" x="270.726663" y="262.266498" style="stroke: #000000"/>
     <use xlink:href="#md33821309e" x="271.295797" y="260.811312" style="stroke: #000000"/>
     <use xlink:href="#md33821309e" x="271.82753" y="260.423985" style="stroke: #000000"/>
     <use xlink:href="#md33821309e" x="272.476114" y="259.87855" style="stroke: #000000"/>
     <use xlink:href="#md33821309e" x="273.072345" y="259.402296" style="stroke: #000000"/>
     <use xlink:href="#md33821309e" x="273.711244" y="257.840963" style="stroke: #000000"/>
     <use xlink:href="#md33821309e" x="274.280963" y="257.565573" style="stroke: #000000"/>
     <use xlink:href="#md33821309e" x="274.830683" y="257.199327" style="stroke: #000000"/>
     <use xlink:href="#md33821309e" x="275.52004" y="256.562739" style="stroke: #000000"/>
     <use xlink:href="#md33821309e" x="276.1173" y="256.333223" style="stroke: #000000"/>
     <use xlink:href="#md33821309e" x="276.780642" y="256.03111" style="stroke: #000000"/>
     <use xlink:href="#md33821309e" x="277.413881" y="256.303531" style="stroke: #000000"/>
     <use xlink:href="#md33821309e" x="277.902498" y="255.361861" style="stroke: #000000"/>
     <use xlink:href="#md33821309e" x="278.485039" y="254.10457" style="stroke: #000000"/>
     <use xlink:href="#md33821309e" x="279.050883" y="253.823984" style="stroke: #000000"/>
     <use xlink:href="#md33821309e" x="279.621633" y="253.119996" style="stroke: #000000"/>
     <use xlink:href="#md33821309e" x="280.278057" y="252.4938" style="stroke: #000000"/>
     <use xlink:href="#md33821309e" x="280.961892" y="251.677281" style="stroke: #000000"/>
     <use xlink:href="#md33821309e" x="282.188491" y="249.750443" style="stroke: #000000"/>
     <use xlink:href="#md33821309e" x="282.722727" y="249.49465" style="stroke: #000000"/>
     <use xlink:href="#md33821309e" x="283.344951" y="248.81976" style="stroke: #000000"/>
     <use xlink:href="#md33821309e" x="283.953958" y="248.124679" style="stroke: #000000"/>
     <use xlink:href="#md33821309e" x="284.565544" y="247.335179" style="stroke: #000000"/>
     <use xlink:href="#md33821309e" x="285.107244" y="247.049694" style="stroke: #000000"/>
     <use xlink:href="#md33821309e" x="285.626619" y="246.344667" style="stroke: #000000"/>
     <use xlink:href="#md33821309e" x="286.196206" y="245.629544" style="stroke: #000000"/>
     <use xlink:href="#md33821309e" x="287.450462" y="243.141684" style="stroke: #000000"/>
     <use xlink:href="#md33821309e" x="287.975837" y="244.424361" style="stroke: #000000"/>
     <use xlink:href="#md33821309e" x="288.562245" y="243.446914" style="stroke: #000000"/>
     <use xlink:href="#md33821309e" x="289.197178" y="242.483124" style="stroke: #000000"/>
     <use xlink:href="#md33821309e" x="290.268729" y="240.805251" style="stroke: #000000"/>
     <use xlink:href="#md33821309e" x="291.157582" y="240.980877" style="stroke: #000000"/>
     <use xlink:href="#md33821309e" x="291.606161" y="240.888981" style="stroke: #000000"/>
     <use xlink:href="#md33821309e" x="292.125445" y="240.723005" style="stroke: #000000"/>
     <use xlink:href="#md33821309e" x="292.707944" y="239.867589" style="stroke: #000000"/>
     <use xlink:href="#md33821309e" x="293.216893" y="239.338188" style="stroke: #000000"/>
     <use xlink:href="#md33821309e" x="293.741355" y="238.635536" style="stroke: #000000"/>
     <use xlink:href="#md33821309e" x="294.296727" y="238.016466" style="stroke: #000000"/>
     <use xlink:href="#md33821309e" x="294.902755" y="237.070194" style="stroke: #000000"/>
     <use xlink:href="#md33821309e" x="295.701054" y="235.707943" style="stroke: #000000"/>
     <use xlink:href="#md33821309e" x="296.262603" y="235.50797" style="stroke: #000000"/>
     <use xlink:href="#md33821309e" x="296.785101" y="234.384736" style="stroke: #000000"/>
     <use xlink:href="#md33821309e" x="297.295287" y="233.807679" style="stroke: #000000"/>
     <use xlink:href="#md33821309e" x="297.80999" y="233.164262" style="stroke: #000000"/>
     <use xlink:href="#md33821309e" x="298.340159" y="232.280194" style="stroke: #000000"/>
     <use xlink:href="#md33821309e" x="298.92249" y="231.534341" style="stroke: #000000"/>
     <use xlink:href="#md33821309e" x="299.49002" y="230.50716" style="stroke: #000000"/>
     <use xlink:href="#md33821309e" x="300.016207" y="229.777785" style="stroke: #000000"/>
     <use xlink:href="#md33821309e" x="300.528928" y="229.508927" style="stroke: #000000"/>
     <use xlink:href="#md33821309e" x="301.322048" y="228.252378" style="stroke: #000000"/>
     <use xlink:href="#md33821309e" x="302.067486" y="227.46941" style="stroke: #000000"/>
     <use xlink:href="#md33821309e" x="302.682121" y="227.074364" style="stroke: #000000"/>
     <use xlink:href="#md33821309e" x="303.263312" y="226.678277" style="stroke: #000000"/>
     <use xlink:href="#md33821309e" x="305.458519" y="225.62274" style="stroke: #000000"/>
     <use xlink:href="#md33821309e" x="308.084942" y="224.765247" style="stroke: #000000"/>
     <use xlink:href="#md33821309e" x="308.612533" y="224.590066" style="stroke: #000000"/>
     <use xlink:href="#md33821309e" x="310.704046" y="223.472325" style="stroke: #000000"/>
     <use xlink:href="#md33821309e" x="313.130344" y="223.096875" style="stroke: #000000"/>
     <use xlink:href="#md33821309e" x="313.571607" y="222.604588" style="stroke: #000000"/>
     <use xlink:href="#md33821309e" x="314.057957" y="221.894513" style="stroke: #000000"/>
     <use xlink:href="#md33821309e" x="314.462927" y="220.726445" style="stroke: #000000"/>
     <use xlink:href="#md33821309e" x="314.879404" y="220.10589" style="stroke: #000000"/>
     <use xlink:href="#md33821309e" x="315.333609" y="219.456683" style="stroke: #000000"/>
     <use xlink:href="#md33821309e" x="315.81708" y="218.746014" style="stroke: #000000"/>
     <use xlink:href="#md33821309e" x="316.273317" y="218.423415" style="stroke: #000000"/>
     <use xlink:href="#md33821309e" x="316.659811" y="217.783264" style="stroke: #000000"/>
     <use xlink:href="#md33821309e" x="317.052873" y="217.183344" style="stroke: #000000"/>
     <use xlink:href="#md33821309e" x="317.470009" y="216.529535" style="stroke: #000000"/>
     <use xlink:href="#md33821309e" x="317.962633" y="215.690302" style="stroke: #000000"/>
     <use xlink:href="#md33821309e" x="318.448654" y="214.990619" style="stroke: #000000"/>
     <use xlink:href="#md33821309e" x="319.120719" y="213.941466" style="stroke: #000000"/>
     <use xlink:href="#md33821309e" x="319.66319" y="213.258558" style="stroke: #000000"/>
     <use xlink:href="#md33821309e" x="320.182218" y="212.486428" style="stroke: #000000"/>
     <use xlink:href="#md33821309e" x="320.701571" y="211.724096" style="stroke: #000000"/>
     <use xlink:href="#md33821309e" x="321.247452" y="211.113636" style="stroke: #000000"/>
     <use xlink:href="#md33821309e" x="321.811826" y="210.474376" style="stroke: #000000"/>
     <use xlink:href="#md33821309e" x="322.396924" y="210.055575" style="stroke: #000000"/>
     <use xlink:href="#md33821309e" x="322.889467" y="209.505984" style="stroke: #000000"/>
     <use xlink:href="#md33821309e" x="323.345921" y="208.812685" style="stroke: #000000"/>
     <use xlink:href="#md33821309e" x="323.820438" y="208.043078" style="stroke: #000000"/>
     <use xlink:href="#md33821309e" x="324.311254" y="207.426828" style="stroke: #000000"/>
     <use xlink:href="#md33821309e" x="324.847297" y="206.583587" style="stroke: #000000"/>
     <use xlink:href="#md33821309e" x="325.426973" y="205.765286" style="stroke: #000000"/>
     <use xlink:href="#md33821309e" x="325.918024" y="205.489747" style="stroke: #000000"/>
     <use xlink:href="#md33821309e" x="326.50473" y="204.367256" style="stroke: #000000"/>
     <use xlink:href="#md33821309e" x="327.048363" y="203.777284" style="stroke: #000000"/>
     <use xlink:href="#md33821309e" x="327.662575" y="203.042862" style="stroke: #000000"/>
     <use xlink:href="#md33821309e" x="328.381589" y="201.605936" style="stroke: #000000"/>
     <use xlink:href="#md33821309e" x="328.957517" y="200.864239" style="stroke: #000000"/>
     <use xlink:href="#md33821309e" x="329.404319" y="200.547727" style="stroke: #000000"/>
     <use xlink:href="#md33821309e" x="329.864622" y="199.769213" style="stroke: #000000"/>
     <use xlink:href="#md33821309e" x="330.449058" y="198.213372" style="stroke: #000000"/>
     <use xlink:href="#md33821309e" x="330.913329" y="197.928629" style="stroke: #000000"/>
     <use xlink:href="#md33821309e" x="331.321701" y="197.681447" style="stroke: #000000"/>
     <use xlink:href="#md33821309e" x="331.912665" y="195.480704" style="stroke: #000000"/>
     <use xlink:href="#md33821309e" x="332.293315" y="195.222387" style="stroke: #000000"/>
     <use xlink:href="#md33821309e" x="332.674304" y="194.925026" style="stroke: #000000"/>
     <use xlink:href="#md33821309e" x="333.143458" y="194.089504" style="stroke: #000000"/>
     <use xlink:href="#md33821309e" x="333.593729" y="193.469988" style="stroke: #000000"/>
     <use xlink:href="#md33821309e" x="334.052297" y="193.37735" style="stroke: #000000"/>
     <use xlink:href="#md33821309e" x="334.587535" y="192.928413" style="stroke: #000000"/>
     <use xlink:href="#md33821309e" x="335.15688" y="192.214478" style="stroke: #000000"/>
     <use xlink:href="#md33821309e" x="335.670092" y="191.861" style="stroke: #000000"/>
     <use xlink:href="#md33821309e" x="336.040465" y="191.135633" style="stroke: #000000"/>
     <use xlink:href="#md33821309e" x="336.398333" y="190.440404" style="stroke: #000000"/>
     <use xlink:href="#md33821309e" x="336.808472" y="189.508088" style="stroke: #000000"/>
     <use xlink:href="#md33821309e" x="337.234188" y="189.166931" style="stroke: #000000"/>
     <use xlink:href="#md33821309e" x="337.71726" y="188.543555" style="stroke: #000000"/>
     <use xlink:href="#md33821309e" x="338.222822" y="187.635586" style="stroke: #000000"/>
     <use xlink:href="#md33821309e" x="338.75213" y="186.904875" style="stroke: #000000"/>
     <use xlink:href="#md33821309e" x="339.127093" y="185.606758" style="stroke: #000000"/>
     <use xlink:href="#md33821309e" x="339.504934" y="185.148468" style="stroke: #000000"/>
     <use xlink:href="#md33821309e" x="339.913276" y="184.31354" style="stroke: #000000"/>
     <use xlink:href="#md33821309e" x="340.383417" y="183.605692" style="stroke: #000000"/>
     <use xlink:href="#md33821309e" x="340.818024" y="183.333716" style="stroke: #000000"/>
     <use xlink:href="#md33821309e" x="341.274411" y="182.336969" style="stroke: #000000"/>
     <use xlink:href="#md33821309e" x="341.704035" y="181.554446" style="stroke: #000000"/>
     <use xlink:href="#md33821309e" x="342.285789" y="179.69397" style="stroke: #000000"/>
     <use xlink:href="#md33821309e" x="342.762456" y="179.389928" style="stroke: #000000"/>
     <use xlink:href="#md33821309e" x="343.248788" y="179.142745" style="stroke: #000000"/>
     <use xlink:href="#md33821309e" x="343.728038" y="178.671242" style="stroke: #000000"/>
     <use xlink:href="#md33821309e" x="344.211315" y="177.938602" style="stroke: #000000"/>
     <use xlink:href="#md33821309e" x="344.673483" y="177.172261" style="stroke: #000000"/>
     <use xlink:href="#md33821309e" x="345.112535" y="176.439769" style="stroke: #000000"/>
     <use xlink:href="#md33821309e" x="345.62596" y="175.855141" style="stroke: #000000"/>
     <use xlink:href="#md33821309e" x="346.07166" y="175.478948" style="stroke: #000000"/>
     <use xlink:href="#md33821309e" x="346.512186" y="174.899516" style="stroke: #000000"/>
     <use xlink:href="#md33821309e" x="346.939522" y="174.294698" style="stroke: #000000"/>
     <use xlink:href="#md33821309e" x="347.387337" y="173.606298" style="stroke: #000000"/>
     <use xlink:href="#md33821309e" x="347.856975" y="172.849607" style="stroke: #000000"/>
     <use xlink:href="#md33821309e" x="348.323063" y="172.154527" style="stroke: #000000"/>
     <use xlink:href="#md33821309e" x="348.787087" y="171.417284" style="stroke: #000000"/>
     <use xlink:href="#md33821309e" x="349.337102" y="169.480054" style="stroke: #000000"/>
     <use xlink:href="#md33821309e" x="349.809939" y="169.202586" style="stroke: #000000"/>
     <use xlink:href="#md33821309e" x="350.224768" y="168.936549" style="stroke: #000000"/>
     <use xlink:href="#md33821309e" x="350.663088" y="168.289421" style="stroke: #000000"/>
     <use xlink:href="#md33821309e" x="351.081912" y="167.578158" style="stroke: #000000"/>
     <use xlink:href="#md33821309e" x="351.484552" y="165.035368" style="stroke: #000000"/>
     <use xlink:href="#md33821309e" x="351.912007" y="164.747508" style="stroke: #000000"/>
     <use xlink:href="#md33821309e" x="352.353962" y="164.474642" style="stroke: #000000"/>
     <use xlink:href="#md33821309e" x="352.800386" y="164.208605" style="stroke: #000000"/>
     <use xlink:href="#md33821309e" x="353.227923" y="163.747049" style="stroke: #000000"/>
     <use xlink:href="#md33821309e" x="353.609029" y="162.999117" style="stroke: #000000"/>
     <use xlink:href="#md33821309e" x="353.953455" y="162.252819" style="stroke: #000000"/>
     <use xlink:href="#md33821309e" x="354.347334" y="161.083117" style="stroke: #000000"/>
     <use xlink:href="#md33821309e" x="354.663767" y="159.891741" style="stroke: #000000"/>
     <use xlink:href="#md33821309e" x="354.978254" y="159.316912" style="stroke: #000000"/>
     <use xlink:href="#md33821309e" x="355.314033" y="158.294332" style="stroke: #000000"/>
     <use xlink:href="#md33821309e" x="355.790322" y="157.015515" style="stroke: #000000"/>
     <use xlink:href="#md33821309e" x="356.170437" y="156.739828" style="stroke: #000000"/>
     <use xlink:href="#md33821309e" x="356.548343" y="156.454789" style="stroke: #000000"/>
     <use xlink:href="#md33821309e" x="356.932012" y="156.070727" style="stroke: #000000"/>
     <use xlink:href="#md33821309e" x="357.357053" y="155.760895" style="stroke: #000000"/>
     <use xlink:href="#md33821309e" x="357.774712" y="155.32339" style="stroke: #000000"/>
     <use xlink:href="#md33821309e" x="358.130694" y="154.383501" style="stroke: #000000"/>
     <use xlink:href="#md33821309e" x="358.457316" y="153.766807" style="stroke: #000000"/>
     <use xlink:href="#md33821309e" x="358.764753" y="152.974041" style="stroke: #000000"/>
     <use xlink:href="#md33821309e" x="359.114222" y="152.255949" style="stroke: #000000"/>
     <use xlink:href="#md33821309e" x="359.495916" y="151.934537" style="stroke: #000000"/>
     <use xlink:href="#md33821309e" x="359.883125" y="151.187051" style="stroke: #000000"/>
     <use xlink:href="#md33821309e" x="360.279637" y="150.404231" style="stroke: #000000"/>
     <use xlink:href="#md33821309e" x="360.647538" y="149.647541" style="stroke: #000000"/>
     <use xlink:href="#md33821309e" x="361.017921" y="148.866948" style="stroke: #000000"/>
     <use xlink:href="#md33821309e" x="361.376658" y="147.522215" style="stroke: #000000"/>
     <use xlink:href="#md33821309e" x="361.773753" y="146.863952" style="stroke: #000000"/>
     <use xlink:href="#md33821309e" x="362.165086" y="146.455395" style="stroke: #000000"/>
     <use xlink:href="#md33821309e" x="362.521991" y="145.333943" style="stroke: #000000"/>
     <use xlink:href="#md33821309e" x="362.868871" y="144.991153" style="stroke: #000000"/>
     <use xlink:href="#md33821309e" x="363.183913" y="143.924333" style="stroke: #000000"/>
     <use xlink:href="#md33821309e" x="363.512657" y="143.007605" style="stroke: #000000"/>
     <use xlink:href="#md33821309e" x="363.854115" y="142.218253" style="stroke: #000000"/>
     <use xlink:href="#md33821309e" x="364.22335" y="141.770207" style="stroke: #000000"/>
     <use xlink:href="#md33821309e" x="364.611722" y="140.961853" style="stroke: #000000"/>
     <use xlink:href="#md33821309e" x="364.980918" y="140.147263" style="stroke: #000000"/>
     <use xlink:href="#md33821309e" x="365.226265" y="138.853599" style="stroke: #000000"/>
     <use xlink:href="#md33821309e" x="365.495505" y="137.810236" style="stroke: #000000"/>
     <use xlink:href="#md33821309e" x="365.765233" y="137.434043" style="stroke: #000000"/>
     <use xlink:href="#md33821309e" x="366.071224" y="136.29923" style="stroke: #000000"/>
     <use xlink:href="#md33821309e" x="366.424519" y="135.865287" style="stroke: #000000"/>
     <use xlink:href="#md33821309e" x="366.752885" y="135.410857" style="stroke: #000000"/>
     <use xlink:href="#md33821309e" x="367.065677" y="134.752445" style="stroke: #000000"/>
     <use xlink:href="#md33821309e" x="367.47585" y="134.305438" style="stroke: #000000"/>
     <use xlink:href="#md33821309e" x="367.837667" y="134.144064" style="stroke: #000000"/>
     <use xlink:href="#md33821309e" x="368.159567" y="133.567601" style="stroke: #000000"/>
     <use xlink:href="#md33821309e" x="368.522467" y="132.931162" style="stroke: #000000"/>
     <use xlink:href="#md33821309e" x="368.866975" y="132.172838" style="stroke: #000000"/>
     <use xlink:href="#md33821309e" x="369.220952" y="131.429657" style="stroke: #000000"/>
     <use xlink:href="#md33821309e" x="369.548167" y="130.699688" style="stroke: #000000"/>
     <use xlink:href="#md33821309e" x="369.856285" y="129.9476" style="stroke: #000000"/>
     <use xlink:href="#md33821309e" x="370.193536" y="128.956642" style="stroke: #000000"/>
     <use xlink:href="#md33821309e" x="370.536992" y="128.375874" style="stroke: #000000"/>
     <use xlink:href="#md33821309e" x="370.898639" y="127.579248" style="stroke: #000000"/>
     <use xlink:href="#md33821309e" x="371.248983" y="126.764213" style="stroke: #000000"/>
     <use xlink:href="#md33821309e" x="371.577204" y="125.998318" style="stroke: #000000"/>
     <use xlink:href="#md33821309e" x="371.892712" y="125.187143" style="stroke: #000000"/>
     <use xlink:href="#md33821309e" x="372.186527" y="124.436836" style="stroke: #000000"/>
     <use xlink:href="#md33821309e" x="372.520108" y="123.424797" style="stroke: #000000"/>
     <use xlink:href="#md33821309e" x="372.848247" y="122.818346" style="stroke: #000000"/>
     <use xlink:href="#md33821309e" x="373.181876" y="121.985348" style="stroke: #000000"/>
     <use xlink:href="#md33821309e" x="373.516361" y="121.204162" style="stroke: #000000"/>
     <use xlink:href="#md33821309e" x="373.825861" y="120.438563" style="stroke: #000000"/>
     <use xlink:href="#md33821309e" x="374.145285" y="119.627834" style="stroke: #000000"/>
     <use xlink:href="#md33821309e" x="374.441779" y="118.887622" style="stroke: #000000"/>
     <use xlink:href="#md33821309e" x="374.720425" y="118.105693" style="stroke: #000000"/>
     <use xlink:href="#md33821309e" x="375.011475" y="117.333563" style="stroke: #000000"/>
     <use xlink:href="#md33821309e" x="375.306125" y="116.535452" style="stroke: #000000"/>
     <use xlink:href="#md33821309e" x="375.602355" y="115.758719" style="stroke: #000000"/>
     <use xlink:href="#md33821309e" x="375.893171" y="114.955116" style="stroke: #000000"/>
     <use xlink:href="#md33821309e" x="376.19598" y="114.180165" style="stroke: #000000"/>
     <use xlink:href="#md33821309e" x="376.473763" y="113.413082" style="stroke: #000000"/>
     <use xlink:href="#md33821309e" x="376.770759" y="112.581717" style="stroke: #000000"/>
     <use xlink:href="#md33821309e" x="377.078082" y="111.803796" style="stroke: #000000"/>
     <use xlink:href="#md33821309e" x="377.363603" y="111.145088" style="stroke: #000000"/>
     <use xlink:href="#md33821309e" x="377.691516" y="110.885138" style="stroke: #000000"/>
     <use xlink:href="#md33821309e" x="377.973362" y="110.54502" style="stroke: #000000"/>
     <use xlink:href="#md33821309e" x="378.263515" y="109.948813" style="stroke: #000000"/>
     <use xlink:href="#md33821309e" x="378.542777" y="109.30302" style="stroke: #000000"/>
     <use xlink:href="#md33821309e" x="378.817584" y="108.585671" style="stroke: #000000"/>
     <use xlink:href="#md33821309e" x="379.086963" y="107.839966" style="stroke: #000000"/>
     <use xlink:href="#md33821309e" x="379.367145" y="106.917447" style="stroke: #000000"/>
     <use xlink:href="#md33821309e" x="379.667575" y="106.380178" style="stroke: #000000"/>
     <use xlink:href="#md33821309e" x="379.962547" y="105.628089" style="stroke: #000000"/>
     <use xlink:href="#md33821309e" x="380.235545" y="104.908661" style="stroke: #000000"/>
     <use xlink:href="#md33821309e" x="380.487336" y="104.191312" style="stroke: #000000"/>
     <use xlink:href="#md33821309e" x="380.749957" y="103.445013" style="stroke: #000000"/>
     <use xlink:href="#md33821309e" x="381.019693" y="102.695597" style="stroke: #000000"/>
     <use xlink:href="#md33821309e" x="381.305745" y="101.872397" style="stroke: #000000"/>
     <use xlink:href="#md33821309e" x="381.595329" y="101.137678" style="stroke: #000000"/>
     <use xlink:href="#md33821309e" x="381.846052" y="100.372673" style="stroke: #000000"/>
     <use xlink:href="#md33821309e" x="382.106399" y="99.576938" style="stroke: #000000"/>
     <use xlink:href="#md33821309e" x="382.393992" y="98.757746" style="stroke: #000000"/>
     <use xlink:href="#md33821309e" x="382.701608" y="97.962753" style="stroke: #000000"/>
     <use xlink:href="#md33821309e" x="383.02886" y="97.144601" style="stroke: #000000"/>
     <use xlink:href="#md33821309e" x="383.320456" y="96.358664" style="stroke: #000000"/>
     <use xlink:href="#md33821309e" x="383.594306" y="95.574063" style="stroke: #000000"/>
     <use xlink:href="#md33821309e" x="383.877546" y="94.795697" style="stroke: #000000"/>
     <use xlink:href="#md33821309e" x="384.152321" y="94.016293" style="stroke: #000000"/>
     <use xlink:href="#md33821309e" x="384.442225" y="93.223823" style="stroke: #000000"/>
     <use xlink:href="#md33821309e" x="384.746446" y="92.391567" style="stroke: #000000"/>
     <use xlink:href="#md33821309e" x="385.039251" y="91.632947" style="stroke: #000000"/>
     <use xlink:href="#md33821309e" x="385.308147" y="90.826522" style="stroke: #000000"/>
     <use xlink:href="#md33821309e" x="385.597191" y="90.000799" style="stroke: #000000"/>
     <use xlink:href="#md33821309e" x="385.889249" y="89.233122" style="stroke: #000000"/>
     <use xlink:href="#md33821309e" x="386.172999" y="88.425807" style="stroke: #000000"/>
     <use xlink:href="#md33821309e" x="386.472347" y="87.614929" style="stroke: #000000"/>
     <use xlink:href="#md33821309e" x="386.749509" y="86.825874" style="stroke: #000000"/>
     <use xlink:href="#md33821309e" x="387.026437" y="85.995845" style="stroke: #000000"/>
     <use xlink:href="#md33821309e" x="387.347722" y="85.350943" style="stroke: #000000"/>
     <use xlink:href="#md33821309e" x="387.626445" y="84.985885" style="stroke: #000000"/>
     <use xlink:href="#md33821309e" x="387.906118" y="84.531306" style="stroke: #000000"/>
     <use xlink:href="#md33821309e" x="388.176038" y="83.944006" style="stroke: #000000"/>
     <use xlink:href="#md33821309e" x="388.44122" y="83.305636" style="stroke: #000000"/>
     <use xlink:href="#md33821309e" x="388.775376" y="81.957192" style="stroke: #000000"/>
     <use xlink:href="#md33821309e" x="389.031672" y="81.691155" style="stroke: #000000"/>
     <use xlink:href="#md33821309e" x="389.262072" y="81.062583" style="stroke: #000000"/>
     <use xlink:href="#md33821309e" x="389.509351" y="80.333506" style="stroke: #000000"/>
     <use xlink:href="#md33821309e" x="389.796254" y="79.570728" style="stroke: #000000"/>
     <use xlink:href="#md33821309e" x="390.077566" y="78.79548" style="stroke: #000000"/>
     <use xlink:href="#md33821309e" x="390.346589" y="78.078428" style="stroke: #000000"/>
     <use xlink:href="#md33821309e" x="390.573097" y="77.348756" style="stroke: #000000"/>
     <use xlink:href="#md33821309e" x="390.796463" y="76.58776" style="stroke: #000000"/>
     <use xlink:href="#md33821309e" x="391.040715" y="75.754614" style="stroke: #000000"/>
     <use xlink:href="#md33821309e" x="391.313855" y="74.932156" style="stroke: #000000"/>
     <use xlink:href="#md33821309e" x="391.547383" y="73.409867" style="stroke: #000000"/>
     <use xlink:href="#md33821309e" x="391.780293" y="72.901843" style="stroke: #000000"/>
     <use xlink:href="#md33821309e" x="391.973907" y="72.645159" style="stroke: #000000"/>
     <use xlink:href="#md33821309e" x="392.202207" y="71.07566" style="stroke: #000000"/>
     <use xlink:href="#md33821309e" x="392.48143" y="70.459708" style="stroke: #000000"/>
     <use xlink:href="#md33821309e" x="392.7954" y="69.737905" style="stroke: #000000"/>
     <use xlink:href="#md33821309e" x="393.030099" y="68.938903" style="stroke: #000000"/>
     <use xlink:href="#md33821309e" x="393.270557" y="68.38085" style="stroke: #000000"/>
     <use xlink:href="#md33821309e" x="393.511908" y="67.568635" style="stroke: #000000"/>
     <use xlink:href="#md33821309e" x="393.755072" y="66.830057" style="stroke: #000000"/>
     <use xlink:href="#md33821309e" x="394.032239" y="65.423119" style="stroke: #000000"/>
     <use xlink:href="#md33821309e" x="394.265707" y="65.147581" style="stroke: #000000"/>
     <use xlink:href="#md33821309e" x="394.513824" y="64.542466" style="stroke: #000000"/>
     <use xlink:href="#md33821309e" x="394.773806" y="63.746137" style="stroke: #000000"/>
     <use xlink:href="#md33821309e" x="395.022058" y="62.962872" style="stroke: #000000"/>
     <use xlink:href="#md33821309e" x="395.268465" y="62.158229" style="stroke: #000000"/>
     <use xlink:href="#md33821309e" x="395.511281" y="61.36769" style="stroke: #000000"/>
     <use xlink:href="#md33821309e" x="395.773606" y="60.533801" style="stroke: #000000"/>
     <use xlink:href="#md33821309e" x="396.02723" y="59.738808" style="stroke: #000000"/>
     <use xlink:href="#md33821309e" x="396.26443" y="59.030515" style="stroke: #000000"/>
     <use xlink:href="#md33821309e" x="396.541985" y="58.798475" style="stroke: #000000"/>
     <use xlink:href="#md33821309e" x="396.792744" y="58.418125" style="stroke: #000000"/>
     <use xlink:href="#md33821309e" x="397.050927" y="57.83513" style="stroke: #000000"/>
     <use xlink:href="#md33821309e" x="397.29582" y="57.208786" style="stroke: #000000"/>
     <use xlink:href="#md33821309e" x="397.538985" y="56.547999" style="stroke: #000000"/>
     <use xlink:href="#md33821309e" x="397.756713" y="55.81907" style="stroke: #000000"/>
     <use xlink:href="#md33821309e" x="397.980984" y="55.073513" style="stroke: #000000"/>
     <use xlink:href="#md33821309e" x="398.231853" y="54.312814" style="stroke: #000000"/>
     <use xlink:href="#md33821309e" x="398.487273" y="53.568" style="stroke: #000000"/>
    </g>
   </g>
   <g id="patch_3">
    <path d="M 57.6 307.584 
L 57.6 41.472 
" style="fill: none; stroke: #000000; stroke-width: 0.8; stroke-linejoin: miter; stroke-linecap: square"/>
   </g>
   <g id="patch_4">
    <path d="M 414.72 307.584 
L 414.72 41.472 
" style="fill: none; stroke: #000000; stroke-width: 0.8; stroke-linejoin: miter; stroke-linecap: square"/>
   </g>
   <g id="patch_5">
    <path d="M 57.6 307.584 
L 414.72 307.584 
" style="fill: none; stroke: #000000; stroke-width: 0.8; stroke-linejoin: miter; stroke-linecap: square"/>
   </g>
   <g id="patch_6">
    <path d="M 57.6 41.472 
L 414.72 41.472 
" style="fill: none; stroke: #000000; stroke-width: 0.8; stroke-linejoin: miter; stroke-linecap: square"/>
   </g>
   <g id="legend_1">
    <g id="patch_7">
     <path d="M 64.6 64.150125 
L 118.617188 64.150125 
Q 120.617188 64.150125 120.617188 62.150125 
L 120.617188 48.472 
Q 120.617188 46.472 118.617188 46.472 
L 64.6 46.472 
Q 62.6 46.472 62.6 48.472 
L 62.6 62.150125 
Q 62.6 64.150125 64.6 64.150125 
z
" style="fill: #ffffff; opacity: 0.8; stroke: #cccccc; stroke-linejoin: miter"/>
    </g>
    <g id="line2d_29">
     <path d="M 66.6 54.570438 
L 76.6 54.570438 
L 86.6 54.570438 
" style="fill: none; stroke: #000000; stroke-width: 1.5; stroke-linecap: square"/>
     <g>
      <use xlink:href="#md33821309e" x="76.6" y="54.570438" style="stroke: #000000"/>
     </g>
    </g>
    <g id="text_13">
     <!-- RAM -->
     <g transform="translate(94.6 58.070438)scale(0.1 -0.1)">
      <defs>
       <path id="DejaVuSans-52" d="M 2841 2188 
Q 3044 2119 3236 1894 
Q 3428 1669 3622 1275 
L 4263 0 
L 3584 0 
L 2988 1197 
Q 2756 1666 2539 1819 
Q 2322 1972 1947 1972 
L 1259 1972 
L 1259 0 
L 628 0 
L 628 4666 
L 2053 4666 
Q 2853 4666 3247 4331 
Q 3641 3997 3641 3322 
Q 3641 2881 3436 2590 
Q 3231 2300 2841 2188 
z
M 1259 4147 
L 1259 2491 
L 2053 2491 
Q 2509 2491 2742 2702 
Q 2975 2913 2975 3322 
Q 2975 3731 2742 3939 
Q 2509 4147 2053 4147 
L 1259 4147 
z
" transform="scale(0.015625)"/>
       <path id="DejaVuSans-41" d="M 2188 4044 
L 1331 1722 
L 3047 1722 
L 2188 4044 
z
M 1831 4666 
L 2547 4666 
L 4325 0 
L 3669 0 
L 3244 1197 
L 1141 1197 
L 716 0 
L 50 0 
L 1831 4666 
z
" transform="scale(0.015625)"/>
      </defs>
      <use xlink:href="#DejaVuSans-52"/>
      <use xlink:href="#DejaVuSans-41" x="65.482422"/>
      <use xlink:href="#DejaVuSans-4d" x="133.890625"/>
     </g>
    </g>
   </g>
  </g>
 </g>
 <defs>
  <clipPath id="p2bfcb29ed4">
   <rect x="57.6" y="41.472" width="357.12" height="266.112"/>
  </clipPath>
 </defs>
</svg>
